<?xml version="1.0" encoding="UTF-8"?>
<svg version="1.1" xmlns="http://www.w3.org/2000/svg" width="598" height="253">
<path d="M0 0 C5.94 0 11.88 0 18 0 C18.33 10.56 18.66 21.12 19 32 C32.02124061 16.397392 32.02124061 16.397392 44 0 C46.06298828 -0.34057617 46.06298828 -0.34057617 48.5703125 -0.29296875 C49.46621094 -0.28330078 50.36210937 -0.27363281 51.28515625 -0.26367188 C52.69087891 -0.2259668 52.69087891 -0.2259668 54.125 -0.1875 C55.06988281 -0.17396484 56.01476562 -0.16042969 56.98828125 -0.14648438 C59.32608779 -0.11106306 61.66276237 -0.06167271 64 0 C62.56997559 4.29007324 60.45268442 7.09880655 57.5 10.5 C53.75903441 14.87432745 50.13179595 19.31034705 46.625 23.875 C45.83351562 24.90367187 45.04203125 25.93234375 44.2265625 26.9921875 C42.04415319 29.94035446 40.0063428 32.93093682 38 36 C43.87528037 45.92623745 49.7902242 55.81815745 56.0625 65.5 C56.51471924 66.19859131 56.96693848 66.89718262 57.43286133 67.61694336 C59.52845821 70.8287639 61.69100538 73.936577 64 77 C64.19077118 76.44830139 64.38154236 75.89660278 64.57809448 75.32818604 C82.25755944 24.20818308 82.25755944 24.20818308 91 0 C98.26 0 105.52 0 113 0 C116.67825037 8.60777113 119.95135899 17.27666017 123.01171875 26.12109375 C123.47025662 27.4373015 123.92915163 28.75338488 124.38838196 30.0693512 C125.58255788 33.49390538 126.77262134 36.91987278 127.96154785 40.34625244 C129.87314046 45.8529699 131.79115514 51.35745375 133.70911598 56.86195564 C134.37397623 58.77198665 135.03707392 60.6826221 135.69987488 62.59336853 C136.10402115 63.75550369 136.50816742 64.91763885 136.92456055 66.11499023 C137.27810104 67.13358627 137.63164154 68.15218231 137.99589539 69.2016449 C138.65780558 71.04633293 139.3685177 72.87432923 140.12971497 74.68031311 C141 77 141 77 141 80 C134.73 80 128.46 80 122 80 C121.175 77.586875 120.35 75.17375 119.5 72.6875 C119.23896484 71.93170654 118.97792969 71.17591309 118.70898438 70.3972168 C117.72282302 67.47512677 117 65.10385594 117 62 C107.43 62 97.86 62 88 62 C86.72602944 67.17489749 86.72602944 67.17489749 85.45727539 72.35107422 C84.11111111 77.77777778 84.11111111 77.77777778 83 80 C49.18993853 83.00744929 49.18993853 83.00744929 41.08789062 78.3125 C36.92223945 74.04241746 34.79791651 68.95884795 32.88085938 63.37695312 C31.62669034 59.99264332 29.81802714 57.38956927 27.75 54.4375 C25 50.24047619 25 50.24047619 25 48 C24.21625 48.495 23.4325 48.99 22.625 49.5 C20 51 20 51 18 51 C18 60.57 18 70.14 18 80 C12.06 80 6.12 80 0 80 C0 53.6 0 27.2 0 0 Z M102 15 C100.71651613 19.25362637 99.4348135 23.50778402 98.15478516 27.76245117 C97.71875588 29.21084222 97.28223352 30.65908491 96.84521484 32.10717773 C96.21843955 34.18434803 95.59341876 36.26203913 94.96875 38.33984375 C94.59169922 39.59144287 94.21464844 40.84304199 93.82617188 42.13256836 C92.95385667 44.6628053 92.95385667 44.6628053 93 46 C99.27 46 105.54 46 112 46 C109.24523421 35.59310702 106.1200633 25.30181017 103 15 C102.67 15 102.34 15 102 15 Z " fill="#B75555" transform="translate(111,149)"/>
<path d="M0 0 C0.94875 0.04125 1.8975 0.0825 2.875 0.125 C4.74591876 5.2388446 5.8130785 10.35323824 6.8125 15.6875 C6.96912109 16.48607422 7.12574219 17.28464844 7.28710938 18.10742188 C8.28992349 23.39317119 9.10176547 28.68912193 9.82804871 34.01843262 C11.74104751 48.00095067 14.34401866 61.82975078 17 75.6875 C17.4600435 78.1112507 17.9196811 80.53507849 18.37890625 82.95898438 C18.8173406 85.26569493 19.25612903 87.57233821 19.6953125 89.87890625 C19.89947784 90.95169327 20.10364319 92.02448029 20.31399536 93.129776 C20.59966873 94.61930031 20.59966873 94.61930031 20.89111328 96.13891602 C21.05749298 97.00823257 21.22387268 97.87754913 21.39529419 98.77320862 C21.83097638 100.90917112 22.32708584 103.01538368 22.875 105.125 C23.41769531 104.02800781 23.96039063 102.93101562 24.51953125 101.80078125 C25.2420797 100.34630061 25.96474196 98.8918765 26.6875 97.4375 C27.04392578 96.71626953 27.40035156 95.99503906 27.76757812 95.25195312 C28.11884766 94.54619141 28.47011719 93.84042969 28.83203125 93.11328125 C29.15147705 92.46915283 29.47092285 91.82502441 29.80004883 91.16137695 C30.15478271 90.48937256 30.5095166 89.81736816 30.875 89.125 C31.24439697 88.2285376 31.61379395 87.3320752 31.99438477 86.40844727 C33.875 84.125 33.875 84.125 37.50439453 83.54150391 C39.00565549 83.53553891 40.50719186 83.55731618 42.0078125 83.6015625 C42.8002536 83.60626556 43.5926947 83.61096863 44.40914917 83.61581421 C46.94031581 83.63717098 49.46939228 83.69380696 52 83.75 C53.71221995 83.7665041 55.42446213 83.78085295 57.13671875 83.79296875 C69.67949997 83.92949997 69.67949997 83.92949997 70.875 85.125 C71 87.625 71 87.625 70.875 90.125 C69.0048202 91.9951798 65.81394615 91.25584477 63.3203125 91.265625 C61.97003522 91.28395334 60.61977433 91.30352368 59.26953125 91.32421875 C57.13399691 91.35320346 54.99951341 91.37500011 52.86376953 91.37548828 C50.80666178 91.37882079 48.75199661 91.41335044 46.6953125 91.453125 C45.46055176 91.4624707 44.22579102 91.47181641 42.95361328 91.48144531 C39.6982769 91.81512287 39.6982769 91.81512287 38.00195312 94.53710938 C37.01495257 96.80361845 36.07913837 99.04671247 35.25 101.375 C33.26109195 106.51496236 30.76965826 111.32756362 28.1875 116.1875 C27.78257324 116.95030273 27.37764648 117.71310547 26.96044922 118.49902344 C24.0185904 123.9814096 24.0185904 123.9814096 22.875 125.125 C20.87541636 125.16580783 18.87454746 125.16754356 16.875 125.125 C14.81976479 116.49442466 12.97879538 107.85051726 11.375 99.125 C11.15634277 97.94276855 10.93768555 96.76053711 10.71240234 95.54248047 C9.48377751 88.793709 8.39534226 82.05025419 7.5 75.25 C5.37215264 59.09657512 1.98033981 43.11297645 -1.125 27.125 C-3.05004142 32.35011243 -4.43647619 37.41551647 -5.46484375 42.890625 C-7.16996949 51.78171712 -9.52083904 60.46176997 -11.94116211 69.18164062 C-12.69736689 71.91060729 -13.44187159 74.64259542 -14.18554688 77.375 C-14.66597925 79.11998107 -15.14707391 80.86477997 -15.62890625 82.609375 C-15.96022301 83.82799225 -15.96022301 83.82799225 -16.29823303 85.07122803 C-17.25594876 88.49519411 -18.13750949 91.14376423 -20.125 94.125 C-22.375 94.125 -22.375 94.125 -25.125 93.125 C-28.4466087 87.31052728 -30.54090791 81.29962046 -32.5625 74.9375 C-35.17684877 66.8907933 -37.964158 58.97612367 -41.125 51.125 C-43.62165899 56.76904292 -45.53121395 62.39360919 -47.0625 68.375 C-52.13270548 88.13270548 -52.13270548 88.13270548 -55.125 91.125 C-57.27058827 91.21275605 -59.41904421 91.23195219 -61.56640625 91.22265625 C-62.87158203 91.21943359 -64.17675781 91.21621094 -65.52148438 91.21289062 C-66.9101569 91.20453401 -68.29882877 91.19606905 -69.6875 91.1875 C-71.08007656 91.18248666 -72.47265481 91.17792347 -73.86523438 91.17382812 C-77.28517451 91.16199442 -80.7050925 91.14405831 -84.125 91.125 C-84.125 97.065 -84.125 103.005 -84.125 109.125 C-90.065 109.125 -96.005 109.125 -102.125 109.125 C-102.125 82.725 -102.125 56.325 -102.125 29.125 C-96.185 29.125 -90.245 29.125 -84.125 29.125 C-84.125 47.275 -84.125 65.425 -84.125 84.125 C-76.535 83.795 -68.945 83.465 -61.125 83.125 C-60.74472656 81.49304688 -60.36445313 79.86109375 -59.97265625 78.1796875 C-57.94074808 70.05444109 -55.25093375 62.17547105 -52.5625 54.25 C-52.06272436 52.76576861 -51.56337302 51.28139427 -51.06445312 49.796875 C-50.15031416 47.07870001 -49.23376504 44.3613665 -48.31420898 41.64501953 C-47.24301747 38.47432783 -46.18085952 35.30082507 -45.125 32.125 C-42.3125 31.875 -42.3125 31.875 -39.125 32.125 C-36.32215355 35.06630715 -35.23132534 38.24585244 -34.00390625 42.0703125 C-33.43639648 43.81054688 -33.43639648 43.81054688 -32.85742188 45.5859375 C-32.47134766 46.79507813 -32.08527344 48.00421875 -31.6875 49.25 C-29.08476148 57.32595088 -26.41497837 65.29963977 -23.125 73.125 C-21.32105593 68.14267827 -19.9032178 63.29583734 -18.87109375 58.09765625 C-16.62425012 47.41344306 -13.62363054 36.92600427 -10.73535156 26.40112305 C-9.99460397 23.69672699 -9.25887066 20.99100147 -8.5234375 18.28515625 C-8.18437881 17.05999046 -8.18437881 17.05999046 -7.83847046 15.81007385 C-6.86813972 12.23646262 -6.08981459 8.86038934 -5.60009766 5.17749023 C-4.9476851 0.98575631 -4.27547611 0.17101904 0 0 Z " fill="#D18C0D" transform="translate(363.125,119.875)"/>
<path d="M0 0 C1.75390625 0.99609375 1.75390625 0.99609375 4.56640625 3.24609375 C5.53578125 3.98859375 6.50515625 4.73109375 7.50390625 5.49609375 C8.52484375 6.36234375 8.52484375 6.36234375 9.56640625 7.24609375 C9.96279297 6.32570313 9.96279297 6.32570313 10.3671875 5.38671875 C12.44656468 1.67499662 15.64573314 0.36792138 19.56640625 -0.75390625 C27.69900044 -1.64077585 35.87228061 -2.02963835 42.56640625 3.24609375 C47.0415535 7.48570693 48.31699939 12.70054345 48.73883057 18.69726562 C48.79639193 21.4241952 48.79157295 24.14373015 48.76171875 26.87109375 C48.75888885 27.85859619 48.75605896 28.84609863 48.75314331 29.86352539 C48.74202445 32.9911759 48.71693541 36.11853103 48.69140625 39.24609375 C48.68136573 41.37760001 48.67224176 43.50911079 48.6640625 45.640625 C48.64211232 50.84256025 48.60764016 56.04427706 48.56640625 61.24609375 C42.62640625 61.24609375 36.68640625 61.24609375 30.56640625 61.24609375 C30.51742187 58.35601562 30.4684375 55.4659375 30.41796875 52.48828125 C30.36390442 49.67833435 30.30661835 46.86847024 30.24902344 44.05859375 C30.21082392 42.11106577 30.1759555 40.1634694 30.14453125 38.21582031 C30.09868429 35.41055929 30.04072259 32.60576536 29.98046875 29.80078125 C29.96891754 28.93492401 29.95736633 28.06906677 29.94546509 27.17697144 C29.83200849 22.49247333 29.35277394 18.65246739 27.56640625 14.24609375 C26.15017409 14.19162328 24.73332434 14.15308867 23.31640625 14.12109375 C22.13304687 14.08628906 22.13304687 14.08628906 20.92578125 14.05078125 C18.14019558 14.28137609 16.80928149 14.5500352 14.56640625 16.24609375 C11.71201732 21.6934646 11.10365142 26.14978663 11.0546875 32.2421875 C11.0367363 33.07573257 11.0187851 33.90927765 11.00028992 34.76808167 C10.9465033 37.40653563 10.91239394 40.04481203 10.87890625 42.68359375 C10.84570513 44.48244642 10.81121291 46.28127575 10.77539062 48.08007812 C10.68838565 52.46877106 10.62804935 56.85667969 10.56640625 61.24609375 C4.62640625 61.24609375 -1.31359375 61.24609375 -7.43359375 61.24609375 C-7.46332275 59.36905762 -7.46332275 59.36905762 -7.49365234 57.45410156 C-7.56974668 52.80969175 -7.65845838 48.16559367 -7.75097656 43.52148438 C-7.78925044 41.51178137 -7.82410611 39.50201024 -7.85546875 37.4921875 C-7.90115366 34.60261695 -7.95914262 31.71351479 -8.01953125 28.82421875 C-8.03108246 27.92616516 -8.04263367 27.02811157 -8.05453491 26.10284424 C-8.0744046 25.26227478 -8.09427429 24.42170532 -8.11474609 23.55566406 C-8.12806976 22.81842102 -8.14139343 22.08117798 -8.15512085 21.32159424 C-8.47715611 18.92141692 -9.1661081 17.30278707 -10.43359375 15.24609375 C-13.90023238 13.51277444 -17.77517638 14.03943619 -21.5534668 14.51025391 C-23.55348395 15.07794148 -23.55348395 15.07794148 -24.45629883 16.87646484 C-27.12775397 25.73048491 -26.9961377 34.70345482 -27.12109375 43.87109375 C-27.15432562 45.55992137 -27.18882054 47.24872463 -27.22460938 48.9375 C-27.31117655 53.04038144 -27.371805 57.14246835 -27.43359375 61.24609375 C-33.37359375 61.24609375 -39.31359375 61.24609375 -45.43359375 61.24609375 C-45.43359375 41.11609375 -45.43359375 20.98609375 -45.43359375 0.24609375 C-40.81359375 0.24609375 -36.19359375 0.24609375 -31.43359375 0.24609375 C-30.44359375 2.22609375 -29.45359375 4.20609375 -28.43359375 6.24609375 C-27.96308594 5.82457031 -27.49257813 5.40304688 -27.0078125 4.96875 C-26.38519531 4.42089844 -25.76257813 3.87304688 -25.12109375 3.30859375 C-24.50621094 2.76332031 -23.89132812 2.21804687 -23.2578125 1.65625 C-17.88161964 -2.49965069 -6.2855425 -1.94720659 0 0 Z " fill="#B75555" transform="translate(456.43359375,50.75390625)"/>
<path d="M0 0 C5.94 0 11.88 0 18 0 C18.01458252 1.558396 18.02916504 3.11679199 18.04418945 4.72241211 C18.1023792 10.53172173 18.17961127 16.34065212 18.26245117 22.1496582 C18.29560332 24.65870994 18.32366514 27.16783452 18.34643555 29.67700195 C18.3801597 33.29409681 18.43248627 36.91053002 18.48828125 40.52734375 C18.49467117 41.64020248 18.5010611 42.75306122 18.50764465 43.89964294 C18.6269085 50.2888904 19.11107107 56.19761934 22 62 C25.59636113 65.21455567 28.7751862 65.40811785 33.5 65.375 C34.6034375 65.38273437 35.706875 65.39046875 36.84375 65.3984375 C40.49871798 64.93704303 42.20922686 64.4180329 45 62 C48.30539819 55.15271007 48.46955845 48.92719602 48.51171875 41.40625 C48.52966995 40.21898315 48.54762115 39.03171631 48.56611633 37.80847168 C48.62003529 34.03901658 48.6540569 30.26968681 48.6875 26.5 C48.72068921 23.93487847 48.75518035 21.36977343 48.79101562 18.8046875 C48.87575165 12.53654899 48.94265119 6.26844648 49 0 C54.94 0 60.88 0 67 0 C67.07446173 7.79213398 67.12875012 15.58405827 67.16479492 23.37646484 C67.17983019 26.02428803 67.20026376 28.67208653 67.22631836 31.31982422 C67.26293261 35.13775752 67.27977966 38.95535993 67.29296875 42.7734375 C67.30845261 43.94675629 67.32393646 45.12007507 67.33988953 46.32894897 C67.34180947 55.82228138 66.15875891 64.43352476 60 72 C52.54883173 79.45116827 43.81220422 81.57452457 33.46484375 82.03515625 C24.56381453 81.94484141 15.77227027 80.40738844 9.05859375 74.20703125 C-0.18135193 64.23406274 -0.15713302 53.50865449 -0.09765625 40.625 C-0.0962413 39.4599292 -0.09482635 38.2948584 -0.09336853 37.09448242 C-0.08779916 33.3962948 -0.07525231 29.69816913 -0.0625 26 C-0.05748104 23.48307379 -0.05291883 20.96614663 -0.04882812 18.44921875 C-0.03783976 12.29945553 -0.0205963 6.14973824 0 0 Z " fill="#B75555" transform="translate(26,149)"/>
<path d="M0 0 C5.94 0 11.88 0 18 0 C18 28.05 18 56.1 18 85 C13.05 85 8.1 85 3 85 C2.34 83.35 1.68 81.7 1 80 C0.09121094 80.63228516 0.09121094 80.63228516 -0.8359375 81.27734375 C-7.82683075 85.84831241 -13.269187 87.75608927 -21.60546875 86.65625 C-28.41680364 85.08995211 -32.18740767 81.76667865 -36 76 C-41.68208628 65.78901838 -41.83596481 50.45966163 -38.875 39.3125 C-36.59651755 33.24007934 -33.10336133 27.93160887 -27.5 24.5 C-21.6522182 21.99220127 -15.20508512 22.12797294 -9 23 C-5.95113051 24.3015115 -3.5660981 25.92937329 -1 28 C-0.67 28 -0.34 28 0 28 C0 18.76 0 9.52 0 0 Z M-19 40 C-21.62708609 45.09476161 -22.47358286 49.30635614 -22.375 55.0625 C-22.38660156 55.74376953 -22.39820313 56.42503906 -22.41015625 57.12695312 C-22.37829474 62.6549248 -20.9978904 66.69474185 -17.375 70.875 C-13.62339769 72.65207478 -10.06776721 72.64648443 -6 72 C-2.60869949 70.12396142 -1.35333154 68.86466697 0.109375 65.28515625 C1.91515826 58.62435044 2.32748116 50.31519045 -0.3125 43.8125 C-2.8376303 39.55629087 -2.8376303 39.55629087 -7.0859375 37.3828125 C-13.58081913 36.64741829 -13.58081913 36.64741829 -19 40 Z " fill="#B75555" transform="translate(259,27)"/>
<path d="M0 0 C6.27 0 12.54 0 19 0 C22.28178535 7.93349027 25.0696871 15.9705627 27.75 24.125 C28.16121094 25.36765625 28.57242188 26.6103125 28.99609375 27.890625 C30.00016255 30.92618183 31.00139873 33.96264107 32 37 C34.02966631 33.30517888 35.29137123 29.37992739 36.6015625 25.390625 C36.9635524 24.30041046 36.9635524 24.30041046 37.33285522 23.18817139 C38.09973534 20.87637449 38.86242148 18.56321896 39.625 16.25 C40.14555686 14.67829382 40.66638713 13.10667817 41.1875 11.53515625 C42.46201866 7.6913054 43.7308525 3.84564427 45 0 C51.27 0 57.54 0 64 0 C63.17118046 4.1440977 62.13618506 7.63534226 60.68676758 11.57519531 C60.45242004 12.21495804 60.21807251 12.85472076 59.97662354 13.51387024 C59.20349688 15.62021001 58.42454066 17.72432501 57.64453125 19.828125 C57.37712317 20.55148796 57.10971508 21.27485092 56.83420372 22.02013397 C55.41796442 25.85107833 53.99735533 29.6803676 52.57299805 33.50830078 C51.1112197 37.43922266 49.66379069 41.37526235 48.21976185 45.3127327 C47.09940962 48.35965983 45.96853599 51.40260554 44.83487511 54.44460297 C44.29723625 55.8926629 43.76342429 57.34215026 43.23371315 58.79312897 C35.66841516 79.48353435 35.66841516 79.48353435 27.3125 84.5 C26.19294922 85.19609375 26.19294922 85.19609375 25.05078125 85.90625 C20.83763041 88.15326378 17.02474487 88.15122037 12.375 88.125 C11.68148437 88.12886719 10.98796875 88.13273437 10.2734375 88.13671875 C5.12666646 88.12666646 5.12666646 88.12666646 4 87 C3.92728259 84.64686445 3.91629132 82.29166332 3.9375 79.9375 C3.94652344 78.64714844 3.95554687 77.35679687 3.96484375 76.02734375 C3.97644531 75.02832031 3.98804687 74.02929688 4 73 C4.58007812 73.03480469 5.16015625 73.06960937 5.7578125 73.10546875 C10.92388646 73.28449111 14.70037499 73.19972094 19 70 C21.31427904 66.76000934 23.2581659 63.78009737 22.66871643 59.71574402 C21.95493694 56.81699307 20.98717482 54.18246902 19.86694336 51.4152832 C19.42656235 50.32097488 18.98618134 49.22666656 18.53245544 48.09919739 C18.05639359 46.92822006 17.58033173 45.75724274 17.08984375 44.55078125 C16.34608517 42.70403396 15.60233022 40.85728519 14.85879612 39.0104475 C13.55531314 35.77633544 12.24601406 32.54457892 10.9375 29.3125 C9.37238448 25.44457426 7.8086175 21.57611847 6.24989319 17.70561218 C5.2794702 15.29704656 4.30578178 12.88979365 3.32859802 10.48396301 C2.89136917 9.39911118 2.45414032 8.31425934 2.00366211 7.1965332 C1.61585068 6.23898636 1.22803925 5.28143951 0.82847595 4.2948761 C0 2 0 2 0 0 Z " fill="#B75555" transform="translate(78,51)"/>
<path d="M0 0 C-0.56825653 5.54050113 -2.62886517 10.03715966 -5 15 C-5.82242188 14.71125 -6.64484375 14.4225 -7.4921875 14.125 C-17.54022693 10.72884339 -17.54022693 10.72884339 -28 11 C-30.28030237 12.2177862 -30.28030237 12.2177862 -32 14 C-32.75011367 17.45728358 -32.75011367 17.45728358 -32 21 C-27.31043532 25.63317712 -21.01229327 28.1410357 -15.125 30.9375 C-8.19969573 34.41114468 -3.06632304 38.86735392 0.4375 45.875 C1.73867783 53.10376571 1.98942043 60.56889415 -2 67 C-8.45754629 74.39277713 -15.12679301 76.87019333 -24.6875 77.8125 C-34.69004313 78.33838478 -42.79310891 76.94581047 -52 73 C-52 67.39 -52 61.78 -52 56 C-50.783125 56.433125 -49.56625 56.86625 -48.3125 57.3125 C-39.2338658 60.3005859 -30.52194356 63.15011629 -21 61 C-18.52564181 59.0114747 -18.05910877 58.33987541 -17.5 55.125 C-18.14032565 51.12296466 -19.90575628 49.39844342 -23 47 C-26.83796037 44.76825038 -30.85851297 42.89953805 -34.875 41.01367188 C-41.82226884 37.56760598 -46.92991291 33.14017418 -50.4375 26.125 C-51.74005989 18.88855614 -51.98212398 11.4408851 -48 5 C-36.07695965 -8.9382021 -15.28484586 -7.64242293 0 0 Z " fill="#B75555" transform="translate(74,36)"/>
<path d="M0 0 C8.62624405 5.2822798 12.84838638 12.1548721 15.1875 21.8125 C16.1784221 33.01222423 15.5605975 43.40309223 8.5625 52.6875 C2.41380579 59.08214198 -5.15661215 61.51071244 -13.859375 61.87890625 C-23.63698817 61.65903929 -31.13300896 58.79396223 -38.0625 51.8125 C-44.90148776 43.21705091 -45.68696772 31.96964419 -44.5625 21.48046875 C-43.34905972 14.2630271 -40.17747492 7.39772179 -34.30078125 2.8828125 C-24.45360319 -3.12612243 -10.7728354 -5.20687044 0 0 Z M-24.8125 16.8125 C-27.82390095 23.65659306 -27.95866071 32.14294239 -25.625 39.25 C-23.67197746 43.08869948 -22.6249323 44.82340489 -18.8125 46.8125 C-15.67769799 47.4109622 -12.94075909 47.47108086 -9.8125 46.8125 C-5.98683481 43.96360039 -4.2530671 41.29146844 -2.8125 36.8125 C-2.0054046 28.43184662 -1.8206741 20.88425336 -6.8125 13.8125 C-13.64818427 9.59294181 -19.65303663 11.0388148 -24.8125 16.8125 Z " fill="#B75555" transform="translate(383.8125,52.1875)"/>
<path d="M0 0 C7.10815905 5.50987476 9.28630952 10.68788027 10.98046875 19.53515625 C10.98046875 23.82515625 10.98046875 28.11515625 10.98046875 32.53515625 C-1.88953125 32.53515625 -14.75953125 32.53515625 -28.01953125 32.53515625 C-25.91019117 40.9279283 -25.91019117 40.9279283 -22.64453125 44.09765625 C-14.56427016 47.30189772 -6.06280837 46.06895668 1.95703125 43.19140625 C3.98046875 42.53515625 3.98046875 42.53515625 6.98046875 42.53515625 C6.98046875 47.15515625 6.98046875 51.77515625 6.98046875 56.53515625 C-4.84282542 61.30595916 -18.48226344 62.28355945 -30.484375 57.56640625 C-38.28558619 53.72421239 -42.52124093 47.76436495 -45.41308594 39.71850586 C-46.43105652 36.05356586 -46.5087947 32.50750196 -46.45703125 28.72265625 C-46.44873291 27.93584473 -46.44043457 27.1490332 -46.43188477 26.33837891 C-46.15892528 16.87902151 -43.70914336 9.06659683 -36.96484375 2.1953125 C-27.47009889 -5.90763241 -10.59859218 -6.54887193 0 0 Z M-25.01953125 11.53515625 C-27.12501219 14.79525576 -28.01953125 16.65402243 -28.01953125 20.53515625 C-20.75953125 20.53515625 -13.49953125 20.53515625 -6.01953125 20.53515625 C-7.04775658 14.36580427 -7.33479574 13.17883942 -12.01953125 9.53515625 C-17.12486245 7.75938888 -20.42353218 8.84693038 -25.01953125 11.53515625 Z " fill="#B75555" transform="translate(563.01953125,53.46484375)"/>
<path d="M0 0 C0.69029297 -0.01611328 1.38058594 -0.03222656 2.09179688 -0.04882812 C7.70156858 -0.05414544 11.63857009 1.22004768 15.890625 4.890625 C16.35984375 5.44234375 16.8290625 5.9940625 17.3125 6.5625 C17.79203125 7.10390625 18.2715625 7.6453125 18.765625 8.203125 C22.53238781 14.32978741 22.33355757 20.88219725 22.2578125 27.83984375 C22.2549826 28.82876114 22.25215271 29.81767853 22.24923706 30.83656311 C22.23810142 33.97450195 22.21300903 37.11214839 22.1875 40.25 C22.17746165 42.38606357 22.1683373 44.52213164 22.16015625 46.65820312 C22.13818375 51.8764136 22.10369964 57.09440734 22.0625 62.3125 C16.1225 62.3125 10.1825 62.3125 4.0625 62.3125 C4.02511719 59.41082031 3.98773438 56.50914063 3.94921875 53.51953125 C3.90298066 50.70296782 3.85175529 47.88653608 3.80004883 45.07006836 C3.76683646 43.11572298 3.73879305 41.16128253 3.71606445 39.20678711 C3.68245067 36.39395718 3.63013146 33.58199553 3.57421875 30.76953125 C3.56782883 29.89851273 3.5614389 29.0274942 3.55485535 28.13008118 C3.42955014 22.93614671 2.91996846 19.16996846 -0.9375 15.3125 C-4.92540511 15.04663966 -7.9390114 15.0018591 -11.75 16.1875 C-18.57260431 22.81517276 -17.45961331 34.74967601 -17.59106445 43.59326172 C-17.60226318 44.36686035 -17.61346191 45.14045898 -17.625 45.9375 C-17.65823736 47.52997488 -17.69273275 49.12242403 -17.72851562 50.71484375 C-17.81500563 54.58074599 -17.87568417 58.44581332 -17.9375 62.3125 C-23.5475 62.3125 -29.1575 62.3125 -34.9375 62.3125 C-34.9375 42.1825 -34.9375 22.0525 -34.9375 1.3125 C-30.3175 1.3125 -25.6975 1.3125 -20.9375 1.3125 C-20.2775 3.2925 -19.6175 5.2725 -18.9375 7.3125 C-18.050625 6.52875 -17.16375 5.745 -16.25 4.9375 C-11.31473726 0.57610502 -6.425597 -0.029831 0 0 Z " fill="#B75555" transform="translate(184.9375,49.6875)"/>
<path d="M0 0 C5.94 0 11.88 0 18 0 C18 26.4 18 52.8 18 80 C12.06 80 6.12 80 0 80 C0 53.6 0 27.2 0 0 Z " fill="#B75554" transform="translate(261,149)"/>
<path d="M0 0 C1.63001953 0.01353516 1.63001953 0.01353516 3.29296875 0.02734375 C4.12441406 0.03894531 4.95585937 0.05054688 5.8125 0.0625 C5.91727512 5.84841511 5.80500545 11.35559366 4.8125 17.0625 C4.1834375 17.01609375 3.554375 16.9696875 2.90625 16.921875 C-2.51843273 16.69312332 -6.58134943 17.19531028 -11.49609375 19.50390625 C-15.11750168 22.84095421 -16.09944449 27.2650283 -16.61987305 31.97827148 C-16.66065675 33.37970176 -16.68655804 34.78162734 -16.69921875 36.18359375 C-16.71716995 36.92835464 -16.73512115 37.67311554 -16.75361633 38.44044495 C-16.8073231 40.79357423 -16.84148543 43.14650544 -16.875 45.5 C-16.90820829 47.10614713 -16.94270115 48.71226824 -16.97851562 50.31835938 C-17.06541993 54.23309511 -17.12582125 58.14696256 -17.1875 62.0625 C-22.7975 62.0625 -28.4075 62.0625 -34.1875 62.0625 C-34.1875 41.9325 -34.1875 21.8025 -34.1875 1.0625 C-29.8975 1.0625 -25.6075 1.0625 -21.1875 1.0625 C-20.1975 3.7025 -19.2075 6.3425 -18.1875 9.0625 C-17.26517578 8.21365234 -17.26517578 8.21365234 -16.32421875 7.34765625 C-15.51597656 6.61417969 -14.70773437 5.88070312 -13.875 5.125 C-12.67423828 4.02865234 -12.67423828 4.02865234 -11.44921875 2.91015625 C-7.71254429 -0.14242928 -4.66444984 -0.05015537 0 0 Z " fill="#B75555" transform="translate(327.1875,49.9375)"/>
</svg>
