<?xml version="1.0" encoding="UTF-8"?>
<svg version="1.1" xmlns="http://www.w3.org/2000/svg" width="748" height="632">
<path d="M0 0 C1.90394149 -0.00346404 3.80788096 -0.00823357 5.71181631 -0.01418173 C10.90095794 -0.02661891 16.08993247 -0.02055476 21.27907443 -0.01122308 C26.89197806 -0.00440287 32.50485404 -0.01492848 38.11775208 -0.02316284 C49.09656297 -0.03647078 60.07531217 -0.03363555 71.05412543 -0.02492492 C79.98048063 -0.01813719 88.90681861 -0.01723636 97.83317566 -0.02049637 C99.74215685 -0.02118592 99.74215685 -0.02118592 101.68970332 -0.0218894 C104.27544408 -0.02284862 106.86118483 -0.02382126 109.44692558 -0.02480717 C132.97763965 -0.03310908 156.50831248 -0.02451406 180.03901961 -0.00877938 C201.49058996 0.00545598 222.94210687 0.00418203 244.39367676 -0.01016235 C268.53025089 -0.02624847 292.66678706 -0.03252856 316.80336809 -0.02332556 C319.37935415 -0.02236996 321.95534022 -0.02142685 324.53132629 -0.02049637 C325.79860993 -0.02003354 327.06589357 -0.01957072 328.37157974 -0.01909386 C337.28249175 -0.01650855 346.19338475 -0.02086508 355.10429382 -0.02793503 C365.97045796 -0.03636715 376.83655711 -0.03403391 387.70271385 -0.0180928 C393.24192242 -0.01023315 398.78102282 -0.00707905 404.32023048 -0.01704025 C409.39929881 -0.02603554 414.47815958 -0.02097526 419.55720931 -0.0051076 C421.3860729 -0.00178016 423.21495432 -0.00340744 425.04380625 -0.01073496 C450.05429938 -0.10318836 472.45078631 5.5332859 491.68225098 22.38095093 C492.35900879 22.96231812 493.0357666 23.5436853 493.73303223 24.14266968 C509.0487268 38.29203881 517.50253268 58.7472899 518.96113849 79.31317806 C519.06547117 83.52091101 519.08315386 87.71919105 519.0632019 91.92770386 C519.06666726 93.54275944 519.07143767 95.15781265 519.07738364 96.772861 C519.08980276 101.16809263 519.08376513 105.56312658 519.07442498 109.95835853 C519.06759721 114.71508548 519.07813408 119.47178 519.08636475 124.22850037 C519.09966472 133.53002631 519.09684105 142.83147939 519.08812682 152.13300812 C519.08133593 159.69641027 519.08043962 167.25979208 519.08369827 174.82319641 C519.08415797 175.90199946 519.08461767 176.98080252 519.0850913 178.09229657 C519.08605053 180.2842546 519.08702317 182.47621262 519.08800907 184.66817063 C519.09655203 205.19465883 519.08674604 225.72110675 519.07060798 246.24758834 C519.0572058 263.83844941 519.0595342 281.42925108 519.07336426 299.02011108 C519.08943943 319.47601501 519.09572815 339.9318837 519.08652747 360.38779306 C519.08557188 362.57143052 519.08462876 364.75506798 519.08369827 366.93870544 C519.08323545 368.01293706 519.08277262 369.08716868 519.08229577 370.19395277 C519.07971169 377.74326822 519.08406429 385.2925612 519.09113693 392.84187317 C519.09957368 402.04911611 519.09722619 411.25628237 519.0812947 420.46351659 C519.0734412 425.15603946 519.07027025 429.84843474 519.08024216 434.5409565 C519.08925047 438.84531544 519.08415635 443.1494298 519.0683095 447.45376688 C519.06498746 449.00202494 519.06659686 450.55030413 519.07393686 452.09854835 C519.18291123 477.01686014 511.98970647 498.42674935 494.51037598 516.58798218 C474.03451681 536.80930719 450.0063597 541.87332665 422.24424744 541.76190186 C420.3394429 541.76536667 418.43464037 541.77013671 416.52984196 541.77608359 C411.34295958 541.78851004 406.15624458 541.78246161 400.9693619 541.77312493 C395.35715755 541.7663003 389.74498075 541.77683248 384.13278198 541.7850647 C373.1574503 541.7983677 362.18218034 541.7955397 351.20684629 541.78682677 C342.28337541 541.78003744 333.35992177 541.77913891 324.43644905 541.78239822 C322.5276711 541.78308777 322.5276711 541.78308777 320.58033197 541.78379125 C317.99483274 541.78475048 315.40933352 541.78572312 312.82383431 541.78670903 C289.29950685 541.79500947 265.77522064 541.78641817 242.25090012 541.77068123 C220.80587996 541.75644433 199.36091325 541.75772145 177.91589355 541.77206421 C153.78407319 541.78815026 129.65229079 541.7944306 105.52046353 541.78522742 C102.94505473 541.78427182 100.36964594 541.78332871 97.79423714 541.78239822 C95.89375416 541.78170398 95.89375416 541.78170398 93.9548776 541.78099572 C85.0464587 541.7784105 76.13805882 541.78276668 67.22964287 541.78983688 C56.36716275 541.79826886 45.50474763 541.795936 34.64227491 541.77999465 C29.10508464 541.77213505 23.56800257 541.76898083 18.03081322 541.77894211 C12.95363518 541.78793741 7.87666479 541.78287711 2.79950536 541.76700945 C0.97134461 541.76368204 -0.85683399 541.76530924 -2.68498308 541.77263682 C-27.6913482 541.86511137 -50.09107868 536.2284012 -69.31774902 519.38095093 C-70.0061084 518.78798218 -70.69446777 518.19501343 -71.40368652 517.58407593 C-85.84492674 504.22735573 -94.74838505 483.7707492 -96.31774902 464.38095093 C-96.4686772 459.19896484 -96.46156267 454.01819483 -96.45819092 448.83456421 C-96.46077716 447.24276438 -96.46379104 445.6509652 -96.46719432 444.05916691 C-96.4752372 439.69571919 -96.47705238 435.33228794 -96.47779179 430.96883368 C-96.47964709 426.25832668 -96.48719685 421.54782814 -96.493927 416.83732605 C-96.50749185 406.54160046 -96.51353224 396.24587876 -96.51793766 385.95014572 C-96.52070337 379.51693388 -96.52494134 373.08372353 -96.52944183 366.6505127 C-96.54163239 348.82610671 -96.55193193 331.00170193 -96.55531693 313.17729187 C-96.55553649 312.03713228 -96.55575606 310.89697268 -96.55598228 309.7222628 C-96.55620055 308.57943008 -96.55641883 307.43659736 -96.55664372 306.25913334 C-96.55708718 303.94345665 -96.55753375 301.62777996 -96.5579834 299.31210327 C-96.55820483 298.16345633 -96.55842626 297.0148094 -96.5586544 295.83135498 C-96.56260048 277.2287581 -96.58004968 258.62620044 -96.60334292 240.0236187 C-96.62708462 220.90799684 -96.63952007 201.79239464 -96.64068484 182.67675781 C-96.64160005 171.9507941 -96.64731339 161.22488148 -96.66550446 150.49893188 C-96.68094355 141.36365521 -96.68600351 132.22844543 -96.67776635 123.09315819 C-96.67387324 118.43700734 -96.67472364 113.78099104 -96.6888237 109.12485695 C-96.70164333 104.85225101 -96.70029515 100.57987961 -96.68823299 96.30727363 C-96.68628984 94.77156976 -96.68928951 93.2358488 -96.69807735 91.70016885 C-96.83807492 65.55461091 -89.11571732 42.81278833 -70.78649902 23.74813843 C-51.14565154 4.85826452 -26.34847659 -0.10556839 0 0 Z " fill="#4BB1D3" transform="translate(163.3177490234375,45.619049072265625)"/>
<path d="M0 0 C1.90394149 -0.00346404 3.80788096 -0.00823357 5.71181631 -0.01418173 C10.90095794 -0.02661891 16.08993247 -0.02055476 21.27907443 -0.01122308 C26.89197806 -0.00440287 32.50485404 -0.01492848 38.11775208 -0.02316284 C49.09656297 -0.03647078 60.07531217 -0.03363555 71.05412543 -0.02492492 C79.98048063 -0.01813719 88.90681861 -0.01723636 97.83317566 -0.02049637 C99.74215685 -0.02118592 99.74215685 -0.02118592 101.68970332 -0.0218894 C104.27544408 -0.02284862 106.86118483 -0.02382126 109.44692558 -0.02480717 C132.97763965 -0.03310908 156.50831248 -0.02451406 180.03901961 -0.00877938 C201.49058996 0.00545598 222.94210687 0.00418203 244.39367676 -0.01016235 C268.53025089 -0.02624847 292.66678706 -0.03252856 316.80336809 -0.02332556 C319.37935415 -0.02236996 321.95534022 -0.02142685 324.53132629 -0.02049637 C325.79860993 -0.02003354 327.06589357 -0.01957072 328.37157974 -0.01909386 C337.28249175 -0.01650855 346.19338475 -0.02086508 355.10429382 -0.02793503 C365.97045796 -0.03636715 376.83655711 -0.03403391 387.70271385 -0.0180928 C393.24192242 -0.01023315 398.78102282 -0.00707905 404.32023048 -0.01704025 C409.39929881 -0.02603554 414.47815958 -0.02097526 419.55720931 -0.0051076 C421.3860729 -0.00178016 423.21495432 -0.00340744 425.04380625 -0.01073496 C450.05429938 -0.10318836 472.45078631 5.5332859 491.68225098 22.38095093 C492.35900879 22.96231812 493.0357666 23.5436853 493.73303223 24.14266968 C509.0487268 38.29203881 517.50253268 58.7472899 518.96113849 79.31317806 C519.06547117 83.52091101 519.08315386 87.71919105 519.0632019 91.92770386 C519.06666726 93.54275944 519.07143767 95.15781265 519.07738364 96.772861 C519.08980276 101.16809263 519.08376513 105.56312658 519.07442498 109.95835853 C519.06759721 114.71508548 519.07813408 119.47178 519.08636475 124.22850037 C519.09966472 133.53002631 519.09684105 142.83147939 519.08812682 152.13300812 C519.08133593 159.69641027 519.08043962 167.25979208 519.08369827 174.82319641 C519.08415797 175.90199946 519.08461767 176.98080252 519.0850913 178.09229657 C519.08605053 180.2842546 519.08702317 182.47621262 519.08800907 184.66817063 C519.09655203 205.19465883 519.08674604 225.72110675 519.07060798 246.24758834 C519.0572058 263.83844941 519.0595342 281.42925108 519.07336426 299.02011108 C519.08943943 319.47601501 519.09572815 339.9318837 519.08652747 360.38779306 C519.08557188 362.57143052 519.08462876 364.75506798 519.08369827 366.93870544 C519.08323545 368.01293706 519.08277262 369.08716868 519.08229577 370.19395277 C519.07971169 377.74326822 519.08406429 385.2925612 519.09113693 392.84187317 C519.09957368 402.04911611 519.09722619 411.25628237 519.0812947 420.46351659 C519.0734412 425.15603946 519.07027025 429.84843474 519.08024216 434.5409565 C519.08925047 438.84531544 519.08415635 443.1494298 519.0683095 447.45376688 C519.06498746 449.00202494 519.06659686 450.55030413 519.07393686 452.09854835 C519.18291123 477.01686014 511.98970647 498.42674935 494.51037598 516.58798218 C474.03451681 536.80930719 450.0063597 541.87332665 422.24424744 541.76190186 C420.3394429 541.76536667 418.43464037 541.77013671 416.52984196 541.77608359 C411.34295958 541.78851004 406.15624458 541.78246161 400.9693619 541.77312493 C395.35715755 541.7663003 389.74498075 541.77683248 384.13278198 541.7850647 C373.1574503 541.7983677 362.18218034 541.7955397 351.20684629 541.78682677 C342.28337541 541.78003744 333.35992177 541.77913891 324.43644905 541.78239822 C322.5276711 541.78308777 322.5276711 541.78308777 320.58033197 541.78379125 C317.99483274 541.78475048 315.40933352 541.78572312 312.82383431 541.78670903 C289.29950685 541.79500947 265.77522064 541.78641817 242.25090012 541.77068123 C220.80587996 541.75644433 199.36091325 541.75772145 177.91589355 541.77206421 C153.78407319 541.78815026 129.65229079 541.7944306 105.52046353 541.78522742 C102.94505473 541.78427182 100.36964594 541.78332871 97.79423714 541.78239822 C95.89375416 541.78170398 95.89375416 541.78170398 93.9548776 541.78099572 C85.0464587 541.7784105 76.13805882 541.78276668 67.22964287 541.78983688 C56.36716275 541.79826886 45.50474763 541.795936 34.64227491 541.77999465 C29.10508464 541.77213505 23.56800257 541.76898083 18.03081322 541.77894211 C12.95363518 541.78793741 7.87666479 541.78287711 2.79950536 541.76700945 C0.97134461 541.76368204 -0.85683399 541.76530924 -2.68498308 541.77263682 C-27.6913482 541.86511137 -50.09107868 536.2284012 -69.31774902 519.38095093 C-70.0061084 518.78798218 -70.69446777 518.19501343 -71.40368652 517.58407593 C-85.84492674 504.22735573 -94.74838505 483.7707492 -96.31774902 464.38095093 C-96.4686772 459.19896484 -96.46156267 454.01819483 -96.45819092 448.83456421 C-96.46077716 447.24276438 -96.46379104 445.6509652 -96.46719432 444.05916691 C-96.4752372 439.69571919 -96.47705238 435.33228794 -96.47779179 430.96883368 C-96.47964709 426.25832668 -96.48719685 421.54782814 -96.493927 416.83732605 C-96.50749185 406.54160046 -96.51353224 396.24587876 -96.51793766 385.95014572 C-96.52070337 379.51693388 -96.52494134 373.08372353 -96.52944183 366.6505127 C-96.54163239 348.82610671 -96.55193193 331.00170193 -96.55531693 313.17729187 C-96.55553649 312.03713228 -96.55575606 310.89697268 -96.55598228 309.7222628 C-96.55620055 308.57943008 -96.55641883 307.43659736 -96.55664372 306.25913334 C-96.55708718 303.94345665 -96.55753375 301.62777996 -96.5579834 299.31210327 C-96.55820483 298.16345633 -96.55842626 297.0148094 -96.5586544 295.83135498 C-96.56260048 277.2287581 -96.58004968 258.62620044 -96.60334292 240.0236187 C-96.62708462 220.90799684 -96.63952007 201.79239464 -96.64068484 182.67675781 C-96.64160005 171.9507941 -96.64731339 161.22488148 -96.66550446 150.49893188 C-96.68094355 141.36365521 -96.68600351 132.22844543 -96.67776635 123.09315819 C-96.67387324 118.43700734 -96.67472364 113.78099104 -96.6888237 109.12485695 C-96.70164333 104.85225101 -96.70029515 100.57987961 -96.68823299 96.30727363 C-96.68628984 94.77156976 -96.68928951 93.2358488 -96.69807735 91.70016885 C-96.83807492 65.55461091 -89.11571732 42.81278833 -70.78649902 23.74813843 C-51.14565154 4.85826452 -26.34847659 -0.10556839 0 0 Z M219.68225098 36.38095093 C219.68225098 49.58095093 219.68225098 62.78095093 219.68225098 76.38095093 C216.1495752 76.36000366 212.61689941 76.3390564 208.97717285 76.31747437 C197.29846217 76.25116222 185.61972482 76.2067946 173.94087982 76.17370224 C166.86075725 76.15310585 159.78081346 76.12504164 152.70080566 76.07919312 C145.86676848 76.03495866 139.03291707 76.0118053 132.19874573 76.00144196 C129.59287088 75.99405759 126.98700606 75.97963771 124.38121033 75.9580307 C120.7280796 75.92894706 117.07571344 75.92499719 113.42248535 75.92684937 C112.34786041 75.91246826 111.27323547 75.89808716 110.16604614 75.88327026 C103.1474944 75.92171419 97.36022629 76.87467291 92.12679291 81.86379623 C88.2125124 86.33776438 87.55743859 89.67589286 87.52835083 95.45838928 C87.51975037 96.72990341 87.5111499 98.00141754 87.50228882 99.3114624 C87.49785367 100.72354085 87.4935553 102.13561973 87.48937988 103.54769897 C87.48147742 105.03268119 87.47320838 106.51766149 87.46459961 108.00263977 C87.43839352 112.88263112 87.42307217 117.76263098 87.40881348 122.64266968 C87.40345298 124.32369301 87.39807547 126.00471629 87.39268112 127.68573952 C87.37105338 134.67977372 87.35231776 141.67380562 87.34105873 148.6678648 C87.3248266 158.68475798 87.29166571 168.70126285 87.23465788 178.71800965 C87.19592526 185.76442139 87.17642205 192.81072941 87.17113817 199.85724479 C87.16748889 204.06401511 87.15551336 208.27037111 87.12303543 212.47702599 C87.09289641 216.4375252 87.08666335 220.39736069 87.09841919 224.35795021 C87.09863945 225.80753177 87.09037373 227.25714464 87.07276535 228.70661926 C86.85343235 238.91182845 86.85343235 238.91182845 91.17077351 247.85664463 C96.44540673 253.17604687 100.9199775 253.83952968 108.16854858 253.87863159 C109.26547028 253.86425049 110.36239197 253.84986938 111.49255371 253.83505249 C112.66400436 253.8356366 113.83545502 253.8362207 115.04240417 253.83682251 C118.90052287 253.83404384 122.75786158 253.80296013 126.61584473 253.77157593 C129.29628304 253.76411277 131.97667858 253.75822336 134.65711975 253.75442505 C140.98231192 253.74201963 147.30722576 253.70923146 153.63229567 253.66902709 C160.83663459 253.62423314 168.04098719 253.60230326 175.24543083 253.58224535 C190.05786573 253.54049629 204.87000214 253.4671747 219.68225098 253.38095093 C219.68225098 264.93095093 219.68225098 276.48095093 219.68225098 288.38095093 C216.08898926 288.35476685 212.49572754 288.32858276 208.7935791 288.30160522 C196.91531981 288.21871953 185.03704024 288.16325744 173.15857697 288.12189007 C165.95733364 288.09614308 158.7563649 288.06106038 151.55529785 288.00375366 C145.27650115 287.95381041 138.99790338 287.92163443 132.71891356 287.91050845 C129.39619331 287.90400785 126.07417245 287.88615536 122.75160217 287.85230064 C119.03608608 287.81595116 115.32174469 287.81100839 111.6060791 287.81332397 C110.51275269 287.7953476 109.41942627 287.77737122 108.29296875 287.7588501 C101.52761732 287.80440768 96.75197971 288.70035992 91.68225098 293.38095093 C86.26967583 299.73208269 87.12265512 307.04313982 87.18054199 315.03353882 C87.17675517 316.52235931 87.17125213 318.01117628 87.16416931 319.49998474 C87.15024585 323.52892103 87.16136181 327.55742879 87.17788053 331.58634114 C87.19176429 335.80893211 87.18526726 340.03149904 87.18174744 344.25410461 C87.17904823 351.34308757 87.19249692 358.43190091 87.21569824 365.52084351 C87.24231646 373.71034791 87.24405076 381.899569 87.23230988 390.08910185 C87.22152236 397.97696871 87.22772614 405.86473334 87.24186516 413.75259209 C87.24761549 417.1053351 87.24754982 420.45800306 87.24279976 423.81074715 C87.23801942 427.75973386 87.24817513 431.7084112 87.26975441 435.6573391 C87.27530772 437.10450319 87.27580095 438.55169711 87.27080154 439.99886322 C87.26482316 441.97792228 87.27922239 443.95701133 87.29457092 445.9360199 C87.29700082 447.04229768 87.29943071 448.14857546 87.30193424 449.28837681 C87.93523783 454.43813257 89.84233732 457.57755526 93.55725098 461.13095093 C97.93831411 464.28531639 101.36733715 465.63295287 106.76325989 465.62145996 C107.76300339 465.62420929 108.76274689 465.62695862 109.79278564 465.62979126 C110.87819641 465.62260071 111.96360718 465.61541016 113.08190918 465.60800171 C114.23356064 465.60829376 115.3852121 465.60858582 116.57176208 465.60888672 C120.37559563 465.6074942 124.17923293 465.59193633 127.98303223 465.57626343 C130.62147413 465.57253303 133.25991742 465.56968618 135.89836121 465.56768799 C142.13143871 465.56147784 148.36444585 465.54507336 154.5974924 465.52498901 C161.69540776 465.50261549 168.79332652 465.49163293 175.89126837 465.48159814 C190.48830399 465.46070669 205.0852635 465.42403628 219.68225098 465.38095093 C219.68225098 478.58095093 219.68225098 491.78095093 219.68225098 505.38095093 C248.68094807 505.47361732 277.67960939 505.54496556 306.67842484 505.58819962 C309.36101545 505.59227888 312.04360591 505.59644416 314.72619629 505.60067749 C315.39294627 505.60172673 316.05969626 505.60277597 316.74665079 505.60385701 C327.52475569 505.62123454 338.30277474 505.65275749 349.08082882 505.68956211 C360.15048391 505.72704558 371.2200918 505.74890323 382.28980708 505.75730491 C388.50315816 505.76251136 394.71631489 505.77471518 400.92960358 505.80387115 C406.78348625 505.83111683 412.6370954 505.83937735 418.49103546 505.83338165 C420.63393645 505.83447779 422.77684703 505.84237675 424.91969299 505.85777283 C442.39234072 505.97710351 455.14426718 503.98222505 468.49475098 491.81845093 C469.57756348 490.61188843 469.57756348 490.61188843 470.68225098 489.38095093 C471.50725098 488.49407593 472.33225098 487.60720093 473.18225098 486.69345093 C483.53978412 474.01609175 483.83381154 458.82200226 483.81596375 443.26321411 C483.81783348 441.71806128 483.82013484 440.17290892 483.82282907 438.62775731 C483.82893333 434.39340387 483.82881509 430.15907021 483.82763469 425.92471337 C483.82743034 421.35334486 483.83295276 416.78198264 483.83769226 412.21061707 C483.84599185 403.25874939 483.84874679 394.3068883 483.84930464 385.3550171 C483.84978013 378.07699134 483.85183652 370.79896776 483.85500526 363.52094269 C483.86380996 342.87742158 483.86842493 322.23390567 483.86767479 301.59038267 C483.86763483 300.47793523 483.86759488 299.3654878 483.86755371 298.21932983 C483.86751283 297.10552103 483.86747195 295.99171223 483.86742983 294.84415165 C483.86702341 276.79498293 483.87659232 258.74583509 483.89069208 240.69667241 C483.90506197 222.15511624 483.91196192 203.61357025 483.9110983 185.07200837 C483.91076654 174.66588348 483.91350435 164.25978046 483.92427635 153.85366058 C483.93338941 144.99349407 483.93554997 136.13335935 483.92876693 127.27319017 C483.9255058 122.75528122 483.92543033 118.23743323 483.93412018 113.71953011 C483.94200408 109.57793764 483.94053451 105.43645431 483.93183605 101.29486445 C483.93030522 99.80230188 483.93210139 98.30973109 483.93769612 96.81717822 C484.00623742 77.22297143 480.90343128 63.06923627 467.24475098 48.63095093 C454.16207827 36.09821358 438.88633052 35.80378053 421.75744629 35.92684937 C419.54880799 35.92797913 417.34016819 35.92734147 415.13153076 35.92507935 C409.16535624 35.92393632 403.1995064 35.94737914 397.23340702 35.97537518 C390.98742908 36.00045745 384.7414429 36.00273621 378.49542236 36.00747681 C368.02151001 36.01847846 357.54770817 36.04342726 347.07385254 36.07919312 C336.29130643 36.11597453 325.50879257 36.14425616 314.72619629 36.16122437 C314.06026196 36.16227526 313.39432763 36.16332615 312.70821348 36.16440889 C309.36702933 36.16962948 306.02584496 36.17467517 302.68466043 36.17965651 C275.01710543 36.22141544 247.34969285 36.29253861 219.68225098 36.38095093 Z " fill="#5285DD" transform="translate(163.3177490234375,45.619049072265625)"/>
<path d="M0 0 C1.90394149 -0.00346404 3.80788096 -0.00823357 5.71181631 -0.01418173 C10.90095794 -0.02661891 16.08993247 -0.02055476 21.27907443 -0.01122308 C26.89197806 -0.00440287 32.50485404 -0.01492848 38.11775208 -0.02316284 C49.09656297 -0.03647078 60.07531217 -0.03363555 71.05412543 -0.02492492 C79.98048063 -0.01813719 88.90681861 -0.01723636 97.83317566 -0.02049637 C99.74215685 -0.02118592 99.74215685 -0.02118592 101.68970332 -0.0218894 C104.27544408 -0.02284862 106.86118483 -0.02382126 109.44692558 -0.02480717 C132.97763965 -0.03310908 156.50831248 -0.02451406 180.03901961 -0.00877938 C201.49058996 0.00545598 222.94210687 0.00418203 244.39367676 -0.01016235 C268.53025089 -0.02624847 292.66678706 -0.03252856 316.80336809 -0.02332556 C319.37935415 -0.02236996 321.95534022 -0.02142685 324.53132629 -0.02049637 C325.79860993 -0.02003354 327.06589357 -0.01957072 328.37157974 -0.01909386 C337.28249175 -0.01650855 346.19338475 -0.02086508 355.10429382 -0.02793503 C365.97045796 -0.03636715 376.83655711 -0.03403391 387.70271385 -0.0180928 C393.24192242 -0.01023315 398.78102282 -0.00707905 404.32023048 -0.01704025 C409.39929881 -0.02603554 414.47815958 -0.02097526 419.55720931 -0.0051076 C421.3860729 -0.00178016 423.21495432 -0.00340744 425.04380625 -0.01073496 C450.05429938 -0.10318836 472.45078631 5.5332859 491.68225098 22.38095093 C492.35900879 22.96231812 493.0357666 23.5436853 493.73303223 24.14266968 C509.0487268 38.29203881 517.50253268 58.7472899 518.96113849 79.31317806 C519.06547117 83.52091101 519.08315386 87.71919105 519.0632019 91.92770386 C519.06666726 93.54275944 519.07143767 95.15781265 519.07738364 96.772861 C519.08980276 101.16809263 519.08376513 105.56312658 519.07442498 109.95835853 C519.06759721 114.71508548 519.07813408 119.47178 519.08636475 124.22850037 C519.09966472 133.53002631 519.09684105 142.83147939 519.08812682 152.13300812 C519.08133593 159.69641027 519.08043962 167.25979208 519.08369827 174.82319641 C519.08415797 175.90199946 519.08461767 176.98080252 519.0850913 178.09229657 C519.08605053 180.2842546 519.08702317 182.47621262 519.08800907 184.66817063 C519.09655203 205.19465883 519.08674604 225.72110675 519.07060798 246.24758834 C519.0572058 263.83844941 519.0595342 281.42925108 519.07336426 299.02011108 C519.08943943 319.47601501 519.09572815 339.9318837 519.08652747 360.38779306 C519.08557188 362.57143052 519.08462876 364.75506798 519.08369827 366.93870544 C519.08323545 368.01293706 519.08277262 369.08716868 519.08229577 370.19395277 C519.07971169 377.74326822 519.08406429 385.2925612 519.09113693 392.84187317 C519.09957368 402.04911611 519.09722619 411.25628237 519.0812947 420.46351659 C519.0734412 425.15603946 519.07027025 429.84843474 519.08024216 434.5409565 C519.08925047 438.84531544 519.08415635 443.1494298 519.0683095 447.45376688 C519.06498746 449.00202494 519.06659686 450.55030413 519.07393686 452.09854835 C519.18291123 477.01686014 511.98970647 498.42674935 494.51037598 516.58798218 C474.03451681 536.80930719 450.0063597 541.87332665 422.24424744 541.76190186 C420.3394429 541.76536667 418.43464037 541.77013671 416.52984196 541.77608359 C411.34295958 541.78851004 406.15624458 541.78246161 400.9693619 541.77312493 C395.35715755 541.7663003 389.74498075 541.77683248 384.13278198 541.7850647 C373.1574503 541.7983677 362.18218034 541.7955397 351.20684629 541.78682677 C342.28337541 541.78003744 333.35992177 541.77913891 324.43644905 541.78239822 C322.5276711 541.78308777 322.5276711 541.78308777 320.58033197 541.78379125 C317.99483274 541.78475048 315.40933352 541.78572312 312.82383431 541.78670903 C289.29950685 541.79500947 265.77522064 541.78641817 242.25090012 541.77068123 C220.80587996 541.75644433 199.36091325 541.75772145 177.91589355 541.77206421 C153.78407319 541.78815026 129.65229079 541.7944306 105.52046353 541.78522742 C102.94505473 541.78427182 100.36964594 541.78332871 97.79423714 541.78239822 C95.89375416 541.78170398 95.89375416 541.78170398 93.9548776 541.78099572 C85.0464587 541.7784105 76.13805882 541.78276668 67.22964287 541.78983688 C56.36716275 541.79826886 45.50474763 541.795936 34.64227491 541.77999465 C29.10508464 541.77213505 23.56800257 541.76898083 18.03081322 541.77894211 C12.95363518 541.78793741 7.87666479 541.78287711 2.79950536 541.76700945 C0.97134461 541.76368204 -0.85683399 541.76530924 -2.68498308 541.77263682 C-27.6913482 541.86511137 -50.09107868 536.2284012 -69.31774902 519.38095093 C-70.0061084 518.78798218 -70.69446777 518.19501343 -71.40368652 517.58407593 C-85.84492674 504.22735573 -94.74838505 483.7707492 -96.31774902 464.38095093 C-96.4686772 459.19896484 -96.46156267 454.01819483 -96.45819092 448.83456421 C-96.46077716 447.24276438 -96.46379104 445.6509652 -96.46719432 444.05916691 C-96.4752372 439.69571919 -96.47705238 435.33228794 -96.47779179 430.96883368 C-96.47964709 426.25832668 -96.48719685 421.54782814 -96.493927 416.83732605 C-96.50749185 406.54160046 -96.51353224 396.24587876 -96.51793766 385.95014572 C-96.52070337 379.51693388 -96.52494134 373.08372353 -96.52944183 366.6505127 C-96.54163239 348.82610671 -96.55193193 331.00170193 -96.55531693 313.17729187 C-96.55553649 312.03713228 -96.55575606 310.89697268 -96.55598228 309.7222628 C-96.55620055 308.57943008 -96.55641883 307.43659736 -96.55664372 306.25913334 C-96.55708718 303.94345665 -96.55753375 301.62777996 -96.5579834 299.31210327 C-96.55820483 298.16345633 -96.55842626 297.0148094 -96.5586544 295.83135498 C-96.56260048 277.2287581 -96.58004968 258.62620044 -96.60334292 240.0236187 C-96.62708462 220.90799684 -96.63952007 201.79239464 -96.64068484 182.67675781 C-96.64160005 171.9507941 -96.64731339 161.22488148 -96.66550446 150.49893188 C-96.68094355 141.36365521 -96.68600351 132.22844543 -96.67776635 123.09315819 C-96.67387324 118.43700734 -96.67472364 113.78099104 -96.6888237 109.12485695 C-96.70164333 104.85225101 -96.70029515 100.57987961 -96.68823299 96.30727363 C-96.68628984 94.77156976 -96.68928951 93.2358488 -96.69807735 91.70016885 C-96.83807492 65.55461091 -89.11571732 42.81278833 -70.78649902 23.74813843 C-51.14565154 4.85826452 -26.34847659 -0.10556839 0 0 Z M-52.31774902 54.38095093 C-60.76964981 65.13176872 -61.90884091 77.44586182 -61.83241272 90.64959717 C-61.83774681 92.27102908 -61.84481743 93.89245604 -61.85345978 95.5138737 C-61.8719999 99.94065904 -61.86581208 104.36710787 -61.85530674 108.79390669 C-61.84829007 113.57931352 -61.86433138 118.36465294 -61.87730408 123.15003967 C-61.89890843 132.51381686 -61.89882627 141.87747234 -61.89067853 151.24126624 C-61.88436978 158.85481182 -61.8855236 166.468322 -61.89195061 174.08186722 C-61.89285226 175.16691619 -61.89375392 176.25196515 -61.8946829 177.36989439 C-61.89653417 179.57441676 -61.89839673 181.77893911 -61.90027045 183.98346145 C-61.91683666 204.64058331 -61.90813991 225.2976368 -61.89128488 245.95475455 C-61.87659066 264.83655066 -61.89121454 283.71818761 -61.92005504 302.59996323 C-61.94947653 322.00726106 -61.96041318 341.4144855 -61.95087284 360.82180464 C-61.94985033 363.01867078 -61.94885572 365.21553694 -61.94788933 367.41240311 C-61.94741294 368.49318862 -61.94693655 369.57397413 -61.94644572 370.68751072 C-61.94428514 378.28687409 -61.95406677 385.88616769 -61.96866035 393.48551559 C-61.98621166 402.75401995 -61.98602621 412.02232148 -61.9633087 421.29081796 C-61.9521917 426.01568167 -61.94894617 430.7401884 -61.96760941 435.46503639 C-61.98450378 439.79798314 -61.97794304 444.13026403 -61.95339262 448.46316834 C-61.94853813 450.02293789 -61.95194561 451.58276207 -61.96488006 453.14248554 C-62.07505167 467.47216113 -59.30759659 479.6176958 -49.31774902 490.38095093 C-48.46503418 491.33421265 -48.46503418 491.33421265 -47.59509277 492.30673218 C-39.01398957 501.43514948 -28.21765415 506.37856871 -15.6555146 506.82757652 C-11.20123565 506.90201195 -6.74988682 506.88231707 -2.29528809 506.85092163 C-0.26828591 506.85139999 1.75871648 506.85363113 3.7857151 506.85745621 C9.32690228 506.86281107 14.86775767 506.84320499 20.40888548 506.81930661 C26.3785469 506.79790676 32.34820819 506.79965791 38.31790161 506.79841614 C49.29770007 506.79258807 60.27736419 506.76850471 71.25711004 506.73475956 C81.37890004 506.70369818 91.50067263 506.68014796 101.62249756 506.66403198 C102.29389078 506.66295118 102.96528399 506.66187037 103.65702246 506.66075681 C106.38044685 506.65637672 109.10387127 506.65202333 111.82729577 506.64771502 C137.12182481 506.60754018 162.41624652 506.54405767 187.71069309 506.46881542 C209.43460104 506.40428439 231.15846154 506.35815731 252.88244629 506.3296814 C276.50818633 506.29862066 300.1338542 506.25450707 323.75952911 506.1890192 C326.255132 506.18213097 328.75073493 506.1752565 331.24633789 506.168396 C332.47293263 506.16501478 333.69952737 506.16163357 334.96329165 506.1581499 C343.58913121 506.13524326 352.21495726 506.12150535 360.84082031 506.11132812 C371.32894974 506.09869478 381.81692838 506.07188208 392.30497062 506.02683944 C397.63562475 506.00428822 402.96609628 505.98797412 408.29680252 505.98898125 C413.1684632 505.9897191 418.03970064 505.97199664 422.91125154 505.93976343 C424.66696129 505.93132378 426.42271868 505.92950392 428.17843962 505.9351536 C444.29446415 505.98018238 456.27111819 502.95553857 468.49475098 491.81845093 C469.21662598 491.01407593 469.93850098 490.20970093 470.68225098 489.38095093 C471.50725098 488.49407593 472.33225098 487.60720093 473.18225098 486.69345093 C483.53978412 474.01609175 483.83381154 458.82200226 483.81596375 443.26321411 C483.81783348 441.71806128 483.82013484 440.17290892 483.82282907 438.62775731 C483.82893333 434.39340387 483.82881509 430.15907021 483.82763469 425.92471337 C483.82743034 421.35334486 483.83295276 416.78198264 483.83769226 412.21061707 C483.84599185 403.25874939 483.84874679 394.3068883 483.84930464 385.3550171 C483.84978013 378.07699134 483.85183652 370.79896776 483.85500526 363.52094269 C483.86380996 342.87742158 483.86842493 322.23390567 483.86767479 301.59038267 C483.86763483 300.47793523 483.86759488 299.3654878 483.86755371 298.21932983 C483.86751283 297.10552103 483.86747195 295.99171223 483.86742983 294.84415165 C483.86702341 276.79498293 483.87659232 258.74583509 483.89069208 240.69667241 C483.90506197 222.15511624 483.91196192 203.61357025 483.9110983 185.07200837 C483.91076654 174.66588348 483.91350435 164.25978046 483.92427635 153.85366058 C483.93338941 144.99349407 483.93554997 136.13335935 483.92876693 127.27319017 C483.9255058 122.75528122 483.92543033 118.23743323 483.93412018 113.71953011 C483.94200408 109.57793764 483.94053451 105.43645431 483.93183605 101.29486445 C483.93030522 99.80230188 483.93210139 98.30973109 483.93769612 96.81717822 C484.00623742 77.22297143 480.90343128 63.06923627 467.24475098 48.63095093 C455.35701313 37.24291888 441.3389652 35.78439547 425.58190918 35.83505249 C423.7593763 35.82629943 421.93685104 35.81581754 420.11433697 35.80376911 C415.12557054 35.77583563 410.13705139 35.77256745 405.14821815 35.77350926 C399.74406373 35.77020834 394.34001203 35.74397475 388.93591309 35.72077942 C378.32696109 35.67898579 367.71807227 35.65875173 357.10904944 35.64623958 C348.46532389 35.63566356 339.82164694 35.61732408 331.177948 35.59350586 C329.94499369 35.59011757 328.71203937 35.58672927 327.44172281 35.5832383 C324.93426422 35.57631942 322.42680567 35.56938556 319.91934717 35.56243694 C296.87414164 35.49952843 273.82893747 35.45977195 250.78367196 35.4295346 C229.08312809 35.40093531 207.38271605 35.35151551 185.68225098 35.28671265 C160.52980603 35.21171623 135.37738299 35.15092524 110.22485638 35.11094856 C107.518465 35.10661309 104.81207368 35.10224748 102.10568237 35.09786987 C101.10542645 35.09626961 101.10542645 35.09626961 100.08496333 35.09463702 C90.02170921 35.07831182 79.95851254 35.05206045 69.89529419 35.02096558 C58.42198647 34.98580424 46.94875984 34.96512105 35.47539675 34.96272284 C29.60657215 34.96113581 23.73794489 34.95313802 17.86917114 34.92767143 C12.4806316 34.90448302 7.09240687 34.90005884 1.70383012 34.91027403 C-0.24310048 34.91073581 -2.19004729 34.90447559 -4.13692892 34.8906579 C-24.02558047 34.7572419 -38.78854592 38.73308068 -52.31774902 54.38095093 Z " fill="#1B102D" transform="translate(163.3177490234375,45.619049072265625)"/>
<path d="M0 0 C0.89292556 -0.00453111 1.78585113 -0.00906223 2.70583504 -0.01373065 C5.69816361 -0.02639181 8.69031057 -0.02475316 11.68266296 -0.02310181 C13.82803074 -0.02908599 15.97339637 -0.03589128 18.11875916 -0.04345703 C23.94733824 -0.06113568 29.77585861 -0.06581321 35.60446191 -0.0670886 C40.47023775 -0.06898748 45.33599991 -0.07634491 50.20177048 -0.08343279 C61.68222476 -0.09972155 73.16264768 -0.10460131 84.64311218 -0.10317993 C96.48500562 -0.10197845 108.32671682 -0.12308059 120.16856414 -0.15466726 C130.33601817 -0.18082107 140.50341264 -0.1915476 150.67090005 -0.19026911 C156.7431826 -0.18975921 162.81530322 -0.19545842 168.88755226 -0.21662521 C174.59952428 -0.23599227 180.31117965 -0.23614232 186.02316284 -0.22159195 C188.11774851 -0.21950085 190.21235392 -0.22422263 192.30690575 -0.23631287 C195.17030738 -0.2517685 198.03261765 -0.24245484 200.89599609 -0.22705078 C201.72140044 -0.23733791 202.54680479 -0.24762503 203.39722139 -0.25822389 C209.65510435 -0.18402405 215.1097787 1.32992149 219.70368844 5.78551352 C223.45412469 10.177182 224.26394116 12.59476404 224.28564453 18.26930237 C224.29637749 20.18930054 224.29637749 20.18930054 224.30732727 22.14808655 C224.3101677 23.57482886 224.31287941 25.00157143 224.31547546 26.42831421 C224.32173913 27.92462319 224.32838584 29.42093062 224.33538818 30.91723633 C224.35280935 34.98976665 224.36335345 39.06228522 224.37159371 43.13484359 C224.3767426 45.67938361 224.38281845 48.22391997 224.38910484 50.76845741 C224.40816195 58.7299813 224.42239073 66.69149589 224.43071681 74.6530382 C224.44048546 83.84240928 224.46679298 93.03153924 224.50721771 102.22082537 C224.53738921 109.32325386 224.55218675 116.42561328 224.55549783 123.5281046 C224.55784757 127.77000163 224.56679758 132.01164121 224.591959 136.25346947 C224.61526233 140.24671756 224.61946405 144.23953917 224.60919762 148.23283768 C224.60870265 149.69572812 224.61501151 151.1586397 224.62875366 152.62146568 C224.75067713 166.37345056 224.75067713 166.37345056 220.13847351 172.26742554 C214.77621279 177.23732571 210.40729559 177.41611788 203.35887146 177.41459656 C202.45061497 177.41827325 201.54235848 177.42194993 200.60657907 177.42573804 C197.55047311 177.43678775 194.49440115 177.44062089 191.4382782 177.44442749 C189.25217582 177.45069113 187.0660745 177.45733784 184.87997437 177.46434021 C178.93152831 177.48175823 172.9830903 177.49230401 167.03462505 177.50054574 C163.31968992 177.50569384 159.60475728 177.51176964 155.88982391 177.51805687 C144.27084106 177.53711056 132.65186458 177.55134174 121.0328691 177.55966884 C119.69551197 177.56063736 118.35815485 177.56161161 117.02079773 177.56259155 C116.35742331 177.56307529 115.6940489 177.56355903 115.01057222 177.56405743 C104.26483836 177.57235739 93.51921583 177.59769426 82.77353057 177.63017223 C71.7388273 177.66325159 60.70418348 177.68092242 49.66943097 177.68444985 C43.47473931 177.68680268 37.28022365 177.69579372 31.08557892 177.72091103 C25.25792296 177.74415842 19.4305593 177.74843825 13.60286903 177.73814964 C11.4643208 177.73765338 9.32575833 177.74400044 7.18725395 177.75770569 C4.26648802 177.7753765 1.34677653 177.76834183 -1.57398987 177.75517273 C-2.41923509 177.76614198 -3.26448031 177.77711122 -4.13533902 177.78841287 C-10.60210463 177.71807225 -14.76780097 176.12466003 -19.61724091 171.64592171 C-24.01036253 165.09230409 -23.55253609 158.13389409 -23.47676086 150.50131226 C-23.48026634 149.01234302 -23.48592972 147.52337755 -23.49357605 146.03442383 C-23.50777027 142.00957853 -23.49081734 137.98542082 -23.46729088 133.96064138 C-23.44712018 129.74073188 -23.45306453 125.5208492 -23.45539856 121.30090332 C-23.45534507 114.21785194 -23.43563267 107.13506803 -23.40351868 100.05209351 C-23.36660079 91.86994521 -23.35784786 83.68814673 -23.36481619 75.50592601 C-23.37112604 67.62285139 -23.36035982 59.73989634 -23.34085083 51.85684586 C-23.33268866 48.50690122 -23.32996508 45.1570178 -23.33154297 41.80706406 C-23.33242335 37.86215113 -23.31816468 33.91756949 -23.29231644 29.97274399 C-23.28516887 28.52719733 -23.28306423 27.08161539 -23.28643417 25.63605499 C-23.29016294 23.65922318 -23.27352356 21.68238452 -23.25593567 19.70562744 C-23.25220695 18.60064848 -23.24847824 17.49566952 -23.24463654 16.35720634 C-22.60645373 11.21026487 -20.70013739 8.0695751 -16.98652649 4.51742554 C-11.26797317 0.40006715 -6.8394385 -0.02545755 0 0 Z " fill="#FFFFFF" transform="translate(273.8615264892578,121.73257446289063)"/>
<path d="M0 0 C0.91081976 -0.00538554 1.82163953 -0.01077108 2.76005989 -0.01631981 C5.80697999 -0.03060825 8.85346619 -0.0234934 11.90040588 -0.01637268 C14.08695322 -0.02207577 16.27349758 -0.02903978 18.46003723 -0.03717041 C24.39595593 -0.05512343 30.33172697 -0.05392939 36.26766467 -0.04822803 C41.2230613 -0.04513936 46.17842944 -0.05122503 51.13382202 -0.05726677 C63.49214359 -0.0721207 75.85039283 -0.06849255 88.20871312 -0.05640347 C98.93486974 -0.04647128 109.66085385 -0.05941221 120.38698386 -0.08333766 C131.40823795 -0.10773565 142.42940779 -0.11693521 153.45068794 -0.11068493 C159.63525437 -0.10731246 165.81967826 -0.10974988 172.00422478 -0.12693596 C177.81963711 -0.14239076 183.63471978 -0.1384655 189.45011902 -0.11963081 C191.5838216 -0.11594095 193.71754854 -0.11906491 195.85122871 -0.1295166 C198.76529505 -0.14270065 201.67826592 -0.13120152 204.59228516 -0.11352539 C205.85708345 -0.1279329 205.85708345 -0.1279329 207.14743322 -0.14263147 C212.8541046 -0.07146948 216.15321418 1.12328514 220.8596344 4.38768005 C225.15292296 9.01991245 225.98306426 12.30710981 226.00680542 18.51654053 C226.01753838 20.44076843 226.01753838 20.44076843 226.02848816 22.40386963 C226.03132839 23.82856726 226.03404012 25.25326516 226.03663635 26.67796326 C226.04290176 28.17604225 226.04954862 29.67411969 226.05654907 31.17219543 C226.07758076 36.09427307 226.08794983 41.01635098 226.09791565 45.9384613 C226.10196338 47.63315027 226.1060803 49.32783907 226.11026573 51.02252769 C226.12931454 58.98351216 226.14354687 66.94448735 226.1518777 74.90549022 C226.16165285 84.09486112 226.18798079 93.28399132 226.22837859 102.47327739 C226.25853443 109.57655966 226.27334602 116.67977291 226.27665871 123.78311795 C226.2790096 128.02552704 226.28797505 132.26767888 226.31311989 136.5100193 C226.33639681 140.50163609 226.34063557 144.49282619 226.33035851 148.48449326 C226.32986295 149.94780458 226.33618919 151.41113689 226.34991455 152.87438393 C226.36763161 154.87546725 226.35814264 156.87673583 226.34738159 158.87786865 C226.34976995 159.99671605 226.3521583 161.11556345 226.35461903 162.26831532 C225.57127024 167.20493447 223.03172334 170.3057518 219.4221344 173.63768005 C213.95397688 177.37203153 209.43023264 177.67904705 202.99810791 177.65510559 C202.10518235 177.6596367 201.21225678 177.66416782 200.29227287 177.66883624 C197.2999443 177.6814974 194.30779734 177.67985875 191.31544495 177.6782074 C189.17007717 177.68419158 187.02471154 177.69099687 184.87934875 177.69856262 C179.05076967 177.71624128 173.2222493 177.7209188 167.393646 177.72219419 C162.52787016 177.72409307 157.662108 177.7314505 152.79633743 177.73853838 C141.31588315 177.75482714 129.83546023 177.7597069 118.35499573 177.75828552 C106.51310229 177.75708404 94.67139109 177.77818618 82.82954377 177.80977285 C72.66208974 177.83592666 62.49469527 177.84665319 52.32720786 177.8453747 C46.25492531 177.8448648 40.18280469 177.85056401 34.11055565 177.8717308 C28.39858363 177.89109786 22.68692826 177.89124791 16.97494507 177.87669754 C14.8803594 177.87460644 12.78575399 177.87932822 10.69120216 177.89141846 C7.82780053 177.90687409 4.96549026 177.89756043 2.10211182 177.88215637 C1.27670747 177.8924435 0.45130312 177.90273062 -0.39911348 177.91332948 C-6.6647146 177.83903812 -12.06272608 176.30304832 -16.70558053 171.90499246 C-20.59920564 167.42254388 -21.26510187 164.09676581 -21.30099487 158.31697083 C-21.31606331 156.41186737 -21.31606331 156.41186737 -21.33143616 154.46827698 C-21.33746623 153.05778563 -21.34335123 151.64729365 -21.34910583 150.23680115 C-21.3586453 148.75344115 -21.3685365 147.27008339 -21.37875366 145.78672791 C-21.41013377 140.9115513 -21.43040766 136.03635767 -21.44895935 131.16111755 C-21.45225667 130.33112259 -21.45555399 129.50112763 -21.45895123 128.64598131 C-21.48973631 120.81486263 -21.51643818 112.98374006 -21.53337002 105.15257835 C-21.55526351 95.14462491 -21.59720628 85.13720886 -21.66680759 75.12947023 C-21.71411009 68.08814146 -21.73831203 61.04695733 -21.7455669 54.00547469 C-21.75051454 49.80250177 -21.76550933 45.60013459 -21.8053112 41.39733505 C-21.84230128 37.4392169 -21.85054749 33.48204729 -21.83730507 29.52378845 C-21.83735882 28.07622601 -21.84757359 26.62862022 -21.8690567 25.18121719 C-21.97855385 17.38291547 -21.66351363 11.56049754 -17.01429844 5.12461281 C-11.79299838 0.28503323 -6.74917125 -0.04797895 0 0 Z " fill="#FFFFFF" transform="translate(272.14036560058594,333.61231994628906)"/>
<path d="M0 0 C0.88494644 -0.00428513 1.76989288 -0.00857025 2.68165588 -0.01298523 C4.54663236 -0.01870851 6.41163115 -0.01924361 8.27661133 -0.01489258 C11.11643861 -0.01173262 13.95522314 -0.03521658 16.79492188 -0.06054688 C18.61327995 -0.06282021 20.4316408 -0.0635232 22.25 -0.0625 C23.09187363 -0.07170975 23.93374725 -0.08091949 24.8011322 -0.09040833 C32.32894016 -0.03186686 38.15425518 1.91743993 43.69140625 7.30078125 C47.17146762 12.67589422 47.15884317 17.47385373 47.16015625 23.66796875 C47.17157654 25.15830124 47.17157654 25.15830124 47.18322754 26.67874146 C47.19400458 28.77489721 47.19689142 30.87110655 47.19238281 32.96728516 C47.19141142 36.15879767 47.23304252 39.34789723 47.27734375 42.5390625 C47.28255207 44.58202627 47.28523892 46.62499834 47.28515625 48.66796875 C47.30155151 49.61404999 47.31794678 50.56013123 47.33483887 51.53488159 C47.26841604 57.96617883 45.9083533 62.36111843 41.69140625 67.30078125 C37.4052712 70.64396659 33.95844147 72.40489589 28.53051758 72.4777832 C27.27825127 72.49703606 27.27825127 72.49703606 26.00068665 72.51667786 C25.10069443 72.52406479 24.20070221 72.53145172 23.2734375 72.5390625 C22.3422258 72.54713425 21.4110141 72.55520599 20.45158386 72.56352234 C18.47872779 72.57735489 16.50584787 72.58808075 14.53295898 72.59594727 C11.53257111 72.61311721 8.53329766 72.65700567 5.53320312 72.70117188 C3.61328933 72.71130311 1.69336618 72.71981786 -0.2265625 72.7265625 C-1.11643356 72.74407059 -2.00630463 72.76157867 -2.92314148 72.77961731 C-9.47462437 72.75708416 -15.04663821 71.47172593 -19.87052917 66.78242493 C-23.10553004 63.00398095 -24.42762402 60.65153149 -24.4855957 55.76269531 C-24.49843094 54.82121643 -24.51126617 53.87973755 -24.52449036 52.909729 C-24.53187729 51.8889325 -24.53926422 50.86813599 -24.546875 49.81640625 C-24.55898262 48.24388092 -24.55898262 48.24388092 -24.57133484 46.6395874 C-24.58518309 44.41696836 -24.59590192 42.19432798 -24.60375977 39.97167969 C-24.62095399 36.57836348 -24.6648322 33.18602609 -24.70898438 29.79296875 C-24.7191128 27.63412175 -24.72762843 25.47526647 -24.734375 23.31640625 C-24.75188309 22.30370667 -24.76939117 21.29100708 -24.78742981 20.24761963 C-24.7690386 14.24986936 -24.2732912 10.88269601 -20.30859375 6.30078125 C-14.21521545 0.52810707 -8.00600608 -0.00864647 0 0 Z " fill="#1B102D" transform="translate(557.30859375,438.69921875)"/>
<path d="M0 0 C1.39257271 -0.0099852 1.39257271 -0.0099852 2.8132782 -0.02017212 C4.77418035 -0.03027811 6.73511675 -0.03498978 8.69604492 -0.03466797 C11.67880702 -0.03903263 14.66007838 -0.07535038 17.64257812 -0.11328125 C19.55338039 -0.11915173 21.46418964 -0.12311958 23.375 -0.125 C24.70039543 -0.14655655 24.70039543 -0.14655655 26.05256653 -0.16854858 C31.97146803 -0.12540394 36.44292419 0.99064624 41.38671875 4.3359375 C45.28770743 8.44224137 47.61570124 12.18018822 47.69311523 17.88574219 C47.70910263 18.78057312 47.72509003 19.67540405 47.74156189 20.59735107 C47.74692459 21.55780334 47.75228729 22.51825562 47.7578125 23.5078125 C47.76684097 24.50419739 47.77586945 25.50058228 47.78517151 26.52716064 C47.7996717 28.63526406 47.80856017 30.74341246 47.81225586 32.8515625 C47.82412532 36.06067825 47.87329146 39.26785397 47.92382812 42.4765625 C47.933296 44.52863649 47.94052929 46.58072225 47.9453125 48.6328125 C47.96484482 49.58516785 47.98437714 50.53752319 48.00450134 51.51873779 C47.96119812 57.98415713 46.62019828 62.36695129 42.38671875 67.3359375 C37.78077383 71.00189366 34.09952739 72.44008134 28.29589844 72.49707031 C27.50117126 72.50667786 26.70644409 72.5162854 25.88763428 72.52618408 C25.0365509 72.53043396 24.18546753 72.53468384 23.30859375 72.5390625 C22.42318909 72.54476257 21.53778442 72.55046265 20.62554932 72.55633545 C18.75281972 72.56577141 16.88007362 72.57231385 15.00732422 72.57617188 C12.1608331 72.58585546 9.31507112 72.61688293 6.46875 72.6484375 C4.64453551 72.65497044 2.82031589 72.66021977 0.99609375 72.6640625 C0.1531073 72.6764093 -0.68987915 72.6887561 -1.55841064 72.70147705 C-7.86298966 72.67804112 -13.70025605 71.81781286 -18.671875 67.58203125 C-19.35443359 66.68677734 -19.35443359 66.68677734 -20.05078125 65.7734375 C-20.76041016 64.87431641 -20.76041016 64.87431641 -21.484375 63.95703125 C-23.48541904 61.08355971 -23.74921672 59.26104803 -23.7902832 55.79785156 C-23.80311844 54.85637268 -23.81595367 53.9148938 -23.82917786 52.94488525 C-23.83656479 51.92408875 -23.84395172 50.90329224 -23.8515625 49.8515625 C-23.86367012 48.27903717 -23.86367012 48.27903717 -23.87602234 46.67474365 C-23.88987059 44.45212461 -23.90058942 42.22948423 -23.90844727 40.00683594 C-23.92564149 36.61351973 -23.9695197 33.22118234 -24.01367188 29.828125 C-24.0238003 27.669278 -24.03231593 25.51042272 -24.0390625 23.3515625 C-24.05657059 22.33886292 -24.07407867 21.32616333 -24.09211731 20.28277588 C-24.07373089 14.28658791 -23.58191953 10.91397849 -19.61328125 6.3359375 C-13.43639179 0.63419338 -8.08051788 0.02021467 0 0 Z " fill="#1B102D" transform="translate(556.61328125,121.6640625)"/>
<path d="M0 0 C0.79472717 -0.00960754 1.58945435 -0.01921509 2.40826416 -0.02911377 C3.25934753 -0.03336365 4.11043091 -0.03761353 4.98730469 -0.04199219 C5.87270935 -0.04769226 6.75811401 -0.05339233 7.67034912 -0.05926514 C9.54307872 -0.0687011 11.41582482 -0.07524354 13.28857422 -0.07910156 C16.13506534 -0.08878515 18.98082731 -0.11981261 21.82714844 -0.15136719 C23.65136292 -0.15790013 25.47558255 -0.16314946 27.29980469 -0.16699219 C28.14279114 -0.17933899 28.98577759 -0.19168579 29.85430908 -0.20440674 C36.15888809 -0.18097081 41.99615449 0.67925745 46.96777344 4.91503906 C47.4228125 5.511875 47.87785156 6.10871094 48.34667969 6.72363281 C48.81976563 7.32304687 49.29285156 7.92246094 49.78027344 8.54003906 C51.78131748 11.4135106 52.04511516 13.23602228 52.08618164 16.69921875 C52.10543449 18.11143707 52.10543449 18.11143707 52.12507629 19.55218506 C52.13246323 20.57298157 52.13985016 21.59377808 52.14746094 22.64550781 C52.15553268 23.69385803 52.16360443 24.74220825 52.17192078 25.82232666 C52.18576903 28.0449457 52.19648786 30.26758608 52.2043457 32.49023438 C52.22153993 35.88355058 52.26541814 39.27588798 52.30957031 42.66894531 C52.31969874 44.82779231 52.32821437 46.9866476 52.33496094 49.14550781 C52.35246902 50.1582074 52.36997711 51.17090698 52.38801575 52.21429443 C52.36637038 59.27329306 51.24052718 62.65488958 46.34667969 67.80566406 C42.04837073 71.29804009 39.06565609 72.26498604 33.63476562 72.33813477 C32.79999695 72.35097 31.96522827 72.36380524 31.10516357 72.37702942 C30.21033264 72.38441635 29.31550171 72.39180328 28.39355469 72.39941406 C27.46375793 72.40748581 26.53396118 72.41555756 25.57598877 72.4238739 C23.609109 72.43769048 21.6422055 72.44842346 19.67529297 72.45629883 C17.67164038 72.46781407 15.66801835 72.48825862 13.66455078 72.51782227 C10.76150778 72.56064777 7.85937499 72.5766889 4.95605469 72.58691406 C4.06932068 72.60442215 3.18258667 72.62193024 2.26898193 72.63996887 C-3.67363458 72.61945201 -8.12361467 71.50997129 -13.09082031 68.16113281 C-18.96786682 62.12942719 -19.40714327 56.36250108 -19.42675781 48.32910156 C-19.43341461 47.37852371 -19.44007141 46.42794586 -19.44692993 45.44856262 C-19.4570371 43.44058155 -19.46174755 41.43256703 -19.46142578 39.42456055 C-19.46579067 36.36938403 -19.5021081 33.31566258 -19.54003906 30.26074219 C-19.54590946 28.30436689 -19.54987736 26.34798477 -19.55175781 24.39160156 C-19.56612885 23.48613083 -19.58049988 22.5806601 -19.5953064 21.64775085 C-19.54717011 14.8874384 -18.11650834 9.28635005 -13.30957031 4.32128906 C-12.45878906 3.77794922 -12.45878906 3.77794922 -11.59082031 3.22363281 C-11.02363281 2.84335937 -10.45644531 2.46308594 -9.87207031 2.07128906 C-6.66389756 0.43202535 -3.57010574 0.0350568 0 0 Z " fill="#1B102D" transform="translate(164.0908203125,438.8388671875)"/>
<path d="M0 0 C0.81474792 -0.01283524 1.62949585 -0.02567047 2.46893311 -0.03889465 C3.34189026 -0.04628159 4.21484741 -0.05366852 5.11425781 -0.0612793 C6.02185852 -0.06935104 6.92945923 -0.07742279 7.86456299 -0.08573914 C9.78436385 -0.09955443 11.70418902 -0.11028798 13.62402344 -0.11816406 C15.57917521 -0.12967831 17.53429569 -0.15012131 19.48925781 -0.1796875 C22.3228072 -0.22252579 25.1554241 -0.2385558 27.98925781 -0.2487793 C28.85411804 -0.26628738 29.71897827 -0.28379547 30.61004639 -0.30183411 C37.08480534 -0.27893909 42.61689219 1.06778162 47.38031006 5.69535828 C50.61384414 9.47481417 51.93641214 11.82617173 51.99438477 16.71508789 C52.01363762 18.12730621 52.01363762 18.12730621 52.03327942 19.5680542 C52.04066635 20.58885071 52.04805328 21.60964722 52.05566406 22.66137695 C52.06373581 23.70972717 52.07180756 24.75807739 52.0801239 25.8381958 C52.09397216 28.06081484 52.10469098 30.28345522 52.11254883 32.50610352 C52.12974305 35.89941972 52.17362127 39.29175712 52.21777344 42.68481445 C52.22790186 44.84366145 52.2364175 47.00251674 52.24316406 49.16137695 C52.26067215 50.17407654 52.27818024 51.18677612 52.29621887 52.23016357 C52.27783245 58.22635154 51.78602109 61.59896096 47.81738281 66.17700195 C41.6872803 71.83555812 36.40686764 72.48617505 28.38769531 72.4777832 C27.47913788 72.48206833 26.57058044 72.48635345 25.63449097 72.49076843 C23.71645947 72.49649946 21.79840623 72.49702105 19.88037109 72.49267578 C16.9592544 72.48952018 14.03915537 72.51297511 11.11816406 72.53833008 C9.24967575 72.54060376 7.38118473 72.54130625 5.51269531 72.5402832 C4.21236862 72.55409782 4.21236862 72.55409782 2.88577271 72.56819153 C-3.88875108 72.51699417 -8.61846629 71.33321975 -13.93261719 66.86450195 C-18.99384967 60.81914093 -19.64083593 55.85031179 -19.61621094 48.24731445 C-19.62145279 47.29815155 -19.62669464 46.34898865 -19.63209534 45.37106323 C-19.63850025 43.36904882 -19.63719842 41.3669967 -19.62866211 39.36499023 C-19.62016339 36.31856486 -19.64891702 33.2740231 -19.68066406 30.2277832 C-19.68227668 28.27596084 -19.6816974 26.32413519 -19.67871094 24.37231445 C-19.68994492 23.46998077 -19.70117889 22.56764709 -19.7127533 21.63796997 C-19.63930644 14.89733818 -18.19412273 9.28757017 -13.40136719 4.3371582 C-12.55058594 3.79381836 -12.55058594 3.79381836 -11.68261719 3.23950195 C-11.11542969 2.85922852 -10.54824219 2.47895508 -9.96386719 2.0871582 C-6.7275749 0.4335264 -3.60035319 0.04970125 0 0 Z " fill="#1B102D" transform="translate(164.1826171875,121.822998046875)"/>
<path d="M0 0 C0.91823044 -0.01283524 1.83646088 -0.02567047 2.78251648 -0.03889465 C3.77830215 -0.04628159 4.77408783 -0.05366852 5.80004883 -0.0612793 C7.33572258 -0.07338692 7.33572258 -0.07338692 8.90242004 -0.08573914 C11.07376407 -0.09958817 13.24512994 -0.11030664 15.41650391 -0.11816406 C18.72641768 -0.13533894 22.03532289 -0.17921397 25.3449707 -0.22338867 C27.4549894 -0.23351888 29.56501659 -0.24203395 31.67504883 -0.2487793 C32.66071335 -0.26628738 33.64637787 -0.28379547 34.66191101 -0.30183411 C41.65762171 -0.27992124 45.87112471 0.66286155 51.08303833 5.61503601 C55.3639604 10.64916451 55.28365141 15.74326107 55.19848633 22.11450195 C55.20089828 23.15340576 55.20331024 24.19230957 55.20579529 25.26269531 C55.20481919 27.45129223 55.19148259 29.63991456 55.16650391 31.82836914 C55.13218503 35.16679266 55.14586191 38.50256804 55.1652832 41.84106445 C55.15838433 43.97388815 55.14871158 46.10670506 55.13598633 48.23950195 C55.14342613 49.72728149 55.14342613 49.72728149 55.15101624 51.24511719 C55.04671202 57.42231451 54.43811181 61.26574859 50.56958008 66.17700195 C44.86928844 71.3439698 39.39101059 71.89993143 31.93676758 71.77075195 C30.94129913 71.77079224 29.94583069 71.77083252 28.92019653 71.77087402 C26.82751103 71.76553894 24.73482466 71.74804306 22.64233398 71.71899414 C19.44688511 71.67703222 16.25354022 71.67794097 13.05786133 71.68481445 C11.01748217 71.67432417 8.9771138 71.66138695 6.93676758 71.64575195 C5.51157303 71.64544983 5.51157303 71.64544983 4.05758667 71.6451416 C-2.06762005 71.53620491 -6.61524157 70.77381217 -11.29370117 66.45825195 C-11.77194336 65.87043945 -12.25018555 65.28262695 -12.74291992 64.67700195 C-13.23405273 64.08918945 -13.72518555 63.50137695 -14.23120117 62.89575195 C-16.30009606 59.93056058 -16.56067889 57.3035287 -16.59155273 53.80078125 C-16.60116028 52.91944016 -16.61076782 52.03809906 -16.6206665 51.13005066 C-16.62491638 50.18003677 -16.62916626 49.23002289 -16.63354492 48.2512207 C-16.639245 47.27087357 -16.64494507 46.29052643 -16.65081787 45.2804718 C-16.66026596 43.20505858 -16.66680109 41.12963037 -16.6706543 39.05419922 C-16.68035048 35.88718312 -16.71137206 32.72081861 -16.74291992 29.55395508 C-16.74945114 27.5363808 -16.75470114 25.51880189 -16.75854492 23.5012207 C-16.77089172 22.55727951 -16.78323853 21.61333832 -16.79595947 20.64079285 C-16.77525308 14.49464288 -16.06323067 9.97399689 -11.67651367 5.3137207 C-11.07967773 4.83547852 -10.4828418 4.35723633 -9.86791992 3.86450195 C-9.26850586 3.37336914 -8.6690918 2.88223633 -8.05151367 2.3762207 C-5.24277621 0.29843178 -3.44158951 0.04185807 0 0 Z " fill="#1B102D" transform="translate(161.430419921875,333.822998046875)"/>
<path d="M0 0 C0.87488571 -0.01283524 1.74977142 -0.02567047 2.65116882 -0.03889465 C3.5949086 -0.04628159 4.53864838 -0.05366852 5.51098633 -0.0612793 C6.48659012 -0.06935104 7.46219391 -0.07742279 8.46736145 -0.08573914 C10.53437527 -0.09957335 12.60141188 -0.11029847 14.66845703 -0.11816406 C17.81367965 -0.13533785 20.95784031 -0.17922575 24.1027832 -0.22338867 C26.1138432 -0.23351948 28.12491212 -0.24203437 30.13598633 -0.2487793 C31.06960495 -0.26628738 32.00322357 -0.28379547 32.96513367 -0.30183411 C39.02454029 -0.28193036 43.60557449 0.71216891 48.65551758 4.17700195 C52.49197969 8.21020571 53.76712398 11.32846295 53.83251953 16.82861328 C53.85177238 18.24071831 53.85177238 18.24071831 53.87141418 19.68135071 C53.87880112 20.69698593 53.88618805 21.71262115 53.89379883 22.7590332 C53.90187057 23.80596848 53.90994232 24.85290375 53.91825867 25.93156433 C53.93209276 28.14820706 53.94281793 30.36487103 53.95068359 32.58154297 C53.96789798 35.96598793 54.01179129 39.34945643 54.0559082 42.73364258 C54.06603522 44.88793228 54.07455129 47.04223027 54.08129883 49.1965332 C54.09880692 50.20609573 54.116315 51.21565826 54.13435364 52.2558136 C54.11353653 59.02173321 53.12057221 62.68802805 48.21871948 67.62371826 C43.1445111 71.95449855 38.12302873 71.89172322 31.68286133 71.8059082 C30.64158585 71.80832016 29.60031036 71.81073212 28.52748108 71.81321716 C26.33468807 71.81224114 24.14186968 71.79890637 21.94921875 71.77392578 C18.59981376 71.73957166 15.25304278 71.7532928 11.90356445 71.77270508 C9.76748556 71.7658073 7.63141344 71.75613554 5.49536133 71.7434082 C4.49834702 71.74836807 3.5013327 71.75332794 2.47410583 71.75843811 C-4.47156594 71.64116737 -7.95784012 70.46711288 -12.98901367 65.5793457 C-16.15430407 61.60949989 -17.45317861 58.86340379 -17.53735352 53.83251953 C-17.55341644 52.95763382 -17.56947937 52.08274811 -17.58602905 51.18135071 C-17.63069867 47.17559741 -17.6715592 43.17000703 -17.69458008 39.1640625 C-17.7111123 37.05652808 -17.738366 34.9490491 -17.77661133 32.84179688 C-17.8316207 29.79308165 -17.85329272 26.74567915 -17.86791992 23.6965332 C-17.89058929 22.76291458 -17.91325867 21.82929596 -17.93661499 20.86738586 C-17.91591562 14.39875989 -16.47342551 10.19428709 -12.34448242 5.17700195 C-8.37646962 1.49241863 -5.38114015 0.06891892 0 0 Z " fill="#1B102D" transform="translate(162.344482421875,227.822998046875)"/>
<path d="M0 0 C0.9213826 -0.01283524 1.8427652 -0.02567047 2.79206848 -0.03889465 C4.28271065 -0.04997505 4.28271065 -0.04997505 5.8034668 -0.0612793 C6.82820602 -0.06935104 7.85294525 -0.07742279 8.90873718 -0.08573914 C11.0783011 -0.09957247 13.24788671 -0.11029798 15.41748047 -0.11816406 C18.72950613 -0.13537758 22.04053374 -0.17927129 25.35229492 -0.22338867 C27.46101155 -0.2335158 29.56973665 -0.24203184 31.6784668 -0.2487793 C33.15999992 -0.27504143 33.15999992 -0.27504143 34.67146301 -0.30183411 C41.63038661 -0.27996266 45.04580374 0.87937212 50.0847168 5.7746582 C53.26544967 9.76387167 54.55675085 12.49688141 54.60131836 17.55322266 C54.6109259 18.43456375 54.62053345 19.31590485 54.63043213 20.22395325 C54.63468201 21.17396713 54.63893188 22.12398102 54.64331055 23.1027832 C54.64901062 24.08313034 54.65471069 25.06347748 54.6605835 26.0735321 C54.67003159 28.14894533 54.67656672 30.22437354 54.68041992 32.29980469 C54.69011611 35.46682079 54.72113768 38.6331853 54.75268555 41.80004883 C54.75921676 43.8176231 54.76446677 45.83520202 54.76831055 47.8527832 C54.78065735 48.7967244 54.79300415 49.74066559 54.8057251 50.71321106 C54.78502024 56.85890657 54.05349765 61.34393406 49.72143555 66.0402832 C49.13362305 66.51852539 48.54581055 66.99676758 47.94018555 67.48950195 C47.0584668 68.22620117 47.0584668 68.22620117 46.15893555 68.9777832 C43.19374417 71.04667809 40.56671229 71.30726092 37.06396484 71.33813477 C36.18262375 71.34774231 35.30128265 71.35734985 34.39323425 71.36724854 C32.96821342 71.37362335 32.96821342 71.37362335 31.5144043 71.38012695 C30.53405716 71.38582703 29.55371002 71.3915271 28.5436554 71.3973999 C26.46824217 71.40684799 24.39281396 71.41338313 22.31738281 71.41723633 C19.15036671 71.42693251 15.9840022 71.45795409 12.81713867 71.48950195 C10.7995644 71.49603317 8.78198548 71.50128317 6.7644043 71.50512695 C5.8204631 71.51747375 4.87652191 71.52982056 3.90397644 71.5425415 C-2.8843126 71.51967175 -7.10646463 70.35156202 -12.30981445 65.73950195 C-15.55301194 62.04586038 -16.80375646 59.43834638 -16.8503418 54.51953125 C-16.8631015 53.60145187 -16.87586121 52.6833725 -16.88900757 51.73747253 C-16.89123322 50.75200943 -16.89345886 49.76654633 -16.89575195 48.7512207 C-16.90240875 47.7302681 -16.90906555 46.70931549 -16.91592407 45.65742493 C-16.9260443 43.49803467 -16.93074129 41.33861317 -16.93041992 39.17919922 C-16.93478473 35.88692195 -16.97108888 32.59599449 -17.0090332 29.30395508 C-17.01490325 27.20304819 -17.01887139 25.10213495 -17.02075195 23.0012207 C-17.03512299 22.02183029 -17.04949402 21.04243988 -17.06430054 20.03337097 C-17.02335345 13.8610501 -16.17807301 10.22225526 -12.55981445 5.17700195 C-8.50917371 1.42274956 -5.47494971 0.06652326 0 0 Z " fill="#1B102D" transform="translate(549.559814453125,333.822998046875)"/>
<path d="M0 0 C0.8781134 -0.01283524 1.75622681 -0.02567047 2.66094971 -0.03889465 C3.60782654 -0.04628159 4.55470337 -0.05366852 5.53027344 -0.0612793 C6.5082489 -0.06935104 7.48622437 -0.07742279 8.49383545 -0.08573914 C10.56504548 -0.0995721 12.63627824 -0.11029778 14.70751953 -0.11816406 C17.86372499 -0.13535683 21.01887739 -0.1792481 24.17480469 -0.22338867 C26.18911992 -0.23351776 28.20344404 -0.24203318 30.21777344 -0.2487793 C31.15655334 -0.26628738 32.09533325 -0.28379547 33.06256104 -0.30183411 C39.90341106 -0.2793654 44.22638169 1.04689859 49.38183594 5.7746582 C52.47278754 9.77157838 53.75661787 12.54273119 53.80078125 17.55322266 C53.81038879 18.43456375 53.81999634 19.31590485 53.82989502 20.22395325 C53.8341449 21.17396713 53.83839478 22.12398102 53.84277344 23.1027832 C53.84847351 24.08313034 53.85417358 25.06347748 53.86004639 26.0735321 C53.86949448 28.14894533 53.87602961 30.22437354 53.87988281 32.29980469 C53.889579 35.46682079 53.92060057 38.6331853 53.95214844 41.80004883 C53.95867965 43.8176231 53.96392966 45.83520202 53.96777344 47.8527832 C53.98012024 48.7967244 53.99246704 49.74066559 54.00518799 50.71321106 C53.9844816 56.85936102 53.27245918 61.38000702 48.88574219 66.0402832 C47.99048828 66.75764648 47.99048828 66.75764648 47.07714844 67.48950195 C46.47773437 67.98063477 45.87832031 68.47176758 45.26074219 68.9777832 C42.45200472 71.05557212 40.65081802 71.31214584 37.20922852 71.35400391 C36.29099808 71.36683914 35.37276764 71.37967438 34.42671204 71.39289856 C32.93303352 71.40397896 32.93303352 71.40397896 31.40917969 71.4152832 C29.87350594 71.42739082 29.87350594 71.42739082 28.30680847 71.43974304 C26.13546445 71.45359207 23.96409858 71.46431055 21.79272461 71.47216797 C18.48281084 71.48934285 15.17390562 71.53321787 11.86425781 71.57739258 C9.75423911 71.58752278 7.64421192 71.59603786 5.53417969 71.6027832 C4.54851517 71.62029129 3.56285065 71.63779938 2.5473175 71.65583801 C-3.65182341 71.63642027 -7.29654639 70.81769248 -12.36035156 67.17700195 C-16.11460396 63.12636121 -17.47083025 60.09213721 -17.53735352 54.6171875 C-17.55018875 53.6958049 -17.56302399 52.7744223 -17.57624817 51.82511902 C-17.5836351 50.83135757 -17.59102203 49.83759613 -17.59863281 48.8137207 C-17.60670456 47.78898148 -17.61477631 46.76424225 -17.62309265 45.70845032 C-17.63692598 43.5388864 -17.6476515 41.36930079 -17.65551758 39.19970703 C-17.67273109 35.88768137 -17.71662481 32.57665376 -17.76074219 29.26489258 C-17.77086932 27.15617595 -17.77938536 25.04745085 -17.78613281 22.9387207 C-17.8036409 21.95103195 -17.82114899 20.9633432 -17.83918762 19.94572449 C-17.81731617 12.98680089 -16.6579814 9.57138376 -11.76269531 4.5324707 C-7.78318363 1.35947339 -5.04363539 0.06434384 0 0 Z " fill="#1B102D" transform="translate(550.3603515625,227.822998046875)"/>
</svg>
