<?xml version="1.0" encoding="UTF-8"?>
<svg version="1.1" xmlns="http://www.w3.org/2000/svg" width="748" height="632">
<path d="M0 0 C2.38857658 -0.00486594 4.77714906 -0.01231435 7.16571045 -0.02212524 C13.60347479 -0.04080649 20.04062373 -0.02221213 26.47833967 0.00453901 C32.55020561 0.02759062 38.62207257 0.01992999 44.69396849 0.01613398 C56.7202356 0.00977853 68.74626446 0.03295437 80.77246094 0.07226562 C92.41576378 0.11031467 104.05878787 0.12442446 115.70214844 0.11328125 C128.4210005 0.10114454 141.13973061 0.10155445 153.8585726 0.12425292 C155.21641071 0.12666722 156.57424883 0.12907919 157.93208694 0.1314888 C158.93390737 0.13329942 158.93390737 0.13329942 159.95596658 0.13514661 C164.64231799 0.14287617 169.32860835 0.14200833 174.01496506 0.13831711 C180.32713629 0.13454041 186.638952 0.15084249 192.95104218 0.1824379 C195.26205347 0.19089606 197.57310092 0.19264327 199.88412094 0.1870575 C222.02061369 0.14168245 222.02061369 0.14168245 230.84619141 4.74462891 C232.20501969 5.37428086 232.20501969 5.37428086 233.59129906 6.01665306 C238.75643666 8.41988732 243.40550261 11.17277052 247.84619141 14.74462891 C247.84619141 15.40462891 247.84619141 16.06462891 247.84619141 16.74462891 C248.71244141 17.08494141 248.71244141 17.08494141 249.59619141 17.43212891 C252.42404733 19.08171153 253.8940191 21.1417325 255.84619141 23.74462891 C256.50619141 24.40462891 257.16619141 25.06462891 257.84619141 25.74462891 C261.85142774 31.12213285 264.85710132 36.34857276 266.84619141 42.74462891 C267.24644531 43.953125 267.24644531 43.953125 267.65478516 45.18603516 C270.90825896 55.38232867 270.98441394 65.11080087 270.94384766 75.74462891 C270.9419795 77.19051057 270.94055748 78.63639287 270.93955994 80.08227539 C270.93576603 83.86336048 270.92596292 87.64440634 270.91485596 91.42547607 C270.90457415 95.29357371 270.90004789 99.16167776 270.89501953 103.02978516 C270.88433744 110.6014175 270.86729918 118.17301768 270.84619141 125.74462891 C271.64573242 125.72577637 272.44527344 125.70692383 273.26904297 125.6875 C274.3309082 125.67283691 275.39277344 125.65817383 276.48681641 125.64306641 C277.53385742 125.62421387 278.58089844 125.60536133 279.65966797 125.5859375 C293.2828922 126.26438492 302.51700861 136.11499393 311.5793457 145.203125 C312.52766412 146.14708665 313.47639643 147.09063264 314.42550659 148.03379822 C316.98169115 150.5766886 319.5315341 153.12584604 322.07980704 155.67666197 C324.21515034 157.81308102 326.35347643 159.94650258 328.49174434 162.07999384 C333.53842473 167.11561328 338.57980111 172.15649946 343.61791992 177.20068359 C348.80112093 182.38992877 353.99344354 187.56991684 359.19029492 192.74548852 C363.6672724 197.20481239 368.13838059 201.66996256 372.60491496 206.13974631 C375.26595947 208.80259702 377.92914048 211.46321444 380.5980587 214.11817551 C383.10748119 216.61496205 385.60945245 219.11898925 388.10606003 221.62858772 C389.45145182 222.97744661 390.80419796 224.31895777 392.1572113 225.66017151 C398.79239095 232.35270431 404.95393323 238.80436938 404.98599911 248.65779305 C404.99169035 249.67740061 404.99738159 250.69700817 405.00324529 251.74751294 C405.00442517 252.87111718 405.00560505 253.99472142 405.00682068 255.15237427 C405.01445241 256.93907384 405.01445241 256.93907384 405.02223831 258.76186836 C405.03524956 262.07434236 405.04372976 265.38677141 405.05021131 268.69926095 C405.05658169 271.53934709 405.06665215 274.37941518 405.07677197 277.21949007 C405.11011063 286.58098091 405.13162622 295.94248277 405.14997181 305.30401355 C405.15476798 307.74370609 405.15975122 310.18339819 405.16477704 312.62309027 C405.19576248 327.7849633 405.22243899 342.9468402 405.23919582 358.10873604 C405.24314514 361.62164441 405.24714814 365.13455271 405.2512207 368.64746094 C405.25222906 369.5205459 405.25323743 370.39363086 405.25427634 371.29317294 C405.2712535 385.41094527 405.3123273 399.52854139 405.36324369 413.64622785 C405.41513644 428.15463356 405.4441539 442.66294898 405.45139271 457.17144668 C405.45604167 465.31152865 405.47065162 473.45132267 405.51113701 481.59131241 C405.54560657 488.53014926 405.55930875 495.46864621 405.54671287 502.4075637 C405.54092415 505.94203146 405.54447695 509.47578202 405.57488251 513.01013947 C405.68356459 528.01414109 405.37834288 541.03229615 398.84619141 554.74462891 C398.18619141 554.74462891 397.52619141 554.74462891 396.84619141 554.74462891 C396.76369141 555.46650391 396.68119141 556.18837891 396.59619141 556.93212891 C393.92436934 566.95146165 380.23061978 576.31014674 371.84619141 581.74462891 C358.50328302 588.39815085 345.44011707 588.60599669 330.78759766 588.52099609 C328.40875286 588.52914338 326.02991564 588.53983598 323.65109253 588.55285645 C317.23774753 588.58002748 310.82498672 588.56967984 304.41163254 588.55058193 C300.39534077 588.53985291 296.37912216 588.54195004 292.36282349 588.5475235 C291.3578587 588.5489026 291.3578587 588.5489026 290.33259159 588.55030955 C288.97088707 588.55222821 287.60918258 588.55417349 286.24747813 588.5561451 C273.52518893 588.57319092 260.80316054 588.5536828 248.08091414 588.5213429 C237.20143604 588.49454195 226.32234227 588.4991999 215.44287109 588.52685547 C202.76129697 588.5590776 190.07995054 588.57154356 177.39834118 588.55318189 C176.0420806 588.5512709 174.68581998 588.54938467 173.32955933 588.5475235 C172.66252332 588.54659785 171.99548731 588.54567219 171.30823809 588.54471849 C166.64268913 588.53957164 161.97733028 588.54850763 157.3117981 588.56240082 C151.01426219 588.57984693 144.71744565 588.56750435 138.41998672 588.53303528 C136.12116815 588.52516207 133.8222881 588.52727576 131.52349472 588.54061127 C116.3755179 588.62032452 101.71123753 587.74119237 88.84619141 578.74462891 C88.84619141 578.08462891 88.84619141 577.42462891 88.84619141 576.74462891 C88.16556641 576.55900391 87.48494141 576.37337891 86.78369141 576.18212891 C83.22962733 574.44290606 81.08088648 572.16566734 78.39697266 569.30322266 C76.91108915 567.64432345 76.91108915 567.64432345 74.84619141 566.74462891 C74.11925237 564.7657393 73.44802889 562.76508333 72.84619141 560.74462891 C72.18619141 560.74462891 71.52619141 560.74462891 70.84619141 560.74462891 C64.06988504 550.10438615 59.70955176 537.48651492 59.73266602 524.84301758 C59.73251999 524.16929108 59.73237396 523.49556458 59.73222351 522.80142212 C59.73291669 520.58844716 59.74068105 518.3755578 59.74853516 516.16259766 C59.75040145 514.62274725 59.75182436 513.08289625 59.75282288 511.54304504 C59.75663139 507.50052231 59.76644739 503.45803581 59.77752686 499.41552734 C59.78777685 495.28630056 59.79232818 491.15706789 59.79736328 487.02783203 C59.80807121 478.93341441 59.82512755 470.83902617 59.84619141 462.74462891 C58.93101242 462.74907013 58.01583344 462.75351135 57.07292175 462.75808716 C48.40855072 462.79831768 39.74421149 462.82869107 31.07976818 462.84825325 C26.62629875 462.85864874 22.1729071 462.87272972 17.71948242 462.89550781 C13.41414447 462.91738832 9.1088809 462.9292293 4.80349159 462.93438339 C3.16862125 462.93805204 1.53375454 462.94521525 -0.10108376 462.95608902 C-21.69367201 463.09387307 -38.59950809 458.89400282 -55.15380859 444.74462891 C-56.06775391 444.03177734 -56.98169922 443.31892578 -57.92333984 442.58447266 C-60.44530447 440.5041831 -61.56537796 438.59056712 -63.15380859 435.74462891 C-63.91693359 434.81650391 -64.68005859 433.88837891 -65.46630859 432.93212891 C-73.05836363 422.2819846 -75.04684888 409.88250002 -74.92243958 397.11610413 C-74.93009278 395.61296878 -74.94034882 394.10984488 -74.95294112 392.6067428 C-74.9796444 388.52526862 -74.96959212 384.44463016 -74.95281565 380.3631345 C-74.94121065 375.94239792 -74.96433808 371.52181466 -74.98277283 367.10112 C-75.01318819 358.46006963 -75.01129537 349.81932213 -74.997322 341.17824084 C-74.98647195 334.15023162 -74.98705333 327.12230908 -74.99564171 320.09429741 C-74.99684983 319.09114205 -74.99805795 318.08798668 -74.99930268 317.05443267 C-75.00179353 315.01604662 -75.00430451 312.9776606 -75.00683542 310.9392746 C-75.02907778 291.85813794 -75.0138808 272.77717032 -74.98624911 253.69604992 C-74.96353469 237.35250986 -74.97521252 221.00928302 -75.01147461 204.66577148 C-75.05365957 185.65093294 -75.07269047 166.63628842 -75.05645007 147.62140363 C-75.05479056 145.59052784 -75.0531672 143.55965202 -75.05158043 141.52877617 C-75.05079549 140.52975194 -75.05001055 139.53072771 -75.04920182 138.50143002 C-75.04532354 131.48899955 -75.05798049 124.47671282 -75.07731056 117.4643116 C-75.10052271 108.90809942 -75.09868012 100.35232308 -75.06539742 91.79613716 C-75.04908001 87.43731133 -75.04360706 83.07923948 -75.06899643 78.72043991 C-75.19067429 56.09284731 -74.58287979 37.96723305 -58.15380859 20.74462891 C-57.56728516 20.09236328 -56.98076172 19.44009766 -56.37646484 18.76806641 C-40.62340609 1.94009306 -21.83507479 -0.15713222 0 0 Z " fill="#1B102D" transform="translate(209.15380859375,22.25537109375)"/>
<path d="M0 0 C1.20872269 -0.00137466 2.41744537 -0.00274933 3.66279602 -0.00416565 C4.99893213 -0.00062678 6.335068 0.00300803 7.67120361 0.00672913 C9.08064268 0.00701125 10.49008189 0.00685277 11.89952087 0.00628662 C15.72355509 0.00599964 19.54755796 0.01188039 23.37158489 0.01886058 C27.36877471 0.02511058 31.36596523 0.02569922 35.36315918 0.02688599 C42.93142511 0.02999444 50.49967661 0.03820129 58.06793618 0.04823548 C66.68454983 0.05941168 75.30116417 0.06491087 83.91778326 0.06993091 C101.64191334 0.0803843 119.36602997 0.09797435 137.09014893 0.12025452 C137.09014893 1.11025452 137.09014893 2.10025452 137.09014893 3.12025452 C136.43014893 3.12025452 135.77014893 3.12025452 135.09014893 3.12025452 C135.18337205 10.12731301 135.29078521 17.13405666 135.40753174 24.14076233 C135.44554176 26.51864332 135.48044042 28.89657636 135.51202393 31.27455139 C135.84373134 63.73707739 135.84373134 63.73707739 152.09014893 91.12025452 C152.65604736 91.75576233 153.2219458 92.39127014 153.80499268 93.04603577 C164.28689676 104.16918575 177.53987492 110.83568758 192.82794189 111.61805725 C200.50135979 111.81857051 208.16668774 111.69346338 215.84014893 111.55775452 C218.51461315 111.53234759 221.18903841 111.51728664 223.86358643 111.50111389 C228.73203871 111.45928273 233.60017034 111.41390322 238.46807861 111.32899475 C239.43606384 111.31311813 240.40404907 111.29724152 241.40136719 111.28088379 C244.05170075 111.12255143 246.49603111 110.6652984 249.09014893 110.12025452 C249.1359533 142.94510063 249.17118181 175.76993843 249.19227958 208.59480923 C249.19478092 212.47243167 249.19736957 216.35005404 249.20001221 220.22767639 C249.20079914 221.38559557 249.20079914 221.38559557 249.20160197 222.56690706 C249.21029825 235.05672359 249.22606395 247.54652165 249.24445452 260.03632723 C249.26317518 272.85749506 249.27427023 285.67865324 249.27832592 298.49983418 C249.28106648 306.40751522 249.28971407 314.31514406 249.30598186 322.22280903 C249.31783003 328.29228455 249.3190548 334.36171543 249.31636429 340.43120384 C249.31691386 342.91679518 249.32088346 345.40238852 249.32855988 347.88796806 C249.33854143 351.28707334 249.33610596 354.68595712 249.33065796 358.08506775 C249.33939648 359.55300854 249.33939648 359.55300854 249.34831154 361.0506047 C249.30014028 372.2053318 247.54028432 381.46592318 240.09014893 390.12025452 C236.62451748 392.8868101 233.04400291 395.12000095 229.09014893 397.12025452 C228.05522875 397.64884882 228.05522875 397.64884882 226.99940109 398.1881218 C222.93259739 399.49113734 219.13913582 399.39608255 214.89367676 399.3742218 C213.96470479 399.37734178 213.03573282 399.38046176 212.07861018 399.38367629 C208.96422792 399.39165659 205.85004047 399.38533237 202.73565674 399.37904358 C200.50324387 399.3817535 198.2708319 399.38531443 196.03842163 399.3896637 C189.97216893 399.39879195 183.90598417 399.39524105 177.83973026 399.38890553 C171.4911334 399.3838453 165.1425424 399.38853728 158.79394531 399.39167786 C147.44418516 399.39555179 136.0944595 399.38932997 124.74470624 399.37915918 C114.46530721 399.37023239 104.18595338 399.37176855 93.90655518 399.3809967 C81.96206562 399.3917147 70.01760351 399.39567514 58.07310748 399.38977218 C51.75324847 399.38665684 45.43342054 399.38623095 39.11356354 399.39284515 C33.16773769 399.39863286 27.22199694 399.39459554 21.27618027 399.38305664 C19.09655524 399.38041721 16.91692302 399.38116287 14.73730087 399.38558197 C11.75628987 399.39106742 8.77554955 399.38416676 5.79455566 399.3742218 C4.93704562 399.37868325 4.07953558 399.38314469 3.19604039 399.38774133 C-7.51661873 399.31868279 -15.83378924 397.00728332 -23.66766357 389.41712952 C-29.66274801 382.72914588 -33.02855427 376.31136955 -33.04407215 367.25238609 C-33.04853 366.04533402 -33.05298784 364.83828194 -33.05758077 363.59465253 C-33.05749148 362.2534449 -33.05730163 360.91223727 -33.05702209 359.57102966 C-33.0603218 358.14752242 -33.06404759 356.72401612 -33.06816357 355.300511 C-33.07817957 351.38390858 -33.08189972 347.46732147 -33.08455288 343.55070806 C-33.08845712 339.32831881 -33.09803537 335.10594169 -33.10676575 330.88356018 C-33.12652669 320.68412941 -33.13659586 310.48469764 -33.14549354 300.28525251 C-33.149877 295.48188648 -33.15524366 290.67852156 -33.16048241 285.8751564 C-33.17749424 269.90725877 -33.19198841 253.93936183 -33.19923115 237.97145653 C-33.20114103 233.82785923 -33.20306137 229.68426195 -33.20501709 225.54066467 C-33.20550083 224.51079707 -33.20598457 223.48092947 -33.20648297 222.41985376 C-33.21478325 205.7367246 -33.24012035 189.05366713 -33.27259777 172.37056927 C-33.30567114 155.24166494 -33.32368016 138.11279704 -33.32687539 120.98386061 C-33.32904021 111.36688963 -33.3377849 101.75002321 -33.36333656 92.13308334 C-33.38504734 83.94284332 -33.39309211 75.75273327 -33.38336978 67.56246774 C-33.37882619 63.38499978 -33.38071465 59.20779996 -33.40013123 55.0303688 C-33.41777165 51.20194406 -33.41675835 47.37398289 -33.40123393 43.54555316 C-33.39773883 41.51312013 -33.41387757 39.48068219 -33.43083841 37.44831693 C-33.35623364 26.81782223 -30.88966063 18.51438744 -24.10906982 10.23353577 C-17.24501332 3.63770172 -9.42356203 -0.00826628 0 0 Z " fill="#4AB0D2" transform="translate(333.90985107421875,179.87974548339844)"/>
<path d="M0 0 C0.91898687 -0.00155999 1.83797374 -0.00311998 2.7848087 -0.00472724 C5.85924615 -0.00871075 8.93363409 -0.00555783 12.0080719 -0.00241089 C14.21432016 -0.00376611 16.42056819 -0.00554673 18.6268158 -0.00772095 C24.61641454 -0.01228112 30.60599607 -0.01051144 36.59559512 -0.00734186 C42.86370817 -0.00481066 49.13181975 -0.00715796 55.39993286 -0.00872803 C66.601759 -0.01066419 77.80357804 -0.00755556 89.00540251 -0.00246869 C99.15522197 0.00199783 109.30502999 0.00122378 119.45484924 -0.00338745 C131.24879904 -0.00874315 143.04274326 -0.01072866 154.8366943 -0.00777519 C161.07710073 -0.00621645 167.31749928 -0.00600762 173.5579052 -0.00931168 C179.4257409 -0.0122014 185.29355502 -0.01019438 191.1613884 -0.00441742 C193.31444195 -0.00309568 195.46749733 -0.003474 197.62055016 -0.00568008 C200.56053449 -0.00841462 203.50044975 -0.00498219 206.44042969 0 C207.29141045 -0.00223072 208.1423912 -0.00446144 209.01915926 -0.00675976 C219.94967112 0.02913945 227.46547864 2.34177485 235.68214417 9.86526489 C242.07996405 16.92884776 244.91472644 24.37630303 244.89723206 33.82327271 C244.89737808 34.48709961 244.89752411 35.15092651 244.89767456 35.83486938 C244.89697999 38.02081614 244.88920898 40.20667684 244.88136292 42.39260864 C244.87949712 43.91146803 244.87807398 45.43032803 244.8770752 46.94918823 C244.87326276 50.94076203 244.86344336 54.93229926 244.85237122 58.92385864 C244.8421297 62.99937444 244.8375717 67.07489617 244.83253479 71.15042114 C244.82181994 79.1426254 244.80475883 87.13479997 244.78370667 95.12698364 C243.88588848 95.13056617 243.88588848 95.13056617 242.96993256 95.13422108 C228.33507401 95.19362868 213.70036068 95.26934045 199.06568146 95.36269855 C191.98814392 95.40746387 184.91065454 95.44692156 177.83302307 95.47341919 C171.65660406 95.49655679 165.48033998 95.53012666 159.30404425 95.5756852 C156.04056406 95.59940774 152.77726456 95.61671462 149.51370239 95.62459755 C124.79543638 95.22742678 124.79543638 95.22742678 101.53370667 102.62698364 C100.88168274 102.96592651 100.22965881 103.30486938 99.55787659 103.65408325 C85.22337177 111.50747805 74.81863511 124.60638423 69.78370667 140.12698364 C66.88786796 152.24871864 67.47576065 164.81408726 67.46485901 177.18484497 C67.45554905 179.61038035 67.4453788 182.03591256 67.43441772 184.46144104 C67.41284039 189.66084633 67.39718075 194.86023267 67.38705063 200.0596714 C67.37239417 207.5769552 67.34683841 215.09417176 67.31871934 222.61141583 C67.2733771 234.81100452 67.23671069 247.01060296 67.20558167 259.2102356 C67.17534441 271.05302642 67.14097058 282.89579347 67.10108948 294.73855591 C67.09862793 295.46994141 67.09616638 296.20132692 67.09363024 296.95487563 C67.08125463 300.62443914 67.06879829 304.29400237 67.05630183 307.96356547 C66.95292245 338.35133891 66.86380335 368.73913938 66.78370667 399.12698364 C56.91694214 399.21997581 47.05028318 399.29089619 37.18316841 399.33423233 C32.60063742 399.35503956 28.01840793 399.38323051 23.43605042 399.42874146 C19.00750166 399.47244574 14.57924153 399.49617228 10.15049362 399.50649261 C8.46731401 399.51384013 6.78414884 399.52818742 5.10109329 399.54990387 C-3.98180255 399.66235843 -12.03714502 399.63604062 -20.21629333 395.12698364 C-21.26816833 394.54948364 -22.32004333 393.97198364 -23.40379333 393.37698364 C-30.87616151 387.39908911 -35.90140288 380.73904514 -37.21629333 371.12698364 C-37.30346808 369.10417426 -37.34355023 367.07897153 -37.34492779 365.05428505 C-37.34815223 363.85246767 -37.35137668 362.65065028 -37.35469884 361.41241419 C-37.35315023 360.10075293 -37.35160163 358.78909168 -37.3500061 357.43768311 C-37.35187508 356.02339917 -37.35417614 354.60911576 -37.35687143 353.19483316 C-37.36298498 349.31308843 -37.36285636 345.43136526 -37.36167705 341.54961681 C-37.36147293 337.36138769 -37.36699282 333.17316548 -37.37173462 328.98493958 C-37.3800391 320.78144432 -37.38278936 312.57795625 -37.383347 304.37445714 C-37.38382222 297.70657039 -37.38587725 291.03868601 -37.38904762 284.37080002 C-37.39785333 265.46600077 -37.40246708 246.5612072 -37.40171715 227.65640588 C-37.40167719 226.6373606 -37.40163724 225.61831533 -37.40159607 224.56838989 C-37.40155519 223.54810052 -37.40151431 222.52781114 -37.40147219 221.47660391 C-37.40106565 204.93777216 -37.41063731 188.39896318 -37.42473444 171.86013801 C-37.43909516 154.87808145 -37.4460048 137.896036 -37.44514066 120.91397321 C-37.4448086 111.37985039 -37.4475595 101.84575142 -37.45831871 92.31163406 C-37.46741966 84.19497114 -37.46960226 76.0783429 -37.46280929 67.96167709 C-37.45954215 63.82097518 -37.45949441 59.68033984 -37.46816254 55.53964424 C-37.47601978 51.74729088 -37.47460405 47.95505696 -37.4658784 44.16270654 C-37.46361512 42.1448141 -37.47117811 40.12691799 -37.47911805 38.1090399 C-37.43780523 27.26578142 -35.91687993 18.93810743 -29.21629333 10.12698364 C-20.54570797 1.88820034 -11.57755581 -0.03026952 0 0 Z " fill="#5285DC" transform="translate(203.21629333496094,53.873016357421875)"/>
<path d="M0 0 C2.6603775 1.49245358 2.6603775 1.49245358 5 4 C5.49708096 6.9998183 5.66819726 9.433621 5.62145996 12.4332428 C5.63104319 13.72151329 5.63104319 13.72151329 5.64082003 15.03580946 C5.65610309 17.91895705 5.6355871 20.80073775 5.61523438 23.68383789 C5.61873455 25.74850419 5.62439195 27.81316781 5.63204956 29.87782288 C5.64632111 35.48935717 5.62921313 41.10040285 5.60576439 46.71189046 C5.58569138 52.57749219 5.59153305 58.44307293 5.59387207 64.30870056 C5.59381846 74.15876346 5.57404002 84.00863475 5.54199219 93.85864258 C5.50508775 105.2569678 5.49631768 116.65504201 5.5032897 128.05341917 C5.50958801 139.00661434 5.49885351 149.95972317 5.47932434 160.91290092 C5.471136 165.57992213 5.46844342 170.24689929 5.47001648 174.91392708 C5.4708934 180.40590148 5.4567311 185.89763616 5.43078995 191.38954735 C5.42360884 193.4088131 5.42155381 195.42810433 5.42490768 197.44738007 C5.42860368 200.19642976 5.41394085 202.94477256 5.39440918 205.69374084 C5.40240107 206.90218905 5.40240107 206.90218905 5.41055441 208.13505036 C5.34487551 213.46542321 5.34487551 213.46542321 3.71753693 215.9878912 C1.30365527 217.41034147 -1.11234056 217.46411014 -3.8671875 217.59375 C-7.3265549 216.63070267 -8.77047515 214.76857943 -11 212 C-11.48819545 209.01075475 -11.66912551 206.59546351 -11.62145996 203.61181641 C-11.62784878 202.76986032 -11.6342376 201.92790424 -11.64082003 201.06043434 C-11.65607564 198.24032618 -11.63560532 195.42162165 -11.61523438 192.6015625 C-11.6187354 190.579402 -11.62439377 188.55724425 -11.63204956 186.53509521 C-11.64630975 181.0433126 -11.62922366 175.55202994 -11.60576439 170.0602951 C-11.58567378 164.31575191 -11.59153402 158.57122984 -11.59387207 152.82666016 C-11.59381848 143.17927798 -11.57404994 133.53209154 -11.54199219 123.88476562 C-11.50509863 112.72787371 -11.49631646 101.57123824 -11.5032897 90.41429329 C-11.50959288 79.68588927 -11.4988438 68.95757327 -11.47932434 58.22918701 C-11.47114524 53.66150662 -11.46844174 49.09387119 -11.47001648 44.52618408 C-11.47089481 39.14827619 -11.4566928 33.77061237 -11.43078995 28.39276886 C-11.423622 26.4178816 -11.42154754 24.44296839 -11.42490768 22.46807098 C-11.4286167 19.77450956 -11.41389507 17.08166267 -11.39440918 14.38818359 C-11.39973711 13.60462305 -11.40506503 12.82106251 -11.41055441 12.01375771 C-11.35427631 7.51200617 -10.80531874 4.57291267 -8 1 C-5.14675563 -0.42662219 -3.16545451 -0.31033868 0 0 Z " fill="#FEFEFE" transform="translate(218,159)"/>
<path d="M0 0 C0.99425473 -0.00596161 0.99425473 -0.00596161 2.00859541 -0.01204365 C4.22815249 -0.02166307 6.44707159 -0.00985136 8.66661072 0.00190735 C10.25837441 -0.00052072 11.85013658 -0.00424019 13.44189453 -0.00915527 C17.76411667 -0.0185651 22.08611239 -0.00913851 26.40831685 0.00417686 C30.9286142 0.01548645 35.44890033 0.01138428 39.96920776 0.00942993 C47.55946048 0.00854689 55.1496239 0.0196302 62.73985291 0.03804016 C71.52063301 0.05921556 80.30128234 0.06271611 89.08208281 0.0564782 C97.52362616 0.05078791 105.96512338 0.05642575 114.40666008 0.06765175 C118.00190012 0.0723014 121.59711197 0.07317001 125.1923542 0.0710659 C129.42357061 0.06918526 133.6546535 0.07726955 137.88583946 0.0931263 C139.44069491 0.09737645 140.99556389 0.0982148 142.55042267 0.0954361 C144.66877244 0.09222411 146.78672081 0.10127078 148.9050293 0.11352539 C150.09171235 0.11557826 151.2783954 0.11763113 152.50103855 0.11974621 C155.38902283 0.3742218 155.38902283 0.3742218 158.38902283 2.3742218 C159.4441704 7.32529889 160.00643129 10.82819658 157.38902283 15.3742218 C154.56096358 16.78825142 152.18921739 16.51000771 149.02528381 16.52139282 C148.36486174 16.52506951 147.70443968 16.5287462 147.02400482 16.5325343 C144.80078039 16.5435882 142.57760268 16.54741782 140.35435486 16.55122375 C138.76450959 16.55748703 137.17466579 16.56413371 135.58482361 16.57113647 C131.25837027 16.58855676 126.93192798 16.59910066 122.60544825 16.607342 C119.90414264 16.61248913 117.20284049 16.61856494 114.50153732 16.62485313 C106.05467165 16.6439066 97.60781474 16.65813838 89.16093171 16.6664651 C79.40102206 16.67624437 69.64133879 16.70258114 59.88150895 16.742966 C52.34346226 16.7730904 44.80548061 16.7879304 37.26737487 16.79124612 C32.76233185 16.79360048 28.25753064 16.80261099 23.75255203 16.82770729 C19.51554991 16.85092945 15.27894982 16.85524508 11.04190063 16.84494591 C9.48583517 16.84444903 7.92975031 16.85081411 6.37374496 16.86450195 C4.25092069 16.88213296 2.1295531 16.87516027 0.00672913 16.86196899 C-1.77580922 16.86555152 -1.77580922 16.86555152 -3.59435844 16.86920643 C-7.22635224 16.27324742 -8.39756909 15.25836186 -10.61097717 12.3742218 C-11.14222717 10.12031555 -11.14222717 10.12031555 -11.11097717 7.8117218 C-11.12128967 7.04730774 -11.13160217 6.28289368 -11.14222717 5.49531555 C-10.61097717 3.3742218 -10.61097717 3.3742218 -8.99096012 1.7650423 C-5.84324242 -0.07442899 -3.63944537 -0.00051428 0 0 Z " fill="#1A0E2B" transform="translate(367.61097717285156,317.6257781982422)"/>
<path d="M0 0 C1.00522375 -0.00913666 1.00522375 -0.00913666 2.03075504 -0.01845789 C4.28100987 -0.03513496 6.53070176 -0.03030566 8.78100586 -0.0255127 C10.39232982 -0.03285025 12.00364851 -0.04143556 13.61495972 -0.05117798 C17.99505547 -0.07343387 22.37496334 -0.0763227 26.75510788 -0.07443047 C30.40842525 -0.07431097 34.0617025 -0.08286631 37.71500874 -0.09120798 C46.33111039 -0.11045608 54.94711515 -0.11332048 63.56323242 -0.10656738 C72.46056854 -0.09992243 81.35749052 -0.12280584 90.25474262 -0.15988111 C97.88708297 -0.19053485 105.51928978 -0.20194295 113.15169048 -0.1980443 C117.71316176 -0.1959726 122.27431072 -0.20152065 126.83572388 -0.22593689 C131.12373026 -0.24813084 135.41106105 -0.24638826 139.69906998 -0.22600937 C141.27489873 -0.22258639 142.85077233 -0.22774363 144.42654037 -0.24199295 C146.57405713 -0.26007624 148.71925489 -0.2475233 150.86669922 -0.22705078 C152.06942978 -0.22776329 153.27216034 -0.2284758 154.51133728 -0.2292099 C157.43334961 0.39440918 157.43334961 0.39440918 159.31251526 2.74575043 C160.68715049 5.99416945 161.01547096 7.90168107 160.43334961 11.39440918 C157.89320647 14.57021702 156.3874252 16.20151167 152.3489151 17.01802826 C151.18749748 17.01731575 150.02607986 17.01660324 148.82946777 17.01586914 C148.17943865 17.02225796 147.52940953 17.02864678 146.85968256 17.03522921 C144.68894379 17.05044868 142.52003942 17.03004183 140.34936523 17.00964355 C138.79025163 17.01314572 137.2311416 17.01880539 135.67204285 17.02645874 C131.44256171 17.04070285 127.213731 17.02364924 122.98431206 17.00017357 C118.55704876 16.98006141 114.12981239 16.98594432 109.70251465 16.98828125 C102.26779457 16.98822768 94.83332867 16.96847316 87.39868164 16.93640137 C78.80475348 16.8995087 70.21115828 16.89072585 61.61716127 16.89769888 C53.3480559 16.90400545 45.07906464 16.89324673 36.8099823 16.87373352 C33.29174676 16.86556152 29.77356956 16.86284961 26.25532532 16.86442566 C22.11183392 16.865305 17.96865863 16.85107519 13.82525063 16.82519913 C12.30510808 16.81804071 10.7849319 16.81595215 9.26477623 16.81931686 C7.18858573 16.82303555 5.11331579 16.80827233 3.03723145 16.78881836 C1.29510502 16.78322529 1.29510502 16.78322529 -0.48221588 16.77751923 C-4.2063978 16.31494772 -6.89342376 15.06763581 -9.56665039 12.39440918 C-9.76977539 10.43347168 -9.76977539 10.43347168 -9.81665039 8.01940918 C-9.84243164 7.2279248 -9.86821289 6.43644043 -9.89477539 5.62097168 C-9.56665039 3.39440918 -9.56665039 3.39440918 -8.45655823 1.7798996 C-5.66098951 -0.26953033 -3.44155467 0.01066953 0 0 Z " fill="#1A0E2B" transform="translate(366.566650390625,487.6055908203125)"/>
<path d="M0 0 C0.64271644 -0.00382555 1.28543288 -0.00765109 1.94762558 -0.01159257 C4.08707097 -0.02185714 6.22624471 -0.01794308 8.3657074 -0.01396179 C9.90526069 -0.0183118 11.44481182 -0.02349591 12.98435974 -0.02944946 C17.15571922 -0.042817 21.32698797 -0.04342084 25.49836469 -0.04088616 C28.98263207 -0.03981533 32.46688118 -0.0447025 35.95114464 -0.04949158 C44.16991258 -0.06057814 52.38863481 -0.0610284 60.60740662 -0.05497742 C69.08488464 -0.04893201 77.56219693 -0.06126494 86.03964669 -0.08254749 C93.3221742 -0.10015759 100.60464893 -0.10616594 107.88719696 -0.10290974 C112.23510144 -0.10109643 116.58288759 -0.10373821 120.93077278 -0.11762428 C125.01759837 -0.13018909 129.10416507 -0.12827143 133.19098663 -0.11521339 C134.69018325 -0.11284544 136.18939803 -0.11559017 137.68857384 -0.12383652 C139.73588091 -0.13428563 141.7832616 -0.1244109 143.83056641 -0.11352539 C145.54862157 -0.113777 145.54862157 -0.113777 147.30138493 -0.1140337 C150.71503612 0.30531956 152.61053831 1.21577898 155.35179138 3.26069641 C156.6493267 6.58648432 156.46241464 10.18211964 156.10179138 13.69819641 C155.73054138 14.47163391 155.73054138 14.47163391 155.35179138 15.26069641 C151.96611745 16.38925439 149.39349405 16.39225334 145.82310486 16.40113831 C144.82400644 16.40559499 144.82400644 16.40559499 143.80472422 16.41014171 C141.56844748 16.41882711 139.33222428 16.42033679 137.09593201 16.42182922 C135.49446498 16.42645738 133.89299906 16.43148204 132.29153442 16.43687439 C127.93834411 16.44999756 123.58516921 16.45644277 119.2319622 16.46088505 C116.51407539 16.46381491 113.7961928 16.46791947 111.07830811 16.47238922 C102.57965346 16.48606172 94.08100846 16.49573053 85.58234358 16.49959111 C75.76191508 16.50407639 65.94162545 16.52164705 56.12123919 16.55059171 C48.53562905 16.57217624 40.95005809 16.5822936 33.36441755 16.58363223 C28.83096449 16.58468226 24.29764201 16.5906322 19.76422119 16.60845184 C15.50263423 16.62487762 11.24127682 16.62711497 6.97966957 16.61831284 C5.41351521 16.61753959 3.84734879 16.62192276 2.2812252 16.63177109 C0.14736598 16.64440544 -1.98566963 16.63866136 -4.11952209 16.62818909 C-5.91255642 16.63038893 -5.91255642 16.63038893 -7.74181366 16.63263321 C-10.64820862 16.26069641 -10.64820862 16.26069641 -12.53574371 14.87469101 C-14.02183628 12.71862715 -13.98375815 11.29462476 -13.89820862 8.69819641 C-13.88273987 7.91315735 -13.86727112 7.12811829 -13.85133362 6.31929016 C-13.64820862 4.26069641 -13.64820862 4.26069641 -12.64820862 2.26069641 C-8.34197417 0.4570041 -4.64125765 0.00831588 0 0 Z " fill="#1A0E2B" transform="translate(370.64820861816406,373.7393035888672)"/>
<path d="M0 0 C0.6491747 -0.00438225 1.29834939 -0.00876451 1.96719605 -0.01327956 C4.14041094 -0.02662419 6.31358532 -0.03283649 8.48683167 -0.03897095 C10.04579347 -0.04687504 11.60475346 -0.05514419 13.16371155 -0.06375122 C18.27994551 -0.08992552 23.39618748 -0.10526959 28.51246643 -0.11953735 C30.27435371 -0.12489804 32.03624095 -0.13027555 33.79812813 -0.13566971 C41.12504969 -0.15728751 48.45196909 -0.17602582 55.77891445 -0.1872921 C66.27918322 -0.203545 76.77908282 -0.23676765 87.27921242 -0.29369295 C94.66359893 -0.3323634 102.04788655 -0.35192107 109.43237168 -0.35721266 C113.84302626 -0.36086876 118.25328667 -0.37291803 122.66383171 -0.4053154 C126.81146333 -0.43534706 130.95846119 -0.44172573 135.10617828 -0.42993164 C136.62797214 -0.42971052 138.14979501 -0.43804728 139.67148781 -0.45558548 C141.75034385 -0.47824092 143.82689421 -0.47000352 145.90576172 -0.45410156 C147.06847816 -0.45741171 148.23119459 -0.46072186 149.42914486 -0.46413231 C153.47269071 0.34534555 154.96959204 1.97985753 157.51637268 5.15390015 C158.14137268 8.15390015 158.14137268 8.15390015 157.51637268 11.15390015 C154.96556357 14.33487521 153.46636764 15.96279529 149.4163208 16.77751923 C148.24752884 16.77680672 147.07873688 16.77609421 145.87452698 16.77536011 C144.89335797 16.78494334 144.89335797 16.78494334 143.89236736 16.79472017 C141.70781317 16.80994063 139.52508148 16.78953204 137.34059143 16.76913452 C135.77162577 16.77263666 134.20266367 16.77829629 132.63371277 16.78594971 C128.37737449 16.80019426 124.12168251 16.78313975 119.86540604 16.75966454 C115.41011551 16.73955297 110.95485174 16.74543525 106.49952698 16.74777222 C99.01772914 16.74771865 91.53618387 16.72796375 84.05445862 16.69589233 C75.40599944 16.65899964 66.75787112 16.65021682 58.10934353 16.65718985 C49.78791272 16.66349633 41.4665953 16.65273787 33.14518738 16.63322449 C29.60462325 16.6250523 26.06411709 16.62234061 22.52354431 16.62391663 C18.35378891 16.62479594 14.18434766 16.61056689 10.01467514 16.58469009 C8.48485716 16.57753142 6.95500575 16.57544325 5.42517471 16.57880783 C3.33584912 16.58252625 1.24743847 16.56776416 -0.84178162 16.54830933 C-2.01057358 16.54458061 -3.17936554 16.5408519 -4.38357544 16.53701019 C-7.82546485 16.11165524 -9.73541303 15.24133668 -12.48362732 13.15390015 C-13.04222107 10.99765015 -13.04222107 10.99765015 -12.92112732 8.65390015 C-12.89921326 7.88046265 -12.87729919 7.10702515 -12.85472107 6.31015015 C-12.48362732 4.15390015 -12.48362732 4.15390015 -10.48362732 1.15390015 C-7.10420813 -0.17816198 -3.59207553 0.01722055 0 0 Z " fill="#1A0E2B" transform="translate(369.48362731933594,430.8460998535156)"/>
<path d="M0 0 C1.39324887 -0.00186477 2.78649627 -0.00590295 4.17973328 -0.01194763 C7.95673164 -0.0219155 11.73297857 -0.00076466 15.50986791 0.02653241 C19.46379335 0.05037852 23.4177043 0.04741758 27.37168884 0.0478363 C34.01029162 0.05246293 40.6486074 0.07609589 47.28710938 0.11230469 C54.96193558 0.15405458 62.63650346 0.17162063 70.31143671 0.17492443 C78.48404852 0.17852426 86.6565674 0.19739818 94.82914042 0.22204471 C97.1836868 0.22827238 99.5382261 0.23190927 101.8927784 0.23507881 C105.59218096 0.24098104 109.2913991 0.2572986 112.99072456 0.28168297 C114.99614104 0.29266941 117.00160325 0.29396193 119.00704956 0.29498291 C120.20013229 0.30495804 121.39321503 0.31493317 122.62245178 0.32521057 C123.65942735 0.32986108 124.69640291 0.33451159 125.76480198 0.33930302 C128.54727401 0.60771733 130.14436727 1.05915019 132.46069336 2.59936523 C134.97069056 6.36436104 135.0754608 8.14230129 134.46069336 12.59936523 C131.72095079 15.97044935 129.98813809 17.34991524 125.67086601 18.05497742 C122.07667551 18.23833514 118.51429601 18.25162858 114.91552734 18.21459961 C113.5336031 18.21810351 112.1516829 18.22376513 110.76977539 18.23141479 C107.02790942 18.24563292 103.28678092 18.2286321 99.54498553 18.20512962 C95.62488791 18.18498695 91.70481989 18.19090188 87.78468323 18.1932373 C81.20333731 18.19318378 74.62227891 18.17345134 68.04101562 18.14135742 C60.43600798 18.10445106 52.83137663 18.0956844 45.22629112 18.10265493 C37.90384628 18.10896313 30.58153024 18.0982008 23.2591114 18.07868958 C20.14558131 18.07052255 17.0321171 18.06780473 13.91857719 18.06938171 C10.25192614 18.07026158 6.58563191 18.05601751 2.91907501 18.03015518 C0.93414053 18.01959398 -1.05085492 18.023662 -3.03581238 18.02816772 C-4.22041046 18.01681793 -5.40500854 18.00546814 -6.62550354 17.99377441 C-8.16657445 17.98818134 -8.16657445 17.98818134 -9.73877811 17.98247528 C-12.99977266 17.53637385 -14.89475535 16.52933497 -17.53930664 14.59936523 C-19.10866258 11.46065336 -18.89131767 9.06080702 -18.53930664 5.59936523 C-14.21347723 -1.34630664 -7.47517902 -0.08506728 0 0 Z " fill="#1B1130" transform="translate(250.539306640625,91.400634765625)"/>
<path d="M0 0 C2 0 2 0 4.23954773 2.11553955 C5.6059716 3.54334747 5.6059716 3.54334747 7 5 C7.96955088 5.97291678 8.94201477 6.94293757 9.91706848 7.91033936 C10.4372052 8.42903091 10.95734192 8.94772247 11.49324036 9.48213196 C12.04565903 10.03297958 12.5980777 10.58382721 13.16723633 11.15136719 C19.20393615 17.17178911 25.23813846 23.19470772 31.27089405 29.21908188 C34.91683263 32.85977519 38.56371152 36.4995167 42.21264648 40.13720703 C45.74779925 43.66153863 49.28054263 47.1882685 52.81159019 50.71671295 C54.15880374 52.06207348 55.50689959 53.40655106 56.85587502 54.75014496 C58.73280401 56.61987213 60.60663838 58.49264697 62.47973633 60.36621094 C63.04227615 60.92515549 63.60481598 61.48410004 64.18440247 62.0599823 C68 65.885945 68 65.885945 68 67 C62.22002052 67.09967465 56.44055312 67.17184583 50.65991211 67.21972656 C48.69790926 67.23970918 46.73596495 67.26690484 44.77416992 67.30175781 C18.96643528 67.74841751 18.96643528 67.74841751 8.6484375 57.8515625 C1.81696702 50.17829945 -0.47381633 41.24243155 -0.29296875 31.25 C-0.28872391 30.35128174 -0.28447906 29.45256348 -0.28010559 28.52661133 C-0.26344584 25.68408988 -0.22581832 22.84230355 -0.1875 20 C-0.17243671 18.06120823 -0.15875119 16.12240523 -0.14648438 14.18359375 C-0.1135841 9.45545021 -0.06189115 4.72784931 0 0 Z " fill="#4AAED0" transform="translate(500,194)"/>
<path d="M0 0 C0.65594147 -0.0087616 1.31188293 -0.01752319 1.98770142 -0.02655029 C4.14482794 -0.04846494 6.29988581 -0.03402345 8.45703125 -0.01708984 C9.96248771 -0.02046035 11.4679415 -0.02531493 12.97338867 -0.03158569 C16.12412497 -0.03894613 19.27415113 -0.02827952 22.42480469 -0.00488281 C26.4569908 0.02360601 30.48751296 0.00719737 34.51963806 -0.02274513 C37.62703923 -0.04084144 40.73404798 -0.03504973 43.84146118 -0.02210617 C45.32777098 -0.01877853 46.81411679 -0.02283672 48.30038452 -0.03450394 C50.38089898 -0.04725309 52.45874605 -0.02778738 54.5390625 0 C56.31180542 0.00596695 56.31180542 0.00596695 58.12036133 0.01205444 C62.20091549 0.83475319 63.70151406 2.438098 66.26953125 5.64697266 C66.89453125 8.64697266 66.89453125 8.64697266 66.26953125 11.64697266 C63.7192876 14.74862034 62.09253878 16.37263681 58.26953125 17.64697266 C56.29260444 17.75079761 54.31237515 17.79555114 52.33276367 17.80810547 C51.11106979 17.81771301 49.88937592 17.82732056 48.63066101 17.83721924 C47.29544258 17.84206775 45.96022197 17.84634645 44.625 17.85009766 C43.25360615 17.85585244 41.88221231 17.86161013 40.51081848 17.86737061 C37.63505683 17.87787188 34.75932305 17.88372003 31.88354492 17.88720703 C28.20829113 17.89268537 24.53340901 17.91670247 20.8582716 17.94517899 C18.0245915 17.96385445 15.19099999 17.96901359 12.35726357 17.97054291 C10.34654573 17.97502182 8.3358754 17.99364537 6.32524109 18.01251221 C5.09409073 18.00951111 3.86294037 18.00651001 2.59448242 18.00341797 C1.51543137 18.0070636 0.43638031 18.01070923 -0.67536926 18.01446533 C-4.27206557 17.5818249 -6.64710031 16.52795271 -9.73046875 14.64697266 C-12.07596549 11.12872754 -12.31038278 9.78921571 -11.73046875 5.64697266 C-8.09882724 1.07033206 -5.7867788 0.01947796 0 0 Z " fill="#FAFCFD" transform="translate(368.73046875,210.35302734375)"/>
<path d="M0 0 C0.99 0.33 1.98 0.66 3 1 C-0.63 4.63 -4.26 8.26 -8 12 C-8.66 11.67 -9.32 11.34 -10 11 C-8.89718873 9.72799029 -7.79269231 8.45744147 -6.6875 7.1875 C-6.07261719 6.47980469 -5.45773437 5.77210938 -4.82421875 5.04296875 C-3.26665665 3.29863261 -1.67341125 1.63221959 0 0 Z " fill="#201B3E" transform="translate(293,163)"/>
</svg>
