<?xml version="1.0" encoding="UTF-8"?>
<svg version="1.1" xmlns="http://www.w3.org/2000/svg" width="748" height="632">
<path d="M0 0 C0.71064728 -0.00235223 1.42129455 -0.00470446 2.1534766 -0.00712797 C4.53497457 -0.01378537 6.91641757 -0.01336073 9.29792404 -0.01294994 C11.0226909 -0.01625062 12.74745698 -0.01997662 14.47222209 -0.02409142 C19.21257711 -0.03409672 23.95291947 -0.03782586 28.69328356 -0.04048073 C33.80605003 -0.04438825 38.91880653 -0.0539664 44.03156662 -0.0626936 C56.38076205 -0.08244723 68.72995829 -0.09252365 81.07916558 -0.10142139 C86.89861423 -0.10580682 92.71806198 -0.11117304 98.53750992 -0.11641026 C117.89049338 -0.13342281 137.24347628 -0.14791551 156.59646606 -0.155159 C161.61761857 -0.15706881 166.63877107 -0.15898915 171.65992355 -0.16094494 C172.90786716 -0.16142868 174.15581077 -0.16191242 175.44157085 -0.16241082 C195.64341932 -0.1707056 215.84520848 -0.19603309 236.04703107 -0.22852562 C256.80111688 -0.26163339 277.55517258 -0.27961119 298.30928493 -0.28280324 C309.95644735 -0.28496508 321.60352331 -0.29366587 333.25065994 -0.31926441 C343.17315663 -0.34102236 353.09554586 -0.34899687 363.01806369 -0.33929763 C368.07548483 -0.33476745 373.13268448 -0.33656413 378.19007492 -0.35605907 C382.83176368 -0.37379599 387.47307113 -0.37260852 392.11476454 -0.35716178 C393.78246304 -0.35480155 395.45018868 -0.35902562 397.11784592 -0.37099043 C424.41761216 -0.5545184 446.82782266 8.11660898 466.75269699 27.13422108 C467.35468918 27.66144764 467.95668137 28.1886742 468.57691574 28.73187733 C477.12508935 36.52287006 483.2503584 47.11931568 487.69019699 57.69672108 C487.96025558 58.33142323 488.23031418 58.96612537 488.50855637 59.62006092 C492.75541675 70.38504564 494.20301225 81.54022295 494.13364792 93.03680897 C494.14066788 94.86528291 494.14066788 94.86528291 494.14782965 96.73069572 C494.15763236 100.06988804 494.15423143 103.40856452 494.144871 106.74772406 C494.13802528 110.36606504 494.14858882 113.98436405 494.15681076 117.60269642 C494.17009193 124.67348149 494.16729556 131.74417058 494.15857284 138.81495929 C494.15177445 144.56584788 494.15088885 150.31670974 494.15414429 156.0676012 C494.15460399 156.88871987 494.15506369 157.70983854 494.15553731 158.5558396 C494.15649657 160.22436389 494.15746921 161.89288818 494.15845509 163.56141245 C494.16699253 179.17634982 494.15720076 194.79123419 494.14105399 210.40616286 C494.12765231 223.78006034 494.12998086 237.15387969 494.14381027 250.52777576 C494.15989525 266.09004564 494.16616871 281.65226917 494.15697348 297.2145462 C494.15601792 298.87664445 494.1550748 300.53874269 494.15414429 302.20084095 C494.15368146 303.01844601 494.15321863 303.83605107 494.15274178 304.67843205 C494.15016063 310.41680907 494.15450393 316.1551565 494.16158295 321.89352894 C494.17003065 328.89471814 494.1676495 335.89580656 494.15174071 342.89698434 C494.14390172 346.46334165 494.14069086 350.02953143 494.15068817 353.59588718 C494.16139587 357.4745622 494.14853906 361.35296788 494.13364792 365.23163319 C494.14368617 366.89539289 494.14368617 366.89539289 494.15392721 368.5927639 C493.98667435 391.19659456 484.63855434 412.36556754 469.75269699 429.13422108 C469.16230637 429.8071117 468.57191574 430.48000233 467.96363449 431.17328358 C452.08425485 448.13381247 429.05046954 458.18557858 405.94843531 459.32123148 C401.53255886 459.41866059 397.11695038 459.40608319 392.70026779 459.39491749 C390.99364517 459.39794272 389.2870239 459.40183406 387.580405 459.40651006 C382.91813184 459.41675095 378.25593592 459.41461824 373.59365654 459.41032946 C368.55465119 459.40785509 363.51566409 459.41688525 358.4766655 459.42436695 C348.61493369 459.43709655 338.75322913 459.43890979 328.89149049 459.43656669 C320.87226911 459.43478131 312.85305599 459.43653788 304.8338356 459.44079113 C303.69108149 459.44138632 302.54832739 459.44198151 301.37094437 459.44259473 C299.04917647 459.44380653 296.72740858 459.44502066 294.40564069 459.44623711 C272.64637778 459.45710609 250.88713038 459.45495328 229.1278666 459.44885226 C209.24191707 459.44368452 189.35601655 459.45493595 169.47007671 459.47395048 C149.02995061 459.49334441 128.58984768 459.5015821 108.14971232 459.49782723 C96.68269408 459.49591744 85.21571754 459.49838102 73.74870682 459.51254177 C63.98587144 459.5244764 54.22310343 459.52583717 44.4602671 459.5137516 C39.48410297 459.50787736 34.50806194 459.50672309 29.53190613 459.51875401 C24.96709266 459.52966167 20.40250433 459.52645184 15.83770117 459.51249232 C14.19579422 459.50985876 12.55386935 459.51216924 10.91198006 459.52022818 C-17.3345684 459.64913004 -41.74421512 450.99201385 -62.24730301 431.13422108 C-80.00247889 412.59942699 -88.59574021 389.27488823 -88.50799942 363.7889452 C-88.51182497 362.59364917 -88.51565051 361.39835314 -88.51959199 360.16683602 C-88.52807073 356.87994 -88.52770925 353.59318852 -88.52341139 350.30628896 C-88.52093056 346.74923156 -88.52997514 343.19219972 -88.53744888 339.63515186 C-88.55016101 332.67794259 -88.55199389 325.72077198 -88.54964862 318.76355305 C-88.54786117 313.10413809 -88.54962424 307.44473481 -88.55387306 301.78532124 C-88.55446825 300.97796163 -88.55506344 300.17060201 -88.55567667 299.33877696 C-88.5568885 297.6982788 -88.55810263 296.05778065 -88.55931904 294.41728249 C-88.57018143 279.05175677 -88.56803843 263.68625302 -88.5619342 248.32072607 C-88.55676783 234.28946893 -88.5680154 220.25828127 -88.58703241 206.22703788 C-88.60644422 191.79296225 -88.61466086 177.35891943 -88.61090916 162.92483068 C-88.60900198 154.83198366 -88.61143733 146.73919575 -88.6256237 138.64635944 C-88.63758128 131.75565753 -88.63889373 124.86505108 -88.62683354 117.97434774 C-88.62097499 114.46458914 -88.61976055 110.95500478 -88.63183594 107.44525814 C-88.71895476 75.82144563 -83.09117115 49.64093994 -60.49730301 25.94672108 C-44.52925071 10.59377095 -22.37310742 0.03166252 0 0 Z " fill="#1B102D" transform="translate(171.2473030090332,86.86577892303467)"/>
<path d="M0 0 C1.68487634 -0.00346301 3.3697504 -0.00823187 5.05461979 -0.01418173 C9.65205496 -0.02663304 14.2493018 -0.02054826 18.84673738 -0.01122308 C23.81750505 -0.00440873 28.78824134 -0.0149256 33.75900269 -0.02316284 C43.48391499 -0.03647698 53.20875768 -0.03363278 62.93367267 -0.02492492 C70.83991233 -0.01813964 78.74613253 -0.0172353 86.65237427 -0.02049637 C87.77920689 -0.02095607 88.90603951 -0.02141577 90.06701857 -0.0218894 C92.35642013 -0.02284861 94.64582168 -0.02382125 96.93522322 -0.02480717 C118.38442926 -0.03335427 139.83359678 -0.0235376 161.2827965 -0.00740607 C179.67251838 0.00599648 198.06218344 0.0036682 216.4519043 -0.01016235 C237.82628915 -0.02623017 259.20064028 -0.03253036 280.57503033 -0.02332556 C282.85583686 -0.02236995 285.1366434 -0.02142684 287.41744995 -0.02049637 C289.10058929 -0.01980213 289.10058929 -0.01980213 290.81773144 -0.01909386 C298.71110697 -0.01650758 306.60446104 -0.02086716 314.49783325 -0.02793503 C324.12202961 -0.03636357 333.74615259 -0.0340414 343.37034059 -0.0180928 C348.27727816 -0.01022834 353.18409355 -0.0070873 358.09103012 -0.01704025 C362.58903821 -0.02602553 367.08681168 -0.02099156 371.58479869 -0.0051076 C373.2057589 -0.00177596 374.82673921 -0.00341713 376.44768631 -0.01073496 C390.07200569 -0.06749041 402.01719748 1.51756086 414.03491211 8.38095093 C414.03491211 12.00624656 413.49648446 12.29585516 411.02304459 14.7759285 C410.35118284 15.45684689 409.67932108 16.13776528 408.98709989 16.83931756 C407.86127566 17.95714989 407.86127566 17.95714989 406.71270752 19.0975647 C405.9248816 19.89148172 405.13705568 20.68539875 404.32535625 21.50337386 C401.66571202 24.17975621 398.99536682 26.84520177 396.32495117 29.51083374 C394.42264901 31.42047036 392.52093418 33.33067623 390.61988831 35.24156189 C385.97818507 39.90436211 381.32821205 44.55883029 376.67505977 49.21020254 C372.88995618 52.99399949 369.10741473 56.78033914 365.32668304 60.56850433 C364.23829946 61.65898713 363.14991507 62.74946913 362.06152987 63.83995032 C361.51979769 64.38272603 360.97806551 64.92550175 360.4199172 65.48472521 C350.16204962 75.76151576 339.89420051 86.02828911 329.62346062 96.29221246 C320.24100025 105.66910826 310.87177289 115.05910005 301.5086911 124.45534244 C291.89044032 134.10739162 282.26287231 143.75005808 272.6254003 153.38291621 C267.21676536 158.78931107 261.81189838 164.19934757 256.41687775 169.61933136 C251.81875723 174.23854564 247.2119039 178.84883168 242.59381935 183.44809017 C240.24068502 185.79211215 237.89314658 188.14107089 235.55358315 190.49868202 C220.99202956 205.16474389 207.83967751 216.96641873 186.09741211 217.88095093 C162.28150748 216.887286 148.69658427 203.77506591 132.7722168 187.68588257 C130.85175815 185.76121803 128.92751881 183.84034931 127.00343323 181.91931152 C122.87839337 177.79688066 118.76253417 173.66546847 114.65294647 169.52763557 C108.7113353 163.5452146 102.75579954 157.57681362 96.7968848 151.61163395 C87.12698519 141.93081845 77.46828085 132.23891366 67.81665039 122.53988647 C58.44656959 113.12383982 49.07119903 103.71311181 39.6887207 94.30941772 C39.10940925 93.72879265 38.53009779 93.14816758 37.93323144 92.54994781 C35.0266715 89.6368622 32.12000783 86.7238801 29.2132926 83.81094944 C5.13773202 59.68364019 -18.91964316 35.53827383 -42.96508789 11.38095093 C-31.97120479 0.01578489 -14.75147327 -0.06659616 0 0 Z " fill="#4BB1D3" transform="translate(186.965087890625,121.61904907226563)"/>
<path d="M0 0 C2.85747552 1.29811365 4.91737731 2.66799656 7.13152695 4.88543129 C7.72818499 5.47810724 8.32484304 6.07078319 8.93958163 6.68141901 C9.58550053 7.33316359 10.23141943 7.98490817 10.89691162 8.65640259 C11.59044967 9.34823179 12.28398772 10.04006099 12.99854207 10.7528547 C15.32640145 13.07741402 17.64703022 15.40906042 19.96777344 17.74072266 C21.63293738 19.4064506 23.29854157 21.07173856 24.96455383 22.73661804 C29.49138964 27.26287891 34.01202294 31.79528953 38.53159237 36.32880449 C42.7751932 40.58457736 47.02434656 44.834804 51.27300778 49.08552365 C59.68803842 57.5049313 68.09859325 65.92879539 76.50634766 74.35546875 C84.67360013 82.54107987 92.84295101 90.72458733 101.01513672 98.90527344 C101.51888808 99.40955024 102.02263944 99.91382705 102.54165599 100.43338497 C105.06884707 102.96318613 107.5960795 105.49294598 110.1233325 108.02268529 C131.08863629 129.00872176 152.04660912 150.00206898 173 171 C160.43782423 180.62897588 144.44131401 180.30035665 129.30065918 180.25396729 C127.64465813 180.25627609 125.98865811 180.25945542 124.3326602 180.26342177 C119.81507034 180.27172075 115.29756569 180.26766693 110.77997565 180.26144934 C105.89510525 180.25690568 101.01024902 180.26391807 96.12538147 180.26940918 C86.56892566 180.27828445 77.01250134 180.27638949 67.45604432 180.2705839 C59.68663089 180.26606006 51.91722626 180.26545763 44.14781189 180.26763153 C43.0404068 180.267938 41.93300171 180.26824446 40.79203889 180.26856022 C38.54209633 180.26919969 36.29215378 180.26984812 34.04221123 180.2705054 C12.96355925 180.27620323 -8.11507532 180.26965939 -29.19372445 180.25890467 C-47.2650633 180.24996966 -65.33637646 180.25152185 -83.40771484 180.26074219 C-104.4129305 180.27145448 -125.4181309 180.27565396 -146.4233489 180.26951766 C-148.66483656 180.26888059 -150.90632423 180.26825185 -153.14781189 180.26763153 C-154.25055601 180.26732298 -155.35330013 180.26701443 -156.48946074 180.26669653 C-164.24607509 180.26497247 -172.00267975 180.26787846 -179.7592926 180.27259064 C-189.21695404 180.27821013 -198.67458229 180.27666057 -208.13223994 180.26602915 C-212.95409383 180.26078682 -217.77589246 180.2586911 -222.5977459 180.26532745 C-227.01798953 180.27131889 -231.43812707 180.26795946 -235.85836118 180.25737235 C-237.45105906 180.2551518 -239.04376603 180.25624409 -240.63645798 180.26112393 C-252.46847055 180.29457424 -264.24853222 179.99511842 -275.3125 175.375 C-276.94638672 174.70597656 -276.94638672 174.70597656 -278.61328125 174.0234375 C-279.40089844 173.68570313 -280.18851563 173.34796875 -281 173 C-275.88357631 166.81325285 -270.30301748 161.16115938 -264.62353516 155.49414062 C-263.58125001 154.45049814 -262.53917721 153.40664354 -261.49729919 152.3625946 C-258.68341926 149.5441794 -255.86641365 146.72890831 -253.04867601 143.91435051 C-250.08940865 140.95762768 -247.13259648 137.99845116 -244.17538452 135.03967285 C-239.20921441 130.07168686 -234.24094761 125.10580501 -229.27148438 120.14111328 C-223.5415403 114.4166077 -217.81520332 108.68851284 -212.09073222 102.95853472 C-207.16074017 98.0239914 -202.22878539 93.09141615 -197.29521215 88.16045332 C-194.35524537 85.22203863 -191.41594183 82.28296904 -188.47841263 79.34211731 C-185.71455911 76.57535584 -182.94823389 73.81108883 -180.18005562 71.04865456 C-179.16985855 70.03976962 -178.1604926 69.03005162 -177.15206337 68.01939964 C-172.15232239 63.00966319 -167.11353582 58.12751101 -161.74255943 53.51685143 C-159.25356662 51.35024969 -156.92351509 49.04310758 -154.59375 46.70727539 C-154.11465683 46.22832825 -153.63556366 45.7493811 -153.14195251 45.25592041 C-151.59224645 43.70552945 -150.04609175 42.15165074 -148.5 40.59765625 C-147.41306197 39.50884896 -146.32589985 38.42026534 -145.23852539 37.33189392 C-142.40216777 34.49175111 -139.56882836 31.6486164 -136.73614502 28.80480957 C-133.83505747 25.89342109 -130.93107287 22.98492533 -128.02734375 20.07617188 C-122.34875182 14.3869133 -116.67335084 8.69448501 -111 3 C-109.72044427 3.95953442 -108.44090677 4.91909314 -107.16137695 5.87866211 C-106.44883255 6.41301376 -105.73628815 6.94736542 -105.00215149 7.49790955 C-103.47340739 8.64483171 -101.94549995 9.79286917 -100.41796875 10.94140625 C-83.95654852 22.90548575 -64.38577428 27.17905061 -44.26953125 24.50390625 C-26.6265949 21.0379798 -12.63817818 12.63817818 0 0 Z " fill="#5285DD" transform="translate(429,332)"/>
<path d="M0 0 C3.44902653 3.35933637 5.97237345 6.23960242 8.125 10.5625 C8.84042969 11.95662109 8.84042969 11.95662109 9.5703125 13.37890625 C13.20917223 22.59536246 14.44549156 31.45679872 14.43237305 41.31176758 C14.44255337 42.49120343 14.45273369 43.67063929 14.4632225 44.88581562 C14.48814615 48.12330879 14.50004518 51.36052973 14.50606036 54.59810305 C14.51575068 58.10272942 14.54237761 61.60723588 14.56666565 65.11178589 C14.61133479 71.96118415 14.63991127 78.81055778 14.66244179 85.66006112 C14.68100641 91.22942918 14.70530959 96.79874521 14.73352051 102.36807251 C14.82622335 120.74498596 14.89821232 139.12187291 14.9521656 157.49894047 C14.98516893 168.67579757 15.02592146 179.85259962 15.07197845 191.02941024 C15.13695603 206.83055253 15.18889835 222.63166574 15.21979427 238.43291378 C15.222914 240.02765338 15.22603473 241.62239297 15.22915649 243.21713257 C15.2306765 244.00154734 15.2321965 244.78596211 15.23376256 245.59414703 C15.24505277 251.10068344 15.26330512 256.60717075 15.28427124 262.11367798 C15.30959801 268.83049188 15.32378838 275.54722314 15.32403928 282.26408648 C15.32440104 285.68492239 15.32936874 289.10557181 15.3475666 292.52636337 C15.36464879 296.24517734 15.36285392 299.96353555 15.35644531 303.68237305 C15.36566356 304.74688092 15.3748818 305.8113888 15.38437939 306.90815449 C15.32571742 317.56836219 13.37882832 327.80876751 8.0625 337.125 C7.72798828 337.75664062 7.39347656 338.38828125 7.04882812 339.0390625 C5.00137246 342.76314371 3.51030956 344.36726783 0 347 C-56.76 290.24 -113.52 233.48 -172 175 C-170.25396438 171.50792877 -169.09623873 169.84946607 -166.42781067 167.19403076 C-165.68631775 166.45123367 -164.94482483 165.70843658 -164.18086243 164.94313049 C-162.95982063 163.73523109 -162.95982063 163.73523109 -161.71411133 162.50292969 C-160.85699554 161.64712814 -159.99987976 160.7913266 -159.11679077 159.90959167 C-157.25342133 158.05048721 -155.38834191 156.19331161 -153.52005959 154.33916473 C-150.55986695 151.40129167 -147.60682705 148.45629832 -144.65470886 145.51031494 C-139.97782084 140.84480728 -135.29628824 136.18399235 -130.61270398 131.52520776 C-122.24346209 123.20022248 -113.87965442 114.86978744 -105.5212118 106.53395963 C-102.59209448 103.61319763 -99.66019276 100.69526926 -96.72594321 97.77966356 C-94.45963529 95.52661363 -92.1965547 93.27032479 -89.93286133 91.01464844 C-88.72700127 89.81889442 -88.72700127 89.81889442 -87.4967804 88.59898376 C-83.39711249 84.50753945 -79.49118094 80.32763971 -75.71215153 75.93953323 C-72.75277349 72.58713599 -69.58181364 69.45119872 -66.41235352 66.29882812 C-65.68956711 65.57589569 -64.9667807 64.85296326 -64.22209167 64.10812378 C-61.86006209 61.7467844 -59.49452287 59.38899535 -57.12890625 57.03125 C-55.47959367 55.38380478 -53.83050343 53.73613694 -52.18162537 52.08825684 C-47.86188328 47.77231493 -43.53914547 43.45938583 -39.21575928 39.14709473 C-34.79630959 34.73791314 -30.37972402 30.32586464 -25.96289062 25.9140625 C-17.31138144 17.27324651 -8.65670212 8.63561329 0 0 Z " fill="#5285DD" transform="translate(616,144)"/>
<path d="M0 0 C2.87374749 1.30380717 4.93660341 2.68724359 7.16276169 4.91666603 C7.76638653 5.51630877 8.37001136 6.11595151 8.99192786 6.73376524 C9.64562865 7.39329172 10.29932945 8.0528182 10.97283936 8.73233032 C11.67454451 9.43232663 12.37624966 10.13232293 13.09921861 10.85353124 C15.45471686 13.2057292 17.80298493 15.56501553 20.15136719 17.92431641 C21.83623532 19.60974853 23.52154368 21.29474068 25.20726013 22.97932434 C29.31194266 27.08349164 33.41200364 31.19223385 37.51006857 35.30300809 C42.27883219 40.08606613 47.05324185 44.86347149 51.82801417 49.64053003 C60.34287332 58.15976626 68.8532567 66.6834591 77.36083984 75.20996094 C85.62509763 83.49257718 93.8914537 91.77308993 102.16064453 100.05078125 C102.67036988 100.56103205 103.18009523 101.07128284 103.7052668 101.59699579 C106.26242603 104.15676509 108.81962661 106.71649308 111.37684774 109.27620053 C132.59097996 130.51106565 153.79778015 151.75324042 175 173 C173.13030573 177.04926399 170.44619678 179.83023016 167.30856323 182.93867493 C166.72038382 183.52926876 166.1322044 184.11986259 165.52620137 184.7283532 C163.5519839 186.70821097 161.57069227 188.68083325 159.58935547 190.65356445 C158.17306479 192.07092799 156.75720715 193.48872435 155.3417511 194.90692139 C151.49272401 198.76080145 147.63746552 202.60839229 143.78094625 206.45477319 C139.74416388 210.48277428 135.7126522 214.51604425 131.68045044 218.54862976 C124.90300196 225.32514111 118.12168935 232.09776597 111.33789062 238.86791992 C103.50484473 246.68526831 95.67700907 254.50780239 87.85217559 262.33337051 C79.51525783 270.67096519 71.17452992 279.0047403 62.83268976 287.33740973 C60.43397559 289.73399697 58.03596882 292.13129007 55.63811874 294.52874184 C51.85992597 298.3059259 48.07917794 302.0805343 44.29648399 305.85321045 C42.91218558 307.23460125 41.52871665 308.61682388 40.14616203 309.99995995 C27.50114422 322.64828145 27.50114422 322.64828145 21.4833622 327.74136734 C19.46079118 329.45751862 17.58585883 331.30092568 15.71875 333.18359375 C15.02265625 333.88291016 14.3265625 334.58222656 13.609375 335.30273438 C12.91328125 336.00720703 12.2171875 336.71167969 11.5 337.4375 C10.77296875 338.16904297 10.0459375 338.90058594 9.296875 339.65429688 C7.52890501 341.43389824 5.76333622 343.21580918 4 345 C-6.3140834 335.08731071 -11.55939467 321.8145778 -12.09212112 307.52982521 C-12.13004195 304.5445963 -12.13508152 301.5609075 -12.12939453 298.57543945 C-12.13111853 297.43098862 -12.13284252 296.28653778 -12.13461876 295.10740662 C-12.13897775 291.2760172 -12.13599899 287.4446713 -12.1328125 283.61328125 C-12.13326247 281.56556219 -12.13446193 279.51784454 -12.13576198 277.47012585 C-12.14090221 269.30728473 -12.13631664 261.14446662 -12.12897491 252.98162842 C-12.12479991 248.31856324 -12.12248647 243.6554981 -12.12030029 238.99243164 C-12.09621146 192.31091801 -11.9537282 145.62982262 -11.66626704 98.9491784 C-11.63337585 93.55220437 -11.6051073 88.15521837 -11.57867432 82.75820923 C-11.54620197 76.17234814 -11.50642842 69.58657769 -11.45741057 63.00081819 C-11.43253398 59.64519927 -11.4114722 56.28968308 -11.3966217 52.9339962 C-11.37975776 49.28659665 -11.35082438 45.63948158 -11.31884766 41.9921875 C-11.3166881 40.94586308 -11.31452854 39.89953867 -11.31230354 38.82150745 C-11.15428779 24.7830365 -8.57769426 11.43692568 0 0 Z " fill="#5285DD" transform="translate(129,147)"/>
<path d="M0 0 C3.44902653 3.35933637 5.97237345 6.23960242 8.125 10.5625 C8.84042969 11.95662109 8.84042969 11.95662109 9.5703125 13.37890625 C13.5322958 23.41376558 14.42919591 32.86008897 14.34057617 43.58105469 C14.33965483 45.02428793 14.34006161 46.46752252 14.34167194 47.91075516 C14.34234293 51.73897165 14.32508968 55.56690077 14.30384064 59.39505005 C14.28662135 63.00116781 14.28594404 66.6072194 14.28381348 70.21337891 C14.26813747 80.72562327 14.22625365 91.23781538 14.1875 101.75 C14.125625 125.2625 14.06375 148.775 14 173 C-47.05 173 -108.1 173 -171 173 C-164.25025698 165.12529981 -164.25025698 165.12529981 -161.13661194 162.02308655 C-160.43169113 161.31823624 -159.72677032 160.61338593 -159.00048828 159.88717651 C-157.87114868 158.7655864 -157.87114868 158.7655864 -156.71899414 157.62133789 C-155.9100621 156.81386612 -155.10113007 156.00639435 -154.26768494 155.17445374 C-152.52061127 153.43116909 -150.77238382 151.68904012 -149.02311897 149.94795418 C-146.25011664 147.18777872 -143.48030548 144.42443623 -140.71128845 141.66026306 C-134.33276342 135.29373023 -127.94922171 128.93223533 -121.56560516 122.57080841 C-115.24586301 116.27292574 -108.92813689 109.97303734 -102.61379814 103.66973686 C-99.89335048 100.95574209 -97.16989328 98.24479262 -94.44630432 95.53395081 C-92.76752066 93.85880208 -91.08887859 92.18351144 -89.41040039 90.50805664 C-88.28409714 89.38950287 -88.28409714 89.38950287 -87.13504028 88.24835205 C-83.16489367 84.27860089 -79.39649555 80.20833633 -75.73051929 75.9573431 C-72.76291171 72.60076322 -69.58793108 69.45728318 -66.41235352 66.29882812 C-65.68956711 65.57589569 -64.9667807 64.85296326 -64.22209167 64.10812378 C-61.86006209 61.7467844 -59.49452287 59.38899535 -57.12890625 57.03125 C-55.47959367 55.38380478 -53.83050343 53.73613694 -52.18162537 52.08825684 C-47.86188328 47.77231493 -43.53914547 43.45938583 -39.21575928 39.14709473 C-34.79630959 34.73791314 -30.37972402 30.32586464 -25.96289062 25.9140625 C-17.31138144 17.27324651 -8.65670212 8.63561329 0 0 Z " fill="#4BB1D3" transform="translate(616,144)"/>
<path d="M0 0 C2.83979788 1.29203235 4.89796839 2.64813295 7.10029221 4.85140324 C7.68998346 5.4364957 8.27967472 6.02158816 8.8872354 6.62441069 C9.5253724 7.26769125 10.1635094 7.91097181 10.82098389 8.57374573 C11.50635483 9.25670226 12.19172577 9.93965878 12.89786553 10.64331096 C15.19808951 12.93788954 17.49108253 15.23956057 19.78417969 17.54125977 C21.42964672 19.18565416 23.07554656 20.82961557 24.72184753 22.47317505 C29.19507121 26.94154543 33.66201032 31.41615058 38.12773418 35.89201474 C42.32167029 40.09383201 46.51990419 44.29134743 50.7180014 48.48900663 C59.03340477 56.80390944 67.34396765 65.1236335 75.65185547 73.44604492 C83.72081703 81.52910516 91.79328365 89.60864339 99.86962891 97.68432617 C100.61629496 98.43093229 100.61629496 98.43093229 101.37804517 99.19262136 C101.87494782 99.68948365 102.37185046 100.18634594 102.88381076 100.69826466 C111.605454 109.41925383 120.32419693 118.14313633 129.04135895 126.86860466 C132.75829897 130.58908508 136.476096 134.30870604 140.19454193 138.02768135 C144.56677012 142.40091017 148.93645289 146.77666648 153.30413246 151.15443802 C154.91259605 152.7658353 156.52192005 154.37637423 158.13213921 155.98601723 C160.31939763 158.17278893 162.50358099 160.36258457 164.68695068 162.55323792 C165.33401057 163.1987492 165.98107046 163.84426048 166.64773822 164.50933272 C171 168.88582132 171 168.88582132 171 170 C110.94 170 50.88 170 -11 170 C-11.04125 147.1475 -11.0825 124.295 -11.125 100.75 C-11.14320801 93.55026367 -11.16141602 86.35052734 -11.18017578 78.93261719 C-11.18920898 70.10009766 -11.18920898 70.10009766 -11.19088745 65.95733643 C-11.19274101 63.08116533 -11.20019692 60.20506903 -11.21115112 57.32891846 C-11.22498514 53.64722158 -11.2289611 49.96563169 -11.22614455 46.28391123 C-11.22700752 44.3126767 -11.2376739 42.34145369 -11.2488575 40.3702507 C-11.21502666 25.73215798 -8.97731881 11.96975841 0 0 Z " fill="#4BB1D3" transform="translate(129,147)"/>
<path d="M0 0 C1.2758622 -0.01226624 1.2758622 -0.01226624 2.57749939 -0.02478027 C5.39955944 -0.04964522 8.22156917 -0.06615272 11.04370117 -0.08056641 C12.00649176 -0.08589008 12.96928234 -0.09121376 13.9612484 -0.09669876 C19.0568398 -0.12343461 24.15240665 -0.14280847 29.24804688 -0.15722656 C34.51425571 -0.17387925 39.77983933 -0.21866101 45.04581165 -0.26959801 C49.0924299 -0.30323454 53.13889906 -0.31480003 57.18564415 -0.32045364 C59.12694771 -0.32717563 61.06824115 -0.34242223 63.00940895 -0.36634445 C65.72684486 -0.39792333 68.44258543 -0.39804398 71.16015625 -0.390625 C72.36277603 -0.415233 72.36277603 -0.415233 73.58969116 -0.44033813 C77.67920642 -0.39464059 79.53254256 -0.00028158 82.7688446 2.58676147 C84.82255514 5.25575226 85.47915371 6.38260758 85.46166992 9.69287109 C85.48616211 10.42505859 85.5106543 11.15724609 85.53588867 11.91162109 C84.36078383 15.43090944 81.8863905 17.36778473 78.77416992 19.19287109 C75.9284225 19.87947159 73.19476744 19.85804247 70.27783203 19.80810547 C69.44618027 19.81365448 68.6145285 19.81920349 67.75767517 19.82492065 C65.0216931 19.83668594 62.28737869 19.81247636 59.55151367 19.78662109 C57.64392675 19.78490923 55.73633748 19.78497644 53.82875061 19.78674316 C49.836613 19.78509175 45.84503819 19.76642499 41.85302734 19.73486328 C36.73947349 19.6951594 31.62665542 19.6908223 26.51297665 19.69832611 C22.57610856 19.70139728 18.63940547 19.68927048 14.70257759 19.67219543 C12.81715492 19.66517178 10.93171356 19.66204013 9.046278 19.66288757 C6.41087991 19.6610873 3.77635936 19.63968699 1.14111328 19.61279297 C0.36435242 19.61572357 -0.41240845 19.61865417 -1.21270752 19.62167358 C-5.7203148 19.55079659 -8.66012657 19.01083316 -12.22583008 16.19287109 C-14.71742048 12.4554855 -14.68376292 10.61955527 -14.22583008 6.19287109 C-10.19067052 0.00562644 -6.95908728 0.03669801 0 0 Z " fill="#FFFFFF" transform="translate(403.225830078125,160.80712890625)"/>
<path d="M0 0 C28.71 0 57.42 0 87 0 C76.00023711 12.8330567 64.22592154 20.42582016 47.140625 22.31640625 C32.4583232 22.93147565 18.00552892 18.13949544 7.0390625 8.359375 C4.60204226 5.97013947 2.23395295 3.57991911 0 1 C0 0.67 0 0.34 0 0 Z " fill="#5285DD" transform="translate(329,317)"/>
</svg>
