<?xml version="1.0" encoding="UTF-8"?>
<svg version="1.1" xmlns="http://www.w3.org/2000/svg" width="748" height="632">
<path d="M0 0 C3.65684872 0.010281 7.31366165 0.00069321 10.97051239 -0.00554466 C17.10616633 -0.01277792 23.24162633 -0.00334819 29.37725067 0.01581764 C36.42392716 0.03757814 43.47014035 0.03052367 50.51680565 0.00851202 C56.61761566 -0.00976654 62.71828798 -0.01214013 68.81911659 -0.0017333 C72.44068341 0.00443392 76.06203407 0.0055282 79.68358612 -0.00787926 C109.0556727 -0.10179246 133.0299986 3.88534938 155.1838913 24.86152077 C162.01241804 31.90600995 166.98253083 39.37597312 171.2151413 48.16230202 C171.545383 48.84236305 171.87562469 49.52242409 172.21587372 50.22309303 C173.95966503 54.03789323 175.09634964 57.67795978 175.87944794 61.80439186 C176.0503746 62.69395576 176.22130127 63.58351967 176.39740753 64.50004005 C176.58562325 65.50848473 176.58562325 65.50848473 176.7776413 66.53730202 C178.03586449 66.53361485 179.29408768 66.52992767 180.59043884 66.52612877 C210.51347733 66.43934302 240.43648314 66.37346295 270.35961679 66.3330407 C274.04925148 66.32803837 277.73888591 66.32286103 281.4285202 66.31757545 C282.53024753 66.31600159 282.53024753 66.31600159 283.65423197 66.31439593 C295.51924023 66.29702975 307.38417032 66.26551315 319.24913234 66.22869083 C331.43977849 66.19117563 343.63038394 66.1690439 355.82108545 66.16094804 C363.33267059 66.15548209 370.84403469 66.13827079 378.35555172 66.10563615 C384.13265503 66.08182801 389.90961931 66.07950868 395.68676186 66.08487129 C398.04406398 66.08377741 400.40137505 66.07590915 402.75862694 66.06048012 C429.42254877 65.89462313 451.69472049 71.75573129 471.66436005 90.33808327 C488.90109828 108.27576095 496.02417787 130.85543637 495.87529755 155.38495827 C495.8738826 156.28226158 495.87246765 157.1795649 495.87100983 158.10405922 C495.8654664 160.93600916 495.85292488 163.76787647 495.8401413 166.59980202 C495.83511897 168.53404566 495.83055735 170.46829055 495.82646942 172.40253639 C495.81551558 177.11415618 495.79829082 181.82571515 495.7776413 186.53730202 C496.89622528 186.51635475 498.01480927 186.49540749 499.16728973 186.47382545 C503.37174607 186.4006757 507.57614782 186.35523363 511.78105927 186.31757545 C513.59072623 186.2976289 515.40033018 186.27046149 517.2097702 186.2355442 C531.86210611 185.96015481 543.88717087 187.08472302 555.7776413 196.53730202 C556.39252411 197.0155442 557.00740692 197.49378639 557.64092255 197.98652077 C566.20189914 205.52245803 570.98684378 217.7360186 571.9885788 228.88495827 C572.4797154 240.80446594 567.66699481 252.09021125 563.5354538 263.05292702 C563.014216 264.45046196 562.49354527 265.84820851 561.9733963 267.24614906 C560.5803627 270.98512061 559.17940857 274.72107703 557.77685928 278.45648766 C556.29725885 282.40135495 554.82514973 286.34901672 553.35210419 290.29633522 C550.10475374 298.99391996 546.84673092 307.68748321 543.58647156 316.38023567 C541.91079872 320.8490812 540.23738246 325.31877195 538.56351471 329.78829384 C537.27980107 333.2150978 535.99500423 336.64149403 534.71001434 340.0678196 C533.04512473 344.50772821 531.38422018 348.94909887 529.72612762 353.39155006 C525.74201108 364.05298169 521.72754956 374.70010785 517.613307 385.31194401 C515.27576612 391.34219613 512.95787862 397.37979078 510.65132618 403.42196178 C509.25339906 407.08000919 507.84524346 410.73328577 506.40969086 414.37674904 C500.14185118 430.30089905 495.3676096 444.92857573 494.91283417 462.24633217 C493.76790588 481.64821456 481.19935585 501.03721779 467.59404755 514.12323952 C448.62053662 530.38624888 426.50272386 535.0189671 402.11164093 534.91825294 C400.26630962 534.92171658 398.42098038 534.92648584 396.5756554 534.93243468 C391.54387475 534.94487755 386.51226633 534.93880506 381.48048532 534.92947602 C376.03866282 534.92265814 370.59686891 534.93318032 365.15505219 534.94141579 C354.50965001 534.95472644 343.86431145 534.9518872 333.21890683 534.94317786 C324.56331325 534.93639086 315.90773743 534.935489 307.25214195 534.93874931 C306.01820739 534.93920901 304.78427283 534.93966871 303.51294632 534.94014234 C301.00588202 534.94110156 298.49881774 534.9420742 295.99175345 534.94306011 C273.17459612 534.95136287 250.35746933 534.94276578 227.54031777 534.92703232 C206.74009393 534.91279864 185.9399252 534.91406931 165.13970184 534.9284153 C141.73670372 534.94450272 118.33373605 534.95078064 94.93073314 534.94157851 C92.43280757 534.94062291 89.93488199 534.93967979 87.43695641 534.93874931 C86.20807533 534.93828649 84.97919425 534.93782366 83.71307435 534.93734681 C75.07318228 534.93476176 66.43330982 534.93911748 57.79342079 534.94618797 C47.25661188 534.95462162 36.71986998 534.95228375 26.1830687 534.93634574 C20.81196307 534.92848786 15.44096896 534.92532889 10.06986427 534.9352932 C5.14433883 534.94429233 0.21902733 534.93922201 -4.70647896 534.92336054 C-6.4795181 534.92003468 -8.25257565 534.92165674 -10.02560275 534.92898791 C-25.62242473 534.98848468 -39.98589562 533.49602137 -54.2223587 526.53730202 C-55.12212433 526.1183567 -56.02188995 525.69941139 -56.9489212 525.26777077 C-76.51282727 515.48581773 -90.30665466 497.777848 -97.5973587 477.41230202 C-100.97486502 465.93526014 -101.51586628 454.50683756 -101.48305511 442.62415504 C-101.48608198 441.05350033 -101.48997412 439.48284708 -101.49464768 437.9121964 C-101.50486764 433.63036296 -101.50276129 429.34861381 -101.49846709 425.06677365 C-101.49598886 420.4354045 -101.50502761 415.80405507 -101.51250458 411.17269325 C-101.52522355 402.1122095 -101.52704874 393.05175543 -101.52470431 383.99126425 C-101.52291774 376.6223422 -101.52467806 369.25342912 -101.52892876 361.88450813 C-101.52952395 360.83376516 -101.53011913 359.78302218 -101.53073236 358.70043851 C-101.53194418 356.56549889 -101.53315831 354.43055926 -101.53437474 352.29561964 C-101.54523963 332.29462608 -101.54309285 312.2936494 -101.53698989 292.2926549 C-101.53182251 274.02084113 -101.54307335 255.74908071 -101.56208811 237.47727749 C-101.58149047 218.68806261 -101.58971825 199.89887294 -101.58596486 181.10964799 C-101.58405635 170.57208453 -101.58650612 160.03456644 -101.6006794 149.49701118 C-101.61262482 140.52547118 -101.6139628 131.55400449 -101.60188923 122.58246341 C-101.59602249 118.01121787 -101.5948396 113.44010621 -101.60689163 108.86886978 C-101.61782509 104.67288814 -101.61455955 100.47715098 -101.60062995 96.28118041 C-101.59800336 94.77454711 -101.6002843 93.26789418 -101.60836581 91.76128027 C-101.73054363 67.25579356 -95.45231215 43.82566188 -78.32782745 25.52558327 C-70.8888647 18.50066297 -63.13397836 12.57523213 -53.9098587 8.09980202 C-53.29642609 7.7942942 -52.68299347 7.48878639 -52.05097198 7.17402077 C-35.3891519 -0.40067642 -17.90295419 -0.06627907 0 0 Z M509.7776413 205.53730202 C509.80215111 206.95665047 509.80215111 206.95665047 509.82715607 208.40467262 C510.02739249 220.69863655 510.10033885 232.99175492 510.0901413 245.28730202 C510.08901777 246.77886377 510.08901777 246.77886377 510.08787155 248.30055809 C510.02120058 281.82461476 506.856541 313.75275285 500.35112762 346.61640358 C500.20189976 347.37428012 500.05267189 348.13215666 499.89892197 348.91299915 C499.20568322 352.4189096 498.4948171 355.91841406 497.73397064 359.41030312 C495.82506777 368.59253659 495.46774148 377.21391986 495.7776413 386.53730202 C497.63528288 383.75083965 498.67838255 381.42126986 499.84282684 378.30561256 C500.24977783 377.22235695 500.65672882 376.13910133 501.07601166 375.02301979 C501.51766663 373.83535011 501.95932159 372.64768044 502.41436005 371.42402077 C502.88652885 370.16246909 503.35902004 368.90103803 503.83181 367.63971901 C505.11348967 364.21728698 506.39025784 360.79304146 507.66605759 357.36841393 C508.73389839 354.50383761 509.8045589 351.64031894 510.87525463 348.77680874 C519.68953748 325.20276638 528.45279579 301.60960338 537.20024872 278.01069069 C537.6536412 276.78763725 538.10703369 275.56458382 538.57416534 274.30446815 C539.44885723 271.94164107 540.32190713 269.57820537 541.19315338 267.21410561 C543.07772636 262.10232447 544.97640267 256.99868357 546.94512177 251.91864967 C547.43697212 250.63345184 547.43697212 250.63345184 547.93875885 249.32229042 C548.52666022 247.78930367 549.12358669 246.25972178 549.73285675 244.7351017 C552.63705584 237.10769432 553.87599535 229.46176811 550.8557663 221.70527077 C547.29545751 214.54595419 542.68411063 209.70419699 535.3010788 206.44355202 C530.312538 205.16046835 525.52897956 205.32631183 520.4026413 205.41230202 C519.38041473 205.42132545 518.35818817 205.43034889 517.30498505 205.43964577 C514.79562608 205.46309772 512.28675793 205.49591846 509.7776413 205.53730202 Z " fill="#5285DD" transform="translate(139.22235870361328,56.462697982788086)"/>
<path d="M0 0 C1.37979219 -0.00131122 2.75958364 -0.00394343 4.13937116 -0.0077675 C7.89767921 -0.01442246 11.655727 -0.00254943 15.41400194 0.01256669 C19.47926808 0.02559556 23.54452108 0.02113277 27.60980225 0.01885986 C34.64215282 0.01729143 41.67441949 0.02665545 48.70674896 0.04357338 C58.87413953 0.06801744 69.04148979 0.07577417 79.20890656 0.07953735 C95.70726682 0.08609338 112.20558242 0.10603144 128.70391846 0.13444519 C144.72474953 0.16200778 160.74556844 0.18323058 176.76641846 0.19596863 C178.24921323 0.19715088 178.24921323 0.19715088 179.76196346 0.19835702 C184.72142742 0.20227231 189.68089148 0.20606339 194.64035559 0.20979273 C235.74458207 0.24086218 276.84875942 0.29367479 317.95294189 0.36076355 C319.62436408 95.2579345 319.62436408 95.2579345 310.65802002 141.28977966 C309.86703644 145.47731531 309.1701402 149.67865481 308.46990299 153.88215542 C303.36060943 184.29504613 294.31921672 212.31084953 282.9197979 240.91736031 C281.03119944 245.69015749 279.22240787 250.49308879 277.40548706 255.29350281 C272.93596381 267.07360452 266.79218799 280.13459949 255.95294189 287.36076355 C253.93793398 287.55859041 251.91416602 287.67304981 249.89044189 287.73576355 C244.44565324 288.06702835 240.44183288 289.14006633 235.51544189 291.37638855 C231.55808094 292.89659428 227.50832066 293.39589027 223.32403564 293.9662323 C221.00371422 294.1161727 221.00371422 294.1161727 219.95294189 295.36076355 C217.90428065 295.45360007 215.85234394 295.47417289 213.80158901 295.46819401 C213.14872293 295.46765948 212.49585684 295.46712495 211.82320693 295.46657422 C209.60831215 295.4635161 207.39350736 295.45323242 205.17863464 295.4430542 C203.58559958 295.43936386 201.99256345 295.43611371 200.39952666 295.43326896 C196.0007577 295.42412692 191.60202928 295.40869257 187.20328224 295.39228618 C182.46775026 295.37570673 177.73220485 295.36488391 172.99665833 295.3533783 C164.78495561 295.33263133 156.57327039 295.3081997 148.36158562 295.28129768 C136.48872316 295.24240669 124.6158503 295.2090226 112.74296755 295.17700242 C93.48213611 295.12490711 74.22132053 295.06832969 54.96051025 295.00895691 C36.24534727 294.95127567 17.53018 294.89569086 -1.18499756 294.84294128 C-2.91407391 294.83806671 -2.91407391 294.83806671 -4.6780811 294.83309365 C-10.46066188 294.8168045 -16.24324276 294.80055672 -22.02582371 294.78432953 C-70.0329214 294.64955749 -118.03999566 294.50752128 -166.04705811 294.36076355 C-165.43750731 293.55869319 -165.43750731 293.55869319 -164.81564236 292.74041939 C-164.01154729 291.67658689 -164.01154729 291.67658689 -163.19120789 290.59126282 C-162.66109069 289.89154924 -162.13097349 289.19183567 -161.58479214 288.47091866 C-159.35564785 285.41197602 -157.45372983 282.21908906 -155.61346436 278.91545105 C-155.03865074 277.88567642 -155.03865074 277.88567642 -154.45222473 276.83509827 C-150.33881392 269.29953791 -147.12241032 261.46519634 -143.98455811 253.48576355 C-143.34290812 251.87650614 -142.70072148 250.26746262 -142.05804443 248.65861511 C-140.03189442 243.56805455 -138.03474735 238.46644907 -136.04705811 233.36076355 C-135.72374512 232.53048645 -135.40043213 231.70020935 -135.06732178 230.84477234 C-119.93816224 191.93062726 -105.738803 152.66273737 -91.56967926 113.39133835 C-90.86218064 111.43053182 -90.15442699 109.46981747 -89.44665527 107.5091095 C-84.76366806 94.53345533 -80.10056063 81.55146226 -75.52752686 68.5365448 C-74.84102496 66.58916151 -74.15442348 64.64181332 -73.4677124 62.69450378 C-72.23065372 59.18589924 -71.00570979 55.67341945 -69.78851318 52.15788269 C-65.19801034 39.03386556 -59.97942095 28.34458941 -50.04705811 18.36076355 C-49.45537842 17.73427917 -48.86369873 17.1077948 -48.25408936 16.46232605 C-44.10404652 12.41305688 -39.41385256 9.7424647 -34.29705811 7.11076355 C-33.35044312 6.61648865 -33.35044312 6.61648865 -32.38470459 6.11222839 C-21.96210124 1.00221221 -11.47317243 -0.07977033 0 0 Z " fill="#4BB1D3" transform="translate(331.04705810546875,261.6392364501953)"/>
<path d="M0 0 C3.65684872 0.010281 7.31366165 0.00069321 10.97051239 -0.00554466 C17.10616633 -0.01277792 23.24162633 -0.00334819 29.37725067 0.01581764 C36.42392716 0.03757814 43.47014035 0.03052367 50.51680565 0.00851202 C56.61761566 -0.00976654 62.71828798 -0.01214013 68.81911659 -0.0017333 C72.44068341 0.00443392 76.06203407 0.0055282 79.68358612 -0.00787926 C109.0556727 -0.10179246 133.0299986 3.88534938 155.1838913 24.86152077 C162.01241804 31.90600995 166.98253083 39.37597312 171.2151413 48.16230202 C171.545383 48.84236305 171.87562469 49.52242409 172.21587372 50.22309303 C173.95966503 54.03789323 175.09634964 57.67795978 175.87944794 61.80439186 C176.0503746 62.69395576 176.22130127 63.58351967 176.39740753 64.50004005 C176.58562325 65.50848473 176.58562325 65.50848473 176.7776413 66.53730202 C178.03586449 66.53361485 179.29408768 66.52992767 180.59043884 66.52612877 C210.51347733 66.43934302 240.43648314 66.37346295 270.35961679 66.3330407 C274.04925148 66.32803837 277.73888591 66.32286103 281.4285202 66.31757545 C282.53024753 66.31600159 282.53024753 66.31600159 283.65423197 66.31439593 C295.51924023 66.29702975 307.38417032 66.26551315 319.24913234 66.22869083 C331.43977849 66.19117563 343.63038394 66.1690439 355.82108545 66.16094804 C363.33267059 66.15548209 370.84403469 66.13827079 378.35555172 66.10563615 C384.13265503 66.08182801 389.90961931 66.07950868 395.68676186 66.08487129 C398.04406398 66.08377741 400.40137505 66.07590915 402.75862694 66.06048012 C429.42254877 65.89462313 451.69472049 71.75573129 471.66436005 90.33808327 C488.90109828 108.27576095 496.02417787 130.85543637 495.87529755 155.38495827 C495.8738826 156.28226158 495.87246765 157.1795649 495.87100983 158.10405922 C495.8654664 160.93600916 495.85292488 163.76787647 495.8401413 166.59980202 C495.83511897 168.53404566 495.83055735 170.46829055 495.82646942 172.40253639 C495.81551558 177.11415618 495.79829082 181.82571515 495.7776413 186.53730202 C496.89622528 186.51635475 498.01480927 186.49540749 499.16728973 186.47382545 C503.37174607 186.4006757 507.57614782 186.35523363 511.78105927 186.31757545 C513.59072623 186.2976289 515.40033018 186.27046149 517.2097702 186.2355442 C531.86210611 185.96015481 543.88717087 187.08472302 555.7776413 196.53730202 C556.39252411 197.0155442 557.00740692 197.49378639 557.64092255 197.98652077 C566.20189914 205.52245803 570.98684378 217.7360186 571.9885788 228.88495827 C572.4797154 240.80446594 567.66699481 252.09021125 563.5354538 263.05292702 C563.014216 264.45046196 562.49354527 265.84820851 561.9733963 267.24614906 C560.5803627 270.98512061 559.17940857 274.72107703 557.77685928 278.45648766 C556.29725885 282.40135495 554.82514973 286.34901672 553.35210419 290.29633522 C550.10475374 298.99391996 546.84673092 307.68748321 543.58647156 316.38023567 C541.91079872 320.8490812 540.23738246 325.31877195 538.56351471 329.78829384 C537.27980107 333.2150978 535.99500423 336.64149403 534.71001434 340.0678196 C533.04512473 344.50772821 531.38422018 348.94909887 529.72612762 353.39155006 C525.74201108 364.05298169 521.72754956 374.70010785 517.613307 385.31194401 C515.27576612 391.34219613 512.95787862 397.37979078 510.65132618 403.42196178 C509.25339906 407.08000919 507.84524346 410.73328577 506.40969086 414.37674904 C500.14185118 430.30089905 495.3676096 444.92857573 494.91283417 462.24633217 C493.76790588 481.64821456 481.19935585 501.03721779 467.59404755 514.12323952 C448.62053662 530.38624888 426.50272386 535.0189671 402.11164093 534.91825294 C400.26630962 534.92171658 398.42098038 534.92648584 396.5756554 534.93243468 C391.54387475 534.94487755 386.51226633 534.93880506 381.48048532 534.92947602 C376.03866282 534.92265814 370.59686891 534.93318032 365.15505219 534.94141579 C354.50965001 534.95472644 343.86431145 534.9518872 333.21890683 534.94317786 C324.56331325 534.93639086 315.90773743 534.935489 307.25214195 534.93874931 C306.01820739 534.93920901 304.78427283 534.93966871 303.51294632 534.94014234 C301.00588202 534.94110156 298.49881774 534.9420742 295.99175345 534.94306011 C273.17459612 534.95136287 250.35746933 534.94276578 227.54031777 534.92703232 C206.74009393 534.91279864 185.9399252 534.91406931 165.13970184 534.9284153 C141.73670372 534.94450272 118.33373605 534.95078064 94.93073314 534.94157851 C92.43280757 534.94062291 89.93488199 534.93967979 87.43695641 534.93874931 C86.20807533 534.93828649 84.97919425 534.93782366 83.71307435 534.93734681 C75.07318228 534.93476176 66.43330982 534.93911748 57.79342079 534.94618797 C47.25661188 534.95462162 36.71986998 534.95228375 26.1830687 534.93634574 C20.81196307 534.92848786 15.44096896 534.92532889 10.06986427 534.9352932 C5.14433883 534.94429233 0.21902733 534.93922201 -4.70647896 534.92336054 C-6.4795181 534.92003468 -8.25257565 534.92165674 -10.02560275 534.92898791 C-25.62242473 534.98848468 -39.98589562 533.49602137 -54.2223587 526.53730202 C-55.12212433 526.1183567 -56.02188995 525.69941139 -56.9489212 525.26777077 C-76.51282727 515.48581773 -90.30665466 497.777848 -97.5973587 477.41230202 C-100.97486502 465.93526014 -101.51586628 454.50683756 -101.48305511 442.62415504 C-101.48608198 441.05350033 -101.48997412 439.48284708 -101.49464768 437.9121964 C-101.50486764 433.63036296 -101.50276129 429.34861381 -101.49846709 425.06677365 C-101.49598886 420.4354045 -101.50502761 415.80405507 -101.51250458 411.17269325 C-101.52522355 402.1122095 -101.52704874 393.05175543 -101.52470431 383.99126425 C-101.52291774 376.6223422 -101.52467806 369.25342912 -101.52892876 361.88450813 C-101.52952395 360.83376516 -101.53011913 359.78302218 -101.53073236 358.70043851 C-101.53194418 356.56549889 -101.53315831 354.43055926 -101.53437474 352.29561964 C-101.54523963 332.29462608 -101.54309285 312.2936494 -101.53698989 292.2926549 C-101.53182251 274.02084113 -101.54307335 255.74908071 -101.56208811 237.47727749 C-101.58149047 218.68806261 -101.58971825 199.89887294 -101.58596486 181.10964799 C-101.58405635 170.57208453 -101.58650612 160.03456644 -101.6006794 149.49701118 C-101.61262482 140.52547118 -101.6139628 131.55400449 -101.60188923 122.58246341 C-101.59602249 118.01121787 -101.5948396 113.44010621 -101.60689163 108.86886978 C-101.61782509 104.67288814 -101.61455955 100.47715098 -101.60062995 96.28118041 C-101.59800336 94.77454711 -101.6002843 93.26789418 -101.60836581 91.76128027 C-101.73054363 67.25579356 -95.45231215 43.82566188 -78.32782745 25.52558327 C-70.8888647 18.50066297 -63.13397836 12.57523213 -53.9098587 8.09980202 C-53.29642609 7.7942942 -52.68299347 7.48878639 -52.05097198 7.17402077 C-35.3891519 -0.40067642 -17.90295419 -0.06627907 0 0 Z M-55.2223587 53.53730202 C-63.90224342 65.53736122 -65.67219739 76.80457861 -65.61003876 91.27518654 C-65.61421667 92.86331674 -65.61969668 94.45144396 -65.62635857 96.03956568 C-65.64077199 100.38347074 -65.63658133 104.72718541 -65.62919176 109.07110071 C-65.6244522 113.76378615 -65.63697691 118.45643087 -65.64720917 123.14910316 C-65.66438712 132.33466491 -65.66523925 141.52015822 -65.65999626 150.70573185 C-65.65595143 158.17345656 -65.65740185 165.64116107 -65.66274452 173.10888481 C-65.66349294 174.17257931 -65.66424137 175.23627382 -65.66501247 176.33220149 C-65.66654398 178.49324238 -65.66808233 180.65428326 -65.66962744 182.81532414 C-65.68334887 203.07177545 -65.67791731 223.32818812 -65.66644222 243.58463855 C-65.65651045 262.10576602 -65.6694502 280.62679358 -65.69337641 299.14790563 C-65.71777404 318.17769938 -65.72737363 337.20744662 -65.72072369 356.23725569 C-65.71723292 366.91612124 -65.71945416 377.59490995 -65.73697472 388.27376366 C-65.75170497 397.36448262 -65.75232133 406.45507066 -65.7349038 415.54578708 C-65.72639823 420.18123515 -65.72423347 424.81644941 -65.73955536 429.45188522 C-65.75342557 433.70083802 -65.74860949 437.9493572 -65.72931612 442.19828506 C-65.72556294 443.7298168 -65.72845832 445.26138348 -65.73892777 446.79288404 C-65.84067508 462.82532268 -61.87360378 474.60282093 -50.7848587 486.34980202 C-42.11628435 494.51974156 -31.07406211 498.78481291 -19.2223587 499.53730202 C-17.97905792 499.6668528 -17.97905792 499.6668528 -16.71063995 499.79902077 C-7.08418394 500.41698157 0.53763013 496.36965215 7.9651413 490.47480202 C15.58219007 483.21972044 20.67442511 474.19823131 25.0901413 464.77167702 C25.47890945 463.94498512 25.86767761 463.11829323 26.26822662 462.26655006 C30.33709843 453.50134153 33.88058366 444.55658518 37.3401413 435.53730202 C38.03319096 433.74440775 38.72647533 431.95160419 39.41997528 430.15888405 C47.06174643 410.35558773 54.45800798 390.46152825 61.7776413 370.53730202 C62.20043365 369.38687416 62.62322601 368.2364463 63.05883026 367.051157 C72.27665574 341.96124016 81.46986522 316.86204775 90.4495163 291.68573952 C90.67697792 291.04809607 90.90443954 290.41045261 91.13879395 289.75348663 C93.50636379 283.11470388 95.86731235 276.47360257 98.22002411 269.82953835 C101.60232655 260.29299254 105.00563129 250.77031207 108.6604538 241.33417702 C108.93574921 240.62178368 109.21104462 239.90939034 109.49468231 239.17540932 C117.38724522 219.06421071 131.45930159 204.05689533 150.7776413 194.53730202 C162.74601481 189.4067354 174.8072044 187.23553334 187.76192474 187.25882912 C188.93019786 187.25303671 190.09847098 187.24724431 191.30214632 187.24127638 C194.51763381 187.22729311 197.73299358 187.22205228 200.94850659 187.22062778 C204.42623419 187.21691295 207.90391484 187.20174725 211.38161469 187.18801308 C217.3979327 187.16580151 223.41423389 187.15075164 229.43058395 187.14064598 C238.12907658 187.12602465 246.82751052 187.10047825 255.5259686 187.07231469 C269.64060564 187.02690931 283.75525116 186.99026872 297.86992645 186.95917702 C311.57632179 186.92896582 325.28269642 186.89460377 338.98906708 186.85468483 C339.83474659 186.85222328 340.6804261 186.84976173 341.55173226 186.84722559 C345.79450235 186.83485049 350.0372722 186.82239405 354.28004193 186.80989718 C389.44587994 186.70642307 424.61174209 186.61718899 459.7776413 186.53730202 C459.87747758 180.50911066 459.94956175 174.48141414 459.99736786 168.45258522 C460.0173239 166.4072524 460.04449868 164.36197544 460.07939911 162.31684303 C460.38721173 143.7982927 458.66557161 128.95262431 445.4651413 114.72480202 C436.6671149 106.51724719 424.96595278 101.4087294 412.88324261 101.41425419 C411.91883698 101.41226314 410.95443135 101.41027209 409.9608013 101.40822071 C408.90924568 101.41113355 407.85769005 101.41404639 406.7742691 101.4170475 C405.65110363 101.41619308 404.52793816 101.41533865 403.37073737 101.41445833 C399.59969899 101.4128086 395.82870489 101.41831668 392.05767059 101.42377663 C389.357459 101.42405863 386.65725014 101.42394455 383.95703888 101.42333412 C378.13979062 101.42280987 372.32255359 101.42594638 366.50530815 101.43157196 C358.09455688 101.4397003 349.68381102 101.44230355 341.27305625 101.44355995 C327.6270392 101.44574837 313.98102814 101.45240277 300.33501434 101.46186256 C287.07948079 101.47104211 273.82394887 101.47812029 260.56841278 101.48237038 C259.34272802 101.48276446 259.34272802 101.48276446 258.09228196 101.48316651 C253.99299962 101.48447155 249.89371727 101.48573526 245.79443491 101.48697841 C211.7888327 101.49734448 177.78323773 101.5149571 143.7776413 101.53730202 C143.79069305 99.59524879 143.79069305 99.59524879 143.80400848 97.61396217 C143.81104679 95.8930971 143.81787141 94.17223115 143.8245163 92.45136452 C143.83080048 91.60066383 143.83708466 90.74996315 143.84355927 89.87348366 C143.88987141 73.85719951 139.59010718 60.69314785 128.5276413 48.84980202 C116.63461819 37.55928889 102.88821583 35.39248756 87.17363739 35.3761692 C86.02306854 35.3712043 84.87249969 35.3662394 83.68706512 35.36112404 C79.89173019 35.34655492 76.09643707 35.33970866 72.3010788 35.33417702 C70.32197967 35.32987684 68.34288054 35.3255761 66.36378157 35.32120252 C60.84923108 35.30941269 55.33469061 35.30186189 49.8201288 35.29840732 C42.72278142 35.29393497 35.62562743 35.27641733 28.52833879 35.24740672 C23.01890665 35.22568003 17.50952847 35.21569718 12.000054 35.2143662 C8.72051193 35.21332574 5.44119175 35.20609881 2.16168594 35.18954659 C-1.5063513 35.17235672 -5.17392566 35.17439818 -8.84198761 35.1808567 C-9.90634033 35.17164192 -10.97069305 35.16242714 -12.06729889 35.15293312 C-29.44357192 35.24804427 -43.46248072 40.58882993 -55.2223587 53.53730202 Z M139.7776413 225.53730202 C139.14213348 226.15089577 138.50662567 226.76448952 137.85186005 227.39667702 C126.38296843 239.29787718 122.04347883 257.3790402 116.76050949 272.5539341 C115.61635743 275.8323787 114.46051704 279.10669083 113.30474091 282.38105202 C113.0706228 283.04440119 112.83650469 283.70775036 112.59529209 284.39120102 C112.11929874 285.73978376 111.64326156 287.08835104 111.16718102 288.436903 C110.44713537 290.47764374 109.72817862 292.5187653 109.00946808 294.55997658 C91.31207904 344.79974499 72.99323107 394.9151699 53.4651413 444.47480202 C53.13414429 445.31829201 52.80314728 446.161782 52.46212006 447.03083229 C48.84540624 456.22756348 45.05662562 465.33370859 41.0354538 474.36152077 C40.66784439 475.19279991 40.30023499 476.02407906 39.9214859 476.88054848 C37.17487976 482.96785694 33.87040394 488.25953024 29.7776413 493.53730202 C28.43809812 495.53314817 27.10416075 497.53277616 25.7776413 499.53730202 C74.93472187 499.68757535 124.0918155 499.83260396 173.2489323 499.97054962 C179.04585559 499.98682157 184.84277875 500.00313718 190.63970184 500.01947975 C192.37087433 500.02435914 192.37087433 500.02435914 194.13702 500.0293371 C212.85048086 500.08218604 231.56392948 500.13857473 250.27737599 500.19626022 C269.46385159 500.2553255 288.65033535 500.31061317 307.83683211 500.36235756 C319.68608859 500.39443418 331.53532866 500.42949505 343.384565 500.46831392 C351.49826191 500.49461331 359.61196376 500.51725987 367.72567933 500.53697319 C372.41430773 500.54847458 377.10291658 500.56164457 381.79152679 500.57913208 C386.07653879 500.59507891 390.36153697 500.60648115 394.64657158 500.61413311 C396.20378469 500.61774047 397.76099485 500.62307442 399.31819569 500.63023037 C401.42091352 500.63965097 403.52355237 500.64301088 405.62628841 500.64473248 C406.79848507 500.64814996 407.97068173 500.65156744 409.1783995 500.65508848 C411.70646398 500.8332699 411.70646398 500.8332699 412.7776413 499.53730202 C414.58540988 499.23650362 416.3993091 498.97231035 418.2151413 498.72480202 C422.37139458 498.07783806 425.88871478 497.21179827 429.7151413 495.47480202 C433.75183848 493.68796029 437.12104977 493.26947825 441.5276413 493.09980202 C447.51774674 492.78773112 447.51774674 492.78773112 452.3245163 489.35761452 C452.80404755 488.75691139 453.2835788 488.15620827 453.7776413 487.53730202 C454.48404755 486.70972389 455.1904538 485.88214577 455.9182663 485.02948952 C464.89075819 473.88815025 469.29489928 460.48790693 474.28936005 447.20527077 C474.53386209 446.55530947 474.77836414 445.90534817 475.03027534 445.23569107 C476.32168342 441.80056773 477.60863978 438.36381387 478.89214325 434.92572975 C479.93780321 432.12724303 480.99209385 429.33225307 482.05425262 426.53998756 C490.39103579 405.0710495 490.39103579 405.0710495 494.7776413 382.53730202 C495.4376413 383.85730202 496.0976413 385.17730202 496.7776413 386.53730202 C497.05451782 385.79135277 497.33139435 385.04540352 497.61666107 384.27684975 C501.21132333 374.59258708 504.80674798 364.90860763 508.4026413 355.22480202 C508.69364841 354.44110111 508.98465553 353.65740021 509.28448105 352.84995079 C519.14833119 326.28656875 529.03300883 299.7310404 538.94676971 273.18624306 C539.76549053 270.99124018 540.58264479 268.7956522 541.39806366 266.59942055 C543.20475754 261.73409344 545.02658891 256.87687275 546.9050827 252.03876686 C547.23196579 251.18501976 547.55884888 250.33127266 547.89563751 249.45165443 C548.48745735 247.90743943 549.08821688 246.36659724 549.70102692 244.8305912 C552.61446258 237.16538789 553.89234899 229.50376722 550.8557663 221.70527077 C547.27583942 214.50650476 542.59109506 209.40438525 534.97919983 206.45181882 C531.6696209 205.50644627 528.98674409 205.28457605 525.55270481 205.28003311 C523.69897805 205.27035977 523.69897805 205.27035977 521.80780226 205.26049101 C520.44448179 205.26343303 519.08116173 205.26656844 517.7178421 205.26987648 C516.26317243 205.26613866 514.80850477 205.26153661 513.35384029 205.25614583 C509.36017539 205.24391584 505.36659426 205.24417632 501.37291491 205.24653459 C497.06388663 205.24694277 492.75488521 205.23590315 488.44586945 205.22641945 C480.00339788 205.20980655 471.56095424 205.2043097 463.1184677 205.20319469 C456.25231618 205.20224399 449.38617386 205.19813258 442.52002525 205.19179344 C423.04196936 205.17417727 403.5639355 205.16495471 384.08587158 205.16645439 C383.03580842 205.1665343 381.98574526 205.16661421 380.903862 205.16669655 C379.32683705 205.16681919 379.32683705 205.16681919 377.71795302 205.16694431 C360.69559917 205.16775646 343.67333397 205.1486376 326.65100575 205.12041982 C309.16153514 205.09165724 291.67210769 205.0778815 274.18261284 205.07960737 C264.36822292 205.08027029 254.55392583 205.07482144 244.73955727 205.05325127 C236.37932257 205.03499467 228.01922273 205.0307285 219.65897668 205.04427011 C215.3978466 205.05077831 211.13697489 205.05099543 206.87586975 205.03356361 C202.96522339 205.01773104 199.05503807 205.02079904 195.14440226 205.03813188 C193.7392075 205.04117966 192.33397746 205.03765447 190.92882437 205.02641173 C170.91308665 204.87703518 153.99781132 211.14095289 139.7776413 225.53730202 Z " fill="#1B102D" transform="translate(139.22235870361328,56.462697982788086)"/>
<path d="M0 0 C0.86797767 -0.00508782 1.73595535 -0.01017564 2.63023537 -0.01541764 C5.55591271 -0.03118797 8.48156528 -0.03967919 11.40727234 -0.04811096 C13.49795185 -0.0576456 15.58862977 -0.06753659 17.67930603 -0.07775879 C24.55955625 -0.1091845 31.43981873 -0.12941291 38.32011414 -0.14796448 C39.48944481 -0.1512618 40.65877548 -0.15455912 41.86354041 -0.15795636 C52.88477887 -0.18873519 63.90601998 -0.21545147 74.92728901 -0.23237514 C89.04116298 -0.25429933 103.15465734 -0.29630425 117.26837951 -0.36581272 C127.18348818 -0.41299186 137.0984942 -0.43730047 147.01371163 -0.44457203 C152.94018472 -0.44953691 158.86623027 -0.46469777 164.79258156 -0.50431633 C170.36670392 -0.54108891 175.9401529 -0.54962301 181.51437378 -0.5363102 C183.56186296 -0.5363643 185.60938128 -0.54672281 187.65675926 -0.56806183 C190.44956433 -0.59561754 193.23989201 -0.58629185 196.03271484 -0.56762695 C196.84555838 -0.58442188 197.65840192 -0.60121681 198.49587709 -0.61852068 C203.81626238 -0.52948208 203.81626238 -0.52948208 206.33176649 1.41980541 C208.76132717 4.16868194 209.69514644 6.08661513 210.26933289 9.72312927 C209.61805384 13.70316789 208.57815788 15.37134213 205.70683289 18.16062927 C201.91268595 19.42534492 198.36023295 19.30532627 194.40730286 19.30107117 C193.55072142 19.30404229 192.69413997 19.30701341 191.81160152 19.31007457 C188.93047744 19.31877241 186.04939485 19.32027073 183.16825867 19.32176208 C181.10698864 19.32638944 179.04571946 19.33141399 176.98445129 19.33680725 C171.37703436 19.34994006 165.76962941 19.35637778 160.1621995 19.36081791 C156.66102213 19.36374685 153.15984805 19.36785128 149.65867233 19.37232208 C138.71031526 19.38599852 127.76196568 19.39566481 116.81360066 19.39952397 C104.16384022 19.40400706 91.51418772 19.42156602 78.86446011 19.45052457 C69.09369945 19.47211819 59.32296921 19.48222699 49.55218494 19.48356509 C43.71305819 19.48461466 37.87403287 19.49055495 32.03493118 19.5083847 C26.54383144 19.52482556 21.05290982 19.52704029 15.56179428 19.5182457 C13.54496535 19.51747322 11.528127 19.52184567 9.51132202 19.53170395 C6.76077752 19.54436174 4.0108698 19.53858032 1.2603302 19.52812195 C0.45984162 19.53617835 -0.34064695 19.54423476 -1.16539276 19.5525353 C-5.72139423 19.51194227 -8.66503292 18.97872181 -12.29316711 16.16062927 C-14.61719663 12.95125518 -14.76887403 10.04556906 -14.29316711 6.16062927 C-10.1697781 -0.02445425 -7.02374473 0.01011201 0 0 Z " fill="#FFFFFF" transform="translate(408.2931671142578,315.83937072753906)"/>
<path d="M0 0 C-6.39839456 5.23905243 -13.9253457 6.44859191 -22 6 C-22 4.35 -22 2.7 -22 1 C-14.65623924 0.42240084 -7.36901413 -0.14738028 0 0 Z " fill="#5285DD" transform="translate(574,549)"/>
<path d="M0 0 C0.33 0 0.66 0 1 0 C1 2.31 1 4.62 1 7 C-0.98 7 -2.96 7 -5 7 C-4.19152271 5.83054208 -3.37810888 4.66449539 -2.5625 3.5 C-2.11003906 2.8503125 -1.65757812 2.200625 -1.19140625 1.53125 C-0.79824219 1.0259375 -0.40507812 0.520625 0 0 Z " fill="#5285DD" transform="translate(170,549)"/>
</svg>
