<?xml version="1.0" standalone="no"?>
<!DOCTYPE svg PUBLIC "-//W3C//DTD SVG 20010904//EN"
 "http://www.w3.org/TR/2001/REC-SVG-20010904/DTD/svg10.dtd">
<svg version="1.0" xmlns="http://www.w3.org/2000/svg"
 width="1250.000000pt" height="1250.000000pt" viewBox="0 0 1250.000000 1250.000000"
 preserveAspectRatio="xMidYMid meet">

<g transform="translate(0.000000,1250.000000) scale(0.100000,-0.100000)"
fill="#000000" stroke="none">
<path d="M3612 9782 c-435 -283 -1004 -648 -1044 -672 l-38 -22 0 -1279 0
-1279 1299 0 1299 0 306 198 c168 108 362 233 431 277 69 44 233 150 365 234
l240 155 0 1283 0 1283 -1292 -1 -1293 -1 -273 -176z m1893 -287 c89 -23 197
-79 269 -141 260 -220 302 -643 91 -909 -75 -95 -153 -157 -260 -211 -130 -64
-196 -79 -345 -77 -220 2 -372 63 -516 207 -116 117 -161 208 -184 375 -29
210 42 423 191 570 106 106 248 176 404 201 81 12 276 4 350 -15z"/>
<path d="M5177 9280 c-131 -49 -249 -129 -307 -210 -27 -38 -13 -62 58 -97 46
-23 61 -25 130 -21 91 6 142 28 195 87 54 60 72 146 44 214 -24 56 -33 58
-120 27z"/>
<path d="M9817 9943 c-4 -3 -7 -154 -7 -334 0 -289 -2 -328 -16 -333 -9 -3
-276 -6 -594 -6 l-579 0 -3 -812 c-4 -812 -4 -813 -27 -888 -30 -100 -65 -162
-126 -224 -95 -96 -225 -146 -380 -146 -219 0 -385 96 -468 272 -62 130 -60
100 -64 986 l-4 812 -414 0 -415 0 0 -868 c0 -545 4 -899 11 -952 47 -387 251
-699 549 -843 176 -85 254 -101 490 -101 171 -1 206 2 285 22 181 45 422 191
507 306 57 77 58 75 58 -124 l0 -180 422 0 421 0 -4 1363 c-2 749 -2 1211 1
1027 l5 -335 170 -5 170 -5 6 -675 c5 -633 7 -680 26 -750 60 -225 151 -361
309 -463 88 -56 141 -80 246 -111 133 -38 219 -46 524 -46 l284 0 0 355 0 355
-182 0 c-101 0 -203 5 -227 11 -60 13 -100 44 -121 93 -17 38 -19 88 -20 626
-1 322 -2 591 -1 597 1 10 66 13 274 15 l272 3 3 343 2 342 -269 0 c-216 0
-271 3 -280 14 -8 10 -11 105 -11 330 1 174 -2 321 -5 326 -7 11 -807 14 -818
3z"/>
<path d="M8627 6233 c-4 -3 -7 -825 -7 -1825 l0 -1818 420 0 420 0 0 566 c0
432 3 565 12 562 6 -2 41 -45 77 -95 101 -139 597 -822 679 -934 l73 -99 520
0 c378 0 518 3 513 11 -3 6 -48 59 -98 119 -50 59 -132 156 -183 216 -50 60
-263 313 -473 562 -210 250 -379 459 -377 466 3 7 105 134 228 282 229 277
299 361 677 816 122 147 222 270 222 273 0 3 -232 5 -515 5 l-514 0 -26 -32
c-26 -34 -311 -416 -628 -841 -100 -135 -179 -233 -182 -225 -3 7 -6 459 -8
1003 l-2 990 -411 3 c-226 1 -413 -1 -417 -5z"/>
<path d="M1160 4320 l0 -1730 975 0 975 0 -2 323 -3 322 -552 3 -553 2 0 1405
0 1405 -420 0 -420 0 0 -1730z"/>
<path d="M4225 5370 c-821 -82 -1334 -724 -1256 -1570 59 -637 464 -1094 1081
-1219 171 -35 324 -45 452 -31 420 46 711 177 948 426 123 130 230 303 286
464 13 35 27 66 31 67 4 2 18 -30 31 -70 97 -300 337 -578 627 -725 174 -88
322 -130 558 -158 141 -16 156 -16 303 0 181 21 306 50 436 101 267 106 461
261 620 494 206 302 282 736 202 1141 -96 482 -425 854 -891 1009 -170 56
-295 74 -508 74 -206 0 -318 -15 -493 -69 -257 -78 -509 -254 -670 -469 -59
-79 -164 -281 -191 -368 -20 -66 -26 -64 -55 23 -27 78 -100 223 -155 304 -61
92 -194 232 -288 302 -124 94 -300 179 -463 224 -165 47 -428 68 -605 50z
m294 -735 c202 -48 363 -210 416 -419 25 -101 36 -249 25 -349 -23 -207 -66
-305 -184 -423 -119 -118 -229 -164 -391 -164 -204 0 -365 91 -469 264 -128
214 -131 612 -4 834 115 205 371 312 607 257z m2753 0 c204 -43 360 -206 420
-437 26 -101 31 -338 10 -428 -60 -250 -200 -411 -408 -470 -133 -38 -284 -24
-414 38 -77 37 -187 149 -228 234 -59 120 -75 202 -76 388 0 181 17 277 70
383 118 234 361 347 626 292z"/>
</g>
</svg>
