<?xml version="1.0" encoding="UTF-8"?>
<svg version="1.1" xmlns="http://www.w3.org/2000/svg" width="1030" height="390">
<path d="M0 0 C1.25889038 0.02380737 1.25889038 0.02380737 2.54321289 0.0480957 C24.65148725 0.7765175 47.74737491 3.07454966 68.9375 9.5625 C69.74429199 9.80838867 70.55108398 10.05427734 71.38232422 10.30761719 C81.47710669 13.46458859 91.21227169 17.39659353 100.875 21.6875 C101.80497803 22.09508545 102.73495605 22.5026709 103.69311523 22.92260742 C109.99232501 25.80289364 115.24039503 28.85365055 117.9375 35.5625 C118.18638897 38.28124619 118.18638897 38.28124619 118.18473816 41.45648193 C118.18893265 42.6620575 118.19312714 43.86763306 118.19744873 45.10974121 C118.19182922 46.4292981 118.18620972 47.74885498 118.18041992 49.10839844 C118.18149311 50.51471037 118.18343235 51.92102187 118.18617249 53.32733154 C118.19101984 57.14573554 118.18336502 60.96402266 118.17321944 64.78241253 C118.16442943 68.78253227 118.16619662 72.78264845 118.1665802 76.78277588 C118.16564349 83.50461783 118.15696128 90.22641466 118.14331055 96.94824219 C118.12761054 104.70756664 118.12231159 112.4668416 118.1230461 120.22618079 C118.12372321 128.49729614 118.1167698 136.76839253 118.1075995 145.03950214 C118.10547349 147.4165714 118.10475902 149.79363758 118.10436058 152.1707077 C118.10335127 155.91682476 118.09720687 159.66290074 118.08719444 163.40900421 C118.08290919 165.43038003 118.08343846 167.45176429 118.08413696 169.47314453 C118.06267348 175.5969531 117.8895938 181.50955918 116.9375 187.5625 C113.17602001 186.98640249 110.50758456 185.94070611 107.26171875 183.97265625 C106.36364502 183.440354 105.46557129 182.90805176 104.5402832 182.35961914 C103.09721802 181.50098267 103.09721802 181.50098267 101.625 180.625 C71.76174824 163.34427135 40.02311406 154.64702099 5.84790039 151.60083008 C-9.08262275 150.23778075 -9.08262275 150.23778075 -13.5 146.5 C-15.55960771 142.6279375 -16.15789632 138.86354143 -15.0625 134.5625 C-12.3639971 131.76907489 -9.16774889 130.80926731 -5.52832031 129.62329102 C4.14315177 126.45103914 11.86034432 121.85070359 17.4375 113 C20.80146902 105.29090433 21.24556117 98.31689634 21.23828125 90.01171875 C21.24470894 88.3698333 21.24470894 88.3698333 21.25126648 86.69477844 C21.25698769 84.38775318 21.25752641 82.08070989 21.25317383 79.77368164 C21.25001921 76.27132897 21.27348339 72.76982628 21.29882812 69.26757812 C21.30110209 67.01562605 21.30180417 64.76367174 21.30078125 62.51171875 C21.309991 61.47802658 21.31920074 60.44433441 21.32868958 59.37931824 C21.26264311 48.83521673 19.31685077 38.51412695 11.9375 30.5625 C5.77103453 25.61336267 -1.01982292 22.52435367 -8.43359375 19.8984375 C-11.64757721 18.26517993 -13.15932224 16.6094144 -15.0625 13.5625 C-15.19140625 11.5 -15.19140625 11.5 -14.625 9.5625 C-14.37943359 8.6034375 -14.37943359 8.6034375 -14.12890625 7.625 C-10.82049045 1.22630571 -6.86385512 -0.23826371 0 0 Z " fill="#AF550E" transform="translate(91.0625,166.4375)"/>
<path d="M0 0 C2.56045084 3.1668734 3.20831201 4.94316237 3.66015625 8.875 C3.23889327 11.9219432 2.29858504 13.52624552 0.375 15.9375 C-2.04057829 17.11632538 -4.22861902 18.02306052 -6.75 18.875 C-16.44019456 22.47325276 -24.34172773 26.6620445 -29.625 35.9375 C-33.42952609 44.3223771 -33.77890905 53.33444748 -33.79296875 62.41796875 C-33.79629715 63.19328445 -33.79962555 63.96860016 -33.80305481 64.76741028 C-33.80807869 66.39677342 -33.81046455 68.0261467 -33.81030273 69.65551758 C-33.81247945 72.10190498 -33.8306572 74.5478332 -33.84960938 76.99414062 C-33.96782807 98.23004098 -33.96782807 98.23004098 -24.375 116.625 C-17.73557713 122.20815105 -11.61685959 125.60646996 -3.2265625 127.98046875 C-0.52626161 128.97382268 0.73739205 129.58953893 2.375 131.9375 C3.06455439 135.32780911 2.97193351 138.53497901 2.375 141.9375 C0.18477082 144.76174288 -1.45517207 146.35258603 -4.625 147.9375 C-6.86072276 148.16118384 -9.10172662 148.33274638 -11.34375 148.48046875 C-12.75230076 148.58083337 -14.16074476 148.68270476 -15.5690918 148.78588867 C-16.31186371 148.84022064 -17.05463562 148.89455261 -17.81991577 148.95053101 C-53.97940802 151.68739856 -87.72879206 162.38116165 -119.16674805 180.43286133 C-119.96636963 180.88814209 -120.76599121 181.34342285 -121.58984375 181.8125 C-122.2974585 182.22242188 -123.00507324 182.63234375 -123.73413086 183.0546875 C-125.625 183.9375 -125.625 183.9375 -128.625 183.9375 C-129.97969075 181.2281185 -129.75716359 179.10864845 -129.76544189 176.07402039 C-129.77115204 174.8247879 -129.77686218 173.57555542 -129.78274536 172.28846741 C-129.78399078 170.89633189 -129.78511586 169.50419625 -129.78613281 168.11206055 C-129.79076006 166.65191522 -129.79578459 165.19177111 -129.80117798 163.73162842 C-129.81431373 159.75839781 -129.82074932 155.78518412 -129.82518864 151.81193519 C-129.82811771 149.33039417 -129.83222222 146.84885779 -129.83669281 144.36731911 C-129.85037137 136.60548857 -129.86003604 128.84366862 -129.8638947 121.08182687 C-129.86837529 112.11774016 -129.88592168 103.15380596 -129.9148953 94.18976563 C-129.93650464 87.26401127 -129.9465986 80.33829984 -129.94793582 73.41251212 C-129.94898447 69.27468593 -129.95490475 65.13700301 -129.97275543 60.99921227 C-129.98922308 57.10615416 -129.99139808 53.21334723 -129.98261642 49.32026672 C-129.98184532 47.89202006 -129.98619848 46.46375998 -129.99607468 45.03554726 C-130.00877485 43.08438265 -130.00113268 41.13311735 -129.99249268 39.18193054 C-129.99395924 38.09035991 -129.9954258 36.99878927 -129.9969368 35.87414074 C-129.32768836 30.59006495 -126.53154733 27.38793564 -122.41455078 24.14746094 C-119.00637096 21.84310361 -115.32226525 20.20813393 -111.5625 18.5625 C-110.68980469 18.17674805 -109.81710938 17.79099609 -108.91796875 17.39355469 C-99.36047116 13.25993698 -89.60081282 9.90549469 -79.625 6.9375 C-78.43583984 6.58196045 -78.43583984 6.58196045 -77.22265625 6.21923828 C-16.41623232 -11.49910613 -16.41623232 -11.49910613 0 0 Z " fill="#AF550E" transform="translate(349.625,171.0625)"/>
<path d="M0 0 C13.34377507 9.72622566 23.06307593 22.69452307 26.1171875 39.22265625 C27.38425326 50.31804291 26.58901203 58.82597688 21.40625 68.75390625 C20.94863281 69.68976563 20.49101562 70.625625 20.01953125 71.58984375 C11.89731566 87.4782326 0.59926807 95.16541322 -14.59375 103.75390625 C-13.48 103.84027344 -12.36625 103.92664063 -11.21875 104.015625 C-0.42976638 104.96832877 9.21140081 107.13719214 19.40625 110.75390625 C20.89125 111.24890625 20.89125 111.24890625 22.40625 111.75390625 C22.40625 112.41390625 22.40625 113.07390625 22.40625 113.75390625 C13.10236859 118.25231756 3.66943155 122.40598256 -5.84375 126.44140625 C-6.93155762 126.90458252 -8.01936523 127.36775879 -9.14013672 127.8449707 C-11.26366034 128.7408574 -13.39203946 129.62533251 -15.52539062 130.49755859 C-17.53510256 131.32044033 -19.53456446 132.16892531 -21.52148438 133.04541016 C-22.44767578 133.43003418 -23.37386719 133.8146582 -24.328125 134.2109375 C-25.12959961 134.55745361 -25.93107422 134.90396973 -26.75683594 135.26098633 C-34.2585262 136.56442115 -41.83141248 132.65605034 -48.58984375 129.76171875 C-49.50459976 129.37450653 -50.41935577 128.98729431 -51.36183167 128.58834839 C-53.27866425 127.77370248 -55.19376383 126.95496775 -57.10717773 126.13232422 C-60.04101045 124.87472238 -62.98382313 123.64004293 -65.92773438 122.40625 C-67.7948573 121.60944576 -69.66141494 120.81131532 -71.52734375 120.01171875 C-72.40748642 119.64490997 -73.28762909 119.2781012 -74.19444275 118.900177 C-75.00611404 118.54656097 -75.81778534 118.19294495 -76.65405273 117.82861328 C-77.36859116 117.52376007 -78.08312958 117.21890686 -78.81932068 116.90481567 C-80.99767867 115.4919148 -81.63606244 114.13022147 -82.59375 111.75390625 C-71.46083738 107.09061669 -60.52733902 105.23059785 -48.59375 103.75390625 C-51.60437783 101.3681257 -54.71444577 99.57073648 -58.09375 97.75390625 C-70.48879391 90.54994911 -81.05484417 80.41528821 -85.46875 66.44140625 C-85.8670925 64.88469353 -86.24546597 63.3225775 -86.59375 61.75390625 C-86.820625 60.76390625 -87.0475 59.77390625 -87.28125 58.75390625 C-88.98065666 42.43960234 -85.46615497 25.47860365 -75.62109375 12.19921875 C-57.25494158 -9.95340409 -24.48460942 -15.85934928 0 0 Z " fill="#AF550E" transform="translate(248.59375,43.24609375)"/>
<path d="M0 0 C7.26 0 14.52 0 22 0 C24.56666165 6.37082087 27.13123314 12.74239944 29.69042969 19.11621094 C30.56223783 21.28565446 31.43528146 23.4546019 32.30957031 25.62304688 C33.56377707 28.73438972 34.81357506 31.84747138 36.0625 34.9609375 C36.45622803 35.934935 36.84995605 36.9089325 37.25561523 37.91244507 C37.61598877 38.81322784 37.9763623 39.71401062 38.34765625 40.64208984 C38.66742432 41.43706879 38.98719238 42.23204773 39.31665039 43.05111694 C40 45 40 45 40 47 C40.66 47 41.32 47 42 47 C42.19570839 45.89933952 42.19570839 45.89933952 42.39537048 44.77644348 C42.95327923 42.2145406 43.68627723 39.99883138 44.67407227 37.5769043 C45.01434952 36.73641037 45.35462677 35.89591644 45.70521545 35.029953 C46.07190842 34.1370607 46.43860138 33.2441684 46.81640625 32.32421875 C47.19232407 31.3990596 47.56824188 30.47390045 47.95555115 29.52070618 C49.15373895 26.5746031 50.35802989 23.63103946 51.5625 20.6875 C52.37735718 18.68701349 53.19181497 16.68636425 54.00585938 14.68554688 C55.9985395 9.78814446 57.9994564 4.8942249 60 0 C67.26 0 74.52 0 82 0 C82 24.09 82 48.18 82 73 C75.73 73 69.46 73 63 73 C62.67 61.12 62.34 49.24 62 37 C60.60974609 40.77244141 60.60974609 40.77244141 59.19140625 44.62109375 C58.29517767 47.04720208 57.39800199 49.47295815 56.50073242 51.89868164 C55.8760413 53.58907014 55.25234063 55.27982499 54.62963867 56.97094727 C53.73614407 59.39695926 52.83913477 61.82164583 51.94140625 64.24609375 C51.6622084 65.00651474 51.38301056 65.76693573 51.09535217 66.55039978 C49.11387171 71.88612829 49.11387171 71.88612829 48 73 C43.05 73 38.1 73 33 73 C28.38 60.46 23.76 47.92 19 35 C18.67 47.54 18.34 60.08 18 73 C12.06 73 6.12 73 0 73 C0 48.91 0 24.82 0 0 Z " fill="#AF550E" transform="translate(844,215)"/>
<path d="M0 0 C19 0 19 0 24.00390625 4.94140625 C25.26190022 7.10831733 26.44762128 9.31859762 27.5625 11.5625 C28.76971526 13.73181733 29.97938401 15.89977097 31.19140625 18.06640625 C32.44824219 20.35449219 33.70507812 22.64257812 35 25 C38.3 29.95 41.6 34.9 45 40 C45.33 26.8 45.66 13.6 46 0 C52.27 0 58.54 0 65 0 C65 24.09 65 48.18 65 73 C58.73 73 52.46 73 46 73 C39.68394547 65.22639443 39.68394547 65.22639443 37.84375 61.37890625 C34.52924566 54.87937039 30.40619392 48.96400696 26.3125 42.9375 C23.899375 39.328125 21.48625 35.71875 19 32 C18.67 45.53 18.34 59.06 18 73 C12.06 73 6.12 73 0 73 C0 48.91 0 24.82 0 0 Z " fill="#AF550E" transform="translate(547,215)"/>
<path d="M0 0 C8.00594475 5.74677163 13.4065112 13.44124826 15.25 23.25 C16.09529974 35.68006346 15.15049505 46.45254468 6.93359375 56.47265625 C-0.35403186 64.16608931 -9.03394433 68.25465438 -19.67163086 68.72290039 C-30.57584173 68.86507911 -39.32356432 66.29695588 -47.74609375 59.23046875 C-55.71969803 51.350123 -59.00319453 42.44106129 -59.1875 31.375 C-59.09257649 20.16882473 -55.65503734 11.26439557 -47.75 3.25 C-34.30147929 -8.17374343 -14.9304209 -9.29114379 0 0 Z M-35.5 17.125 C-40.14568739 23.5773436 -40.55874188 29.46585939 -39.75 37.25 C-38.03098742 43.20794132 -34.74599471 46.74217392 -29.75 50.25 C-23.9823764 52.1725412 -17.87025209 52.27086212 -12.375 49.625 C-7.68585958 45.38244438 -3.97429347 41.72223541 -3.546875 35.10546875 C-3.53140625 33.89503906 -3.5159375 32.68460938 -3.5 31.4375 C-3.46132813 29.63345703 -3.46132813 29.63345703 -3.421875 27.79296875 C-3.85878993 23.07532782 -5.25013106 19.84340197 -8.50390625 16.38671875 C-9.39916016 15.66935547 -9.39916016 15.66935547 -10.3125 14.9375 C-11.21162109 14.20080078 -11.21162109 14.20080078 -12.12890625 13.44921875 C-19.49864276 7.99738957 -29.6911007 11.05205982 -35.5 17.125 Z " fill="#AF550E" transform="translate(819.75,219.75)"/>
<path d="M0 0 C44.61990343 0 44.61990343 0 55.0625 8.9453125 C63.48452035 17.87672924 65.61318001 28.00131109 65.3125 39.984375 C64.8160103 48.7639679 61.18165294 56.74981432 55 63 C38.88997024 76.15104471 20.49792114 73 0 73 C0 48.91 0 24.82 0 0 Z M18 16 C18 29.2 18 42.4 18 56 C30.97792094 56.995263 30.97792094 56.995263 40.86328125 51.28125 C41.34152344 50.6934375 41.81976562 50.105625 42.3125 49.5 C42.80363281 48.9121875 43.29476562 48.324375 43.80078125 47.71875 C47.32538775 42.66719671 46.49847494 35.8570806 46 30 C44.44725811 24.61603628 41.7674794 21.02327962 37 18 C30.73108186 15.13342176 30.73108186 15.13342176 18 16 Z " fill="#AF550E" transform="translate(624,215)"/>
<path d="M0 0 C5.919375 -0.061875 11.83875 -0.12375 17.9375 -0.1875 C20.71208618 -0.22846802 20.71208618 -0.22846802 23.54272461 -0.27026367 C25.03759105 -0.2790398 26.53246477 -0.28668105 28.02734375 -0.29296875 C29.15662292 -0.3159906 29.15662292 -0.3159906 30.30871582 -0.33947754 C37.3783396 -0.34289447 43.39268629 1.27818906 49.3125 5.1875 C54.63642382 10.75904819 56.25533649 15.23789502 56.5625 23 C56.3371405 30.26590102 54.59920637 34.4997718 49.4375 39.51953125 C47.0895567 41.55637206 44.5846381 43.27690793 42 45 C42.45439453 45.77714355 42.90878906 46.55428711 43.37695312 47.35498047 C45.05766681 50.2341723 46.73448461 53.11555865 48.40869141 55.99853516 C49.1346749 57.24683697 49.86220842 58.49423865 50.59130859 59.74072266 C51.63786202 61.5305426 52.67883383 63.32350512 53.71875 65.1171875 C54.66137695 66.73536377 54.66137695 66.73536377 55.62304688 68.38623047 C57 71 57 71 57 73 C50.07 73 43.14 73 36 73 C34.55367187 70.21949219 34.55367187 70.21949219 33.078125 67.3828125 C32.13233574 65.58859465 31.18646441 63.79441875 30.23828125 62.00146484 C29.58245494 60.75623731 28.93071666 59.50884766 28.28320312 58.25927734 C27.35057309 56.46124674 26.40341355 54.67155957 25.453125 52.8828125 C24.88754883 51.80402832 24.32197266 50.72524414 23.73925781 49.61376953 C22.05510337 46.61347853 22.05510337 46.61347853 18 45 C18 54.24 18 63.48 18 73 C12.06 73 6.12 73 0 73 C0 48.91 0 24.82 0 0 Z M18 15 C18 20.61 18 26.22 18 32 C20.2275 32.04125 22.455 32.0825 24.75 32.125 C26.62945313 32.15980469 26.62945313 32.15980469 28.546875 32.1953125 C31.75159455 32.01405008 33.44331077 31.8777598 36 30 C37.46112299 26.48002188 38.16488252 24.03640441 37.5625 20.25 C35.30830002 17.00395203 32.74996096 15.83185754 29 15 C25.29158532 14.7707163 21.72282775 14.86211749 18 15 Z " fill="#AF550E" transform="translate(698,215)"/>
<path d="M0 0 C5.94 0 11.88 0 18 0 C18.33 9.24 18.66 18.48 19 28 C25.58765767 19.82221806 32.10927427 11.63611585 38.35546875 3.1953125 C40 1 40 1 41 0 C42.63472882 -0.08700342 44.27314055 -0.10701063 45.91015625 -0.09765625 C47.39418945 -0.09282227 47.39418945 -0.09282227 48.90820312 -0.08789062 C49.94912109 -0.07951172 50.99003906 -0.07113281 52.0625 -0.0625 C53.62967773 -0.05573242 53.62967773 -0.05573242 55.22851562 -0.04882812 C57.8190666 -0.03699913 60.40950559 -0.02051689 63 0 C60.05876881 4.56134198 56.85774984 8.78922071 53.4375 13 C52.37836236 14.31336366 51.31978285 15.62717758 50.26171875 16.94140625 C49.72466309 17.6080127 49.18760742 18.27461914 48.63427734 18.96142578 C45.98300657 22.26858308 43.36519094 25.60178407 40.75 28.9375 C40.03348267 29.85112305 40.03348267 29.85112305 39.30249023 30.78320312 C38.20109251 32.18835733 37.10045324 33.594106 36 35 C39.52802985 39.73498743 43.09057032 44.44215154 46.6875 49.125 C47.31458862 49.94206421 47.31458862 49.94206421 47.9543457 50.77563477 C50.29673186 53.818236 52.66168401 56.84076523 55.0546875 59.84375 C55.80745972 60.79096924 55.80745972 60.79096924 56.57543945 61.75732422 C57.5494577 62.9806438 58.52703528 64.20113983 59.50854492 65.41845703 C61.51641458 67.94211308 62.97102962 69.91308885 64 73 C56.40182511 74.28732274 48.47172477 75.30921635 41 73 C35.11052371 68.62781251 31.36050223 62.16757045 27.80664062 55.85766602 C25.1756929 51.69614667 22.02269153 47.88631768 19 44 C18.67 53.57 18.34 63.14 18 73 C12.06 73 6.12 73 0 73 C0 48.91 0 24.82 0 0 Z " fill="#AF550E" transform="translate(488,93)"/>
<path d="M0 0 C6.93 0 13.86 0 21 0 C24.61081941 8.50495612 27.93660977 17.06707183 31.08203125 25.75390625 C31.54559997 27.0299829 32.00928122 28.30601867 32.47306824 29.58201599 C33.4338138 32.22754832 34.39232905 34.87387561 35.34936523 37.52075195 C36.57588733 40.91197256 37.80949626 44.30056861 39.04488087 47.68856907 C39.99955997 50.3098614 40.94984863 52.93272896 41.89887047 55.55607414 C42.57187775 57.41338545 43.24914085 59.26915286 43.9264679 61.12489319 C44.33076523 62.24713791 44.73506256 63.36938263 45.15161133 64.52563477 C45.50959305 65.51314224 45.86757477 66.50064972 46.23640442 67.51808167 C47 70 47 70 47 73 C40.73 73 34.46 73 28 73 C24 63.375 24 63.375 24 60 C15.09 60 6.18 60 -3 60 C-3.66 62.97 -4.32 65.94 -5 69 C-5.66 70.32 -6.32 71.64 -7 73 C-13.27 73 -19.54 73 -26 73 C-25.247036 69.23518002 -24.40528367 66.05762847 -23.12988281 62.48217773 C-22.74568176 61.40012558 -22.36148071 60.31807343 -21.96563721 59.20323181 C-21.54900818 58.04175125 -21.13237915 56.88027069 -20.703125 55.68359375 C-20.27247742 54.47615005 -19.84182983 53.26870636 -19.39813232 52.02467346 C-18.485765 49.46770713 -17.57092439 46.91164329 -16.65429688 44.35620117 C-15.4922727 41.1160773 -14.33612871 37.87389405 -13.18187332 34.63099575 C-12.06711178 31.50156508 -10.94740018 28.37391294 -9.828125 25.24609375 C-9.4195929 24.09878281 -9.01106079 22.95147186 -8.59014893 21.76939392 C-5.9454782 14.41063554 -3.05878146 7.19683309 0 0 Z M10 22 C8.82847622 25.45670732 7.66360923 28.91562122 6.5 32.375 C5.99919922 33.85226563 5.99919922 33.85226563 5.48828125 35.359375 C5.17246094 36.30039063 4.85664062 37.24140625 4.53125 38.2109375 C4.23798828 39.08024902 3.94472656 39.94956055 3.64257812 40.84521484 C2.90474212 42.94467299 2.90474212 42.94467299 3 45 C7.95 45 12.9 45 18 45 C16.48526781 37.01323028 13.83197448 29.59877122 11 22 C10.67 22 10.34 22 10 22 Z " fill="#AF550E" transform="translate(580,93)"/>
<path d="M0 0 C5.94 0 11.88 0 18 0 C18.0093457 1.4226416 18.01869141 2.8452832 18.02832031 4.31103516 C18.06825894 9.60041357 18.13402949 14.88921275 18.20751953 20.17822266 C18.23570652 22.46525621 18.25693231 24.75238677 18.27099609 27.03955078 C18.29245638 30.33155906 18.33912471 33.62240378 18.390625 36.9140625 C18.39185364 37.93303619 18.39308228 38.95200989 18.39434814 40.00186157 C18.51585756 45.92088436 18.95711641 49.54290912 23 54 C27.84283806 55.61427935 32.19228677 55.74666416 36.875 53.8125 C39.88798427 51.24260165 40.82246096 48.52091133 41.2784729 44.61442566 C41.29179657 43.79057877 41.30512024 42.96673187 41.31884766 42.11791992 C41.33871735 41.17732224 41.35858704 40.23672455 41.37905884 39.2676239 C41.39061005 38.2653627 41.40216125 37.2631015 41.4140625 36.23046875 C41.43342865 35.19432938 41.4527948 34.15819 41.4727478 33.09065247 C41.53240357 29.78968471 41.57887331 26.48868181 41.625 23.1875 C41.66319263 20.94594855 41.70224511 18.70441158 41.7421875 16.46289062 C41.83809377 10.97537833 41.92217685 5.48779734 42 0 C47.94 0 53.88 0 60 0 C60.09925653 7.24076387 60.17165324 14.48112717 60.21972656 21.72241211 C60.23977812 24.18309432 60.26702647 26.64372925 60.30175781 29.10424805 C60.3505588 32.65164898 60.37303428 36.19841707 60.390625 39.74609375 C60.41127014 40.8370787 60.43191528 41.92806366 60.45318604 43.05210876 C60.45564178 51.50874502 58.47031176 57.22187613 53.875 64.25 C45.82935872 71.94583079 36.64957565 73.49237219 25.90234375 73.2734375 C18.60460974 72.76208477 12.52519221 70.77858383 7.0625 65.8125 C0.39692974 58.03319723 -0.57624344 50.53294708 -0.390625 40.52734375 C-0.38496521 39.3636879 -0.37930542 38.20003204 -0.37347412 37.00111389 C-0.35122266 33.31281034 -0.30104507 29.62550609 -0.25 25.9375 C-0.22992059 23.42514431 -0.21167235 20.91277328 -0.1953125 18.40039062 C-0.15139433 12.26654661 -0.082443 6.13344228 0 0 Z " fill="#AF550E" transform="translate(416,93)"/>
<path d="M0 0 C4.55448783 3.87090285 7.78269525 8.04873232 9 14 C9 15.32 9 16.64 9 18 C5.72963272 18.14510162 2.46008993 18.23399373 -0.8125 18.3125 C-1.74126953 18.35439453 -2.67003906 18.39628906 -3.62695312 18.43945312 C-6.17695924 18.48548212 -8.49477771 18.48415402 -11 18 C-13.01171875 15.54296875 -13.01171875 15.54296875 -14 13 C-16.28705831 11.85647084 -17.59264762 11.89665561 -20.125 11.9375 C-22.043125 11.9684375 -22.043125 11.9684375 -24 12 C-24.71253599 14.56512958 -25.16610402 16.3949068 -24.453125 18.9921875 C-22.31712851 21.94353749 -19.44106781 22.70662538 -16.125 23.875 C-14.764271 24.39097452 -13.40490825 24.91056525 -12.046875 25.43359375 C-11.36689453 25.69382324 -10.68691406 25.95405273 -9.98632812 26.22216797 C-1.83964228 29.41235247 4.75225095 32.09039833 9 40 C10.84181792 46.09124097 10.62202619 52.19400562 8.16796875 58.046875 C4.9778449 63.38153027 -0.54874839 67.69055669 -6.48046875 69.5625 C-16.2743581 71.26314435 -27.2816982 71.21645058 -36 66 C-40.06129709 62.47579473 -43.736319 58.33554202 -45 53 C-45 51.02 -45 49.04 -45 47 C-38.73 47 -32.46 47 -26 47 C-25.34 48.98 -24.68 50.96 -24 53 C-20.47005387 54.17664871 -17.70544587 54.19850603 -14 54 C-13.01 53.34 -12.02 52.68 -11 52 C-10.41654524 49.04253508 -10.41654524 49.04253508 -11 46 C-14.37489198 42.62510802 -18.76108755 41.6083 -23.1875 40.1875 C-39.13169801 34.76292389 -39.13169801 34.76292389 -43.5625 27.3125 C-45.91088129 21.65257644 -45.99348779 15.60760255 -44.375 9.73046875 C-42.06176479 4.32947761 -38.14279658 0.75100192 -33 -2 C-22.44989452 -5.63710838 -9.82112555 -5.77333817 0 0 Z " fill="#AF550E" transform="translate(459,218)"/>
<path d="M0 0 C14.85 0 29.7 0 45 0 C45 4.95 45 9.9 45 15 C36.09 15 27.18 15 18 15 C18 19.29 18 23.58 18 28 C25.92 28 33.84 28 42 28 C42 32.95 42 37.9 42 43 C34.08 43 26.16 43 18 43 C18 47.95 18 52.9 18 58 C26.91 58 35.82 58 45 58 C45 62.95 45 67.9 45 73 C30.15 73 15.3 73 0 73 C0 48.91 0 24.82 0 0 Z " fill="#AF550E" transform="translate(938,215)"/>
<path d="M0 0 C4.01742576 2.28059927 6.5569314 5.1763628 8.625 9.3125 C9.7986045 16.99503158 9.81116968 24.67832585 9.81030273 32.43139648 C9.81248504 34.61006345 9.83068659 36.78821927 9.84960938 38.96679688 C9.93985748 60.83091506 9.93985748 60.83091506 5.4375 66.875 C0.09740097 71.50308583 -4.94135943 72.91607677 -11.8828125 72.65234375 C-16.70347285 71.99498097 -20.51512344 70.38238886 -23.80551147 66.72045898 C-27.79284615 60.86085519 -28.10768317 55.8400323 -28.0390625 48.875 C-28.04384613 47.79549072 -28.04862976 46.71598145 -28.05355835 45.60375977 C-28.05694673 43.33120254 -28.04781915 41.05859587 -28.02685547 38.78613281 C-28.00007696 35.32245424 -28.02664192 31.86201617 -28.05859375 28.3984375 C-28.05528947 26.18228457 -28.04888285 23.96613364 -28.0390625 21.75 C-28.04918365 20.72269775 -28.05930481 19.69539551 -28.06973267 18.63696289 C-27.96337749 12.06020335 -26.85379078 7.2970239 -22.375 2.3125 C-15.67558202 -2.70769134 -7.62999117 -3.47462423 0 0 Z " fill="#AF550E" transform="translate(85.375,206.6875)"/>
<path d="M0 0 C4.01742576 2.28059927 6.5569314 5.1763628 8.625 9.3125 C8.73549526 10.94491996 8.78413128 12.58171575 8.80200195 14.21777344 C8.82125481 15.75011627 8.82125481 15.75011627 8.84089661 17.31341553 C8.84828354 18.42170715 8.85567047 19.52999878 8.86328125 20.671875 C8.871353 21.8090094 8.87942474 22.9461438 8.88774109 24.11773682 C8.90159098 26.52867097 8.91230907 28.93962481 8.92016602 31.35058594 C8.93736496 35.0335828 8.9812429 38.71567903 9.02539062 42.3984375 C9.03551853 44.73957672 9.04403433 47.08072359 9.05078125 49.421875 C9.06828934 50.5220697 9.08579742 51.6222644 9.10383606 52.75579834 C9.08633986 58.94059969 8.76974893 62.60801788 4.625 67.3125 C0.52331332 71.32096652 -3.6970907 72.67941321 -9.375 72.9375 C-15.13378939 72.68268631 -19.12374078 71.22194943 -23.375 67.3125 C-26.60135372 63.04538701 -27.4941575 59.1082411 -27.52026367 53.83862305 C-27.52664352 52.96058517 -27.53302338 52.0825473 -27.53959656 51.17790222 C-27.54070938 50.23618668 -27.5418222 49.29447113 -27.54296875 48.32421875 C-27.54629715 47.34765823 -27.54962555 46.37109772 -27.55305481 45.36494446 C-27.55811414 43.29969757 -27.56046344 41.23444253 -27.56030273 39.16918945 C-27.56248464 36.0221597 -27.58063838 32.87548317 -27.59960938 29.72851562 C-27.60254448 27.71875119 -27.60452849 25.7089851 -27.60546875 23.69921875 C-27.61265427 22.7635759 -27.61983978 21.82793304 -27.62724304 20.86393738 C-27.60464764 14.34599513 -27.40431573 8.79277478 -23.125 3.5625 C-16.09319108 -2.19079821 -8.46084702 -3.88314994 0 0 Z " fill="#AF550E" transform="translate(368.375,206.6875)"/>
<path d="M0 0 C6.93 0 13.86 0 21 0 C25.5047311 8.93311082 29.96464522 17.84284876 34 27 C38.51331868 18.07415636 42.93661642 9.14261305 47 0 C53.93 0 60.86 0 68 0 C66.6849811 3.94505669 65.7266889 6.78493578 63.76928711 10.24755859 C63.11367043 11.42202042 63.11367043 11.42202042 62.44480896 12.62020874 C61.97704544 13.45452423 61.50928192 14.28883972 61.02734375 15.1484375 C60.03324426 16.97777619 59.04179771 18.80855853 58.05273438 20.640625 C56.51301195 23.49036202 54.96304149 26.32996829 53.36499023 29.14746094 C44.99988627 43.95160598 42.36735126 55.999545 43 73 C37.06 73 31.12 73 25 73 C25.06775635 71.48535156 25.1355127 69.97070312 25.20532227 68.41015625 C25.52643994 50.54495837 20.56719497 38.37760831 11.9375 23 C10.78136122 20.86046948 9.62964133 18.71854504 8.48242188 16.57421875 C5.99684333 11.93849816 3.47095798 7.32769236 0.90440369 2.73632812 C0 1 0 1 0 0 Z " fill="#AF550E" transform="translate(473,215)"/>
<path d="M0 0 C5.94 0 11.88 0 18 0 C18 24.09 18 48.18 18 73 C12.06 73 6.12 73 0 73 C0 48.91 0 24.82 0 0 Z " fill="#AF550E" transform="translate(634,93)"/>
</svg>
