<?xml version="1.0" encoding="UTF-8"?>
<svg version="1.1" xmlns="http://www.w3.org/2000/svg" width="830" height="294">
<path d="M0 0 C2.77271942 1.72891952 3.98898847 2.92540989 5.6875 5.67578125 C6.05664349 7.93273544 6.05664349 7.93273544 6.04826355 10.44671631 C6.05238754 11.40301437 6.05651154 12.35931244 6.0607605 13.34458923 C6.04997467 14.38684158 6.03918884 15.42909393 6.02807617 16.50292969 C6.02873329 18.15703606 6.02873329 18.15703606 6.02940369 19.84455872 C6.0273127 23.4916043 6.00396629 27.13819091 5.98046875 30.78515625 C5.97487392 33.31292469 5.97060329 35.84069638 5.96760559 38.36846924 C5.95731925 44.34310178 5.93367208 50.31753713 5.90355712 56.29209065 C5.87001228 63.09493273 5.85352692 69.89778272 5.83847082 76.70068693 C5.80712236 90.6924763 5.75436241 104.68411975 5.6875 118.67578125 C5.0275 119.00578125 4.3675 119.33578125 3.6875 119.67578125 C1.61328125 118.7421875 1.61328125 118.7421875 -1 117.23828125 C-1.99515625 116.68140625 -2.9903125 116.12453125 -4.015625 115.55078125 C-6.23824647 114.28673112 -8.45693134 113.01573713 -10.671875 111.73828125 C-31.54982012 99.94425672 -54.02940374 94.64291274 -77.78125 92.97753906 C-87.56449973 92.1486804 -87.56449973 92.1486804 -90.62109375 89.34765625 C-93.13318603 85.37936267 -92.70159694 83.2671252 -92.3125 78.67578125 C-91.755625 78.505625 -91.19875 78.33546875 -90.625 78.16015625 C-80.039273 74.79847268 -72.84636818 71.37794504 -67.5 61.23828125 C-64.34209801 51.76457529 -65.14199652 41.53088217 -65.3125 31.67578125 C-65.32337646 30.52505127 -65.32337646 30.52505127 -65.33447266 29.35107422 C-65.46487584 19.06248367 -66.08208014 10.04756381 -73.625 2.30078125 C-79.60709072 -1.31629686 -85.73579646 -3.97539606 -92.3125 -6.32421875 C-92.67851307 -13.64448019 -92.67851307 -13.64448019 -91 -16.76171875 C-73.76351312 -32.72142882 -17.82151572 -8.80567817 0 0 Z " fill="#081E34" transform="translate(128.3125,151.32421875)"/>
<path d="M0 0 C0.91458984 -0.03738281 1.82917969 -0.07476562 2.77148438 -0.11328125 C7.37287976 -0.1735177 9.49702004 -0.1341856 13.296875 2.66796875 C15.72380114 6.14288572 15.73603432 8.22181157 15.1875 12.375 C12.87801441 14.68448559 11.55655042 14.94660823 8.4375 15.75 C0.75558449 17.97952145 -4.161358 21.97062378 -8.8125 28.375 C-12.7702801 36.10209448 -11.99872163 45.03717615 -11.99780273 53.48730469 C-11.99998691 55.73652135 -12.01816985 57.98524501 -12.03710938 60.234375 C-12.04004459 61.68489418 -12.04202853 63.13541566 -12.04296875 64.5859375 C-12.04707764 65.88837402 -12.05118652 67.19081055 -12.05541992 68.53271484 C-11.52740774 76.88432868 -8.99491363 82.55610365 -3.625 89 C0.01375557 92.07272693 3.7968013 93.62470444 8.1875 95.375 C9.54313085 95.95492252 10.8974642 96.53789521 12.25 97.125 C13.219375 97.5375 14.18875 97.95 15.1875 98.375 C15.47808436 103.3149341 15.40070034 106.47325673 12.1875 110.375 C9.26084768 111.3583425 6.36096283 111.58935896 3.29296875 111.8046875 C-24.89867464 113.92109807 -54.31537487 120.46547545 -77.74609375 137.22265625 C-78.76896484 137.79306641 -78.76896484 137.79306641 -79.8125 138.375 C-80.8025 138.045 -81.7925 137.715 -82.8125 137.375 C-82.92929201 122.58043072 -83.0174677 107.78592244 -83.07156086 92.99098587 C-83.09734474 86.12143801 -83.13249805 79.25217654 -83.18969727 72.3828125 C-83.24484803 65.7563007 -83.27390346 59.13000871 -83.28688622 52.50325775 C-83.29614089 49.97220926 -83.31421266 47.44117749 -83.34115028 44.91025543 C-83.37732823 41.37112414 -83.3824498 37.83323108 -83.38012695 34.29394531 C-83.39810333 33.24234222 -83.41607971 32.19073914 -83.43460083 31.10726929 C-83.38394398 23.99727412 -83.38394398 23.99727412 -80.41810608 20.7676239 C-75.60716597 18.19631037 -75.60716597 18.19631037 -73.2578125 17.19140625 C-71.97680664 16.63972778 -71.97680664 16.63972778 -70.66992188 16.0769043 C-69.31737305 15.51289917 -69.31737305 15.51289917 -67.9375 14.9375 C-66.52694336 14.34545776 -66.52694336 14.34545776 -65.08789062 13.74145508 C-44.08485973 5.03021505 -22.77809817 0.36077621 0 0 Z " fill="#081E34" transform="translate(224.8125,133.625)"/>
<path d="M0 0 C10.77807102 6.76804796 17.15949237 15.32350698 20.5703125 27.64453125 C21.77582985 41.7042278 19.73701737 53.44548535 10.5703125 64.64453125 C4.80143629 70.80369084 -1.5123465 74.00541758 -9.4296875 76.64453125 C-8.31851563 76.82628906 -7.20734375 77.00804688 -6.0625 77.1953125 C1.98667197 78.5442296 9.83384733 79.96433079 17.5703125 82.64453125 C17.5703125 83.96453125 17.5703125 85.28453125 17.5703125 86.64453125 C16.49136719 86.97324219 15.41242188 87.30195312 14.30078125 87.640625 C4.7506517 90.64360062 -4.18920067 94.1605499 -13.05786133 98.83569336 C-16.41693839 100.54114902 -18.69770393 101.64731799 -22.5078125 101.6328125 C-26.17763012 100.39155066 -29.52771 98.7219744 -32.9296875 96.89453125 C-39.30716459 93.57845107 -45.61965746 90.94496438 -52.44140625 88.65234375 C-55.14923922 87.73911381 -57.78807621 86.73254184 -60.4296875 85.64453125 C-60.4296875 84.98453125 -60.4296875 84.32453125 -60.4296875 83.64453125 C-52.31571837 79.84650314 -44.53240966 78.4973554 -35.6171875 77.890625 C-33.45488839 77.87760657 -33.45488839 77.87760657 -32.4296875 76.64453125 C-33.57244141 76.24234375 -33.57244141 76.24234375 -34.73828125 75.83203125 C-45.87494165 71.60538361 -54.46375445 65.01995564 -59.6171875 54.13671875 C-63.95151821 43.09019533 -64.45036136 29.99121625 -59.68359375 18.99609375 C-53.69138165 7.75836265 -44.22313151 -0.47305717 -32.140625 -4.43359375 C-20.77257645 -7.25765634 -10.11951701 -5.64545403 0 0 Z " fill="#081E34" transform="translate(161.4296875,40.35546875)"/>
<path d="M0 0 C6.6 0 13.2 0 20 0 C21.94008092 4.69514959 23.87935567 9.39061635 25.81665039 14.08691406 C26.47471783 15.68150552 27.13323828 17.2759101 27.79223633 18.87011719 C28.74422015 21.17332709 29.69452473 23.47722393 30.64453125 25.78125 C30.9352803 26.48366821 31.22602936 27.18608643 31.52558899 27.90979004 C33.44606392 32.57343063 35.24939351 37.26988446 37 42 C39.69298265 36.76049964 42.08522706 31.53078298 44.19921875 26.03515625 C44.47973587 25.31637802 44.76025299 24.59759979 45.04927063 23.85704041 C45.93227816 21.5935739 46.81033886 19.32823791 47.6875 17.0625 C48.57580257 14.77194321 49.46522426 12.48184802 50.35786438 10.19297791 C50.9102925 8.77616545 51.46017105 7.35835572 52.00724792 5.93946838 C53.88767689 1.11232311 53.88767689 1.11232311 55 0 C61.27 0 67.54 0 74 0 C74 21.45 74 42.9 74 65 C68.72 65 63.44 65 58 65 C57.67 54.11 57.34 43.22 57 32 C56.14535156 34.29839844 55.29070313 36.59679687 54.41015625 38.96484375 C53.58342131 41.18245642 52.7557465 43.39971612 51.92797852 45.61694336 C51.35179755 47.1618235 50.77659924 48.7070705 50.20239258 50.25268555 C49.37837733 52.47020372 48.55087357 54.68639215 47.72265625 56.90234375 C47.46533218 57.5971434 47.20800812 58.29194305 46.94288635 59.00779724 C45.11387171 63.88612829 45.11387171 63.88612829 44 65 C39.38 65 34.76 65 30 65 C26.04 54.44 22.08 43.88 18 33 C17.67 43.56 17.34 54.12 17 65 C11.39 65 5.78 65 0 65 C0 43.55 0 22.1 0 0 Z " fill="#081E34" transform="translate(683,175)"/>
<path d="M0 0 C17 0 17 0 20.91772461 2.98168945 C22.22898865 4.954422 22.22898865 4.954422 23.40234375 7.11328125 C23.86185928 7.83863571 24.32137482 8.56399017 24.79481506 9.31132507 C26.23562442 11.6140752 27.58504344 13.95700575 28.9375 16.3125 C29.89736937 17.88041089 30.86282788 19.44491452 31.83398438 21.00585938 C33.59917946 23.86113675 35.33122176 26.73086415 37.02319336 29.63012695 C38.28971781 31.78917808 39.61152148 33.91728222 41 36 C41.33 24.12 41.66 12.24 42 0 C47.61 0 53.22 0 59 0 C59 21.45 59 42.9 59 65 C53.39 65 47.78 65 42 65 C38.52177618 61.39622079 37.1267882 59.3053994 35 55 C33.55437367 52.75929595 32.09110933 50.54371307 30.59765625 48.3359375 C29.0839638 46.01691209 27.57260979 43.69635997 26.0625 41.375 C22.0715625 35.249375 22.0715625 35.249375 18 29 C17.67 40.88 17.34 52.76 17 65 C11.39 65 5.78 65 0 65 C0 43.55 0 22.1 0 0 Z " fill="#081E34" transform="translate(405,175)"/>
<path d="M0 0 C40.66197183 0 40.66197183 0 50.03515625 8.94140625 C57.11326564 16.32781804 59.0982939 22.21937505 59.4375 32.375 C59.22468816 41.60918321 57.19039255 49.68572117 50.69921875 56.50390625 C43.3422575 62.98141466 35.67574914 65.33886013 25.87890625 65.1953125 C25.2175769 65.19329834 24.55624756 65.19128418 23.87487793 65.18920898 C21.43734664 65.17885497 18.99991532 65.15093361 16.5625 65.125 C11.096875 65.08375 5.63125 65.0425 0 65 C0 43.55 0 22.1 0 0 Z M17 14 C17 26.21 17 38.42 17 51 C28.0497952 51.44519484 28.0497952 51.44519484 37 47 C42.21597732 41.51653666 42.40473585 36.62293725 42.34765625 29.30859375 C41.84856739 24.55883796 40.25080464 21.45509018 37 18 C30.59023541 13.15359263 25.27501971 14 17 14 Z " fill="#081E34" transform="translate(476,175)"/>
<path d="M0 0 C7.10879054 5.0353933 12.84221359 11.05318261 14.8125 19.7109375 C16.55601206 30.00982272 16.2849344 40.29445512 10.0625 49.0859375 C9.01249976 50.3233461 7.92927344 51.53344116 6.8125 52.7109375 C6.04099609 53.54238281 6.04099609 53.54238281 5.25390625 54.390625 C-1.10888911 60.52454283 -8.97854157 62.90064207 -17.6875 63.2109375 C-27.3771236 62.86611104 -36.23783646 59.59977248 -43.1875 52.7109375 C-51.14419657 42.84038073 -52.41139154 33.01104748 -51.1875 20.7109375 C-50.35363841 17.28073414 -49.11014071 14.65498108 -47.1875 11.7109375 C-46.775 11.01742187 -46.3625 10.32390625 -45.9375 9.609375 C-41.47001677 2.83199988 -35.20570861 -0.65201455 -27.8125 -3.6640625 C-18.22291518 -5.31743919 -8.55098306 -5.03897216 0 0 Z M-31.0625 16.7109375 C-35.2190295 22.57897915 -34.65058013 28.75615999 -34.1875 35.7109375 C-32.48153353 41.01838874 -29.57651915 43.51061104 -25.1875 46.7109375 C-19.82299101 48.49910716 -15.08365476 48.39927902 -9.9375 46.1484375 C-4.79831214 43.32137934 -3.01082073 39.18089969 -1.1875 33.7109375 C-0.58256404 27.70811141 -1.199427 23.06886151 -4.1875 17.7109375 C-8.20904556 12.94858092 -11.3748314 10.97136978 -17.5625 10.3984375 C-23.17504728 10.88227778 -27.35005218 12.42242019 -31.0625 16.7109375 Z " fill="#081E34" transform="translate(657.1875,178.2890625)"/>
<path d="M0 0 C7.8890625 -0.0928125 7.8890625 -0.0928125 15.9375 -0.1875 C17.578396 -0.21481201 19.21929199 -0.24212402 20.90991211 -0.27026367 C29.81895064 -0.32092964 37.88530118 -0.26226518 45.375 5.25 C50.10296459 10.20310576 51.18028439 14.25712639 51.5 20.9375 C51.33885777 26.78989297 49.98587229 30.69318734 46 35 C43.57196547 37.08965319 41.3304337 39 38 39 C41.26136641 45.96522977 45.03608551 52.53572536 49.05249023 59.08422852 C52 63.90532981 52 63.90532981 52 65 C45.73 65 39.46 65 33 65 C31.783125 62.875625 30.56625 60.75125 29.3125 58.5625 C28.71622803 57.52488525 28.71622803 57.52488525 28.10791016 56.46630859 C25.6732072 52.21945895 23.33679782 47.93215748 21.10546875 43.57421875 C20.00126008 41.67006235 20.00126008 41.67006235 17 41 C17 48.92 17 56.84 17 65 C11.39 65 5.78 65 0 65 C0 43.55 0 22.1 0 0 Z M17 14 C17 18.95 17 23.9 17 29 C19.0625 29.0825 21.125 29.165 23.25 29.25 C24.41015625 29.29640625 25.5703125 29.3428125 26.765625 29.390625 C30.06079885 29.26647801 30.06079885 29.26647801 32.390625 27.203125 C34.7309759 23.99934366 34.55235041 21.86645287 34 18 C32.4601036 15.6676026 32.4601036 15.6676026 30 14 C26.72599522 13.51736211 26.72599522 13.51736211 23.25 13.75 C20.15625 13.87375 20.15625 13.87375 17 14 Z " fill="#081E34" transform="translate(546,175)"/>
<path d="M0 0 C5.61 0 11.22 0 17 0 C17.33 8.25 17.66 16.5 18 25 C21.3103125 20.7615625 21.3103125 20.7615625 24.6875 16.4375 C25.37287842 15.56150146 26.05825684 14.68550293 26.7644043 13.78295898 C27.32039307 13.06954346 27.87638184 12.35612793 28.44921875 11.62109375 C29.37287231 10.45404907 29.37287231 10.45404907 30.31518555 9.26342773 C32.01257281 7.08091155 32.01257281 7.08091155 33.21020508 4.86352539 C34.3125 2.9375 34.3125 2.9375 37 0 C40.48032735 -0.8331271 43.76027507 -0.66594697 47.3125 -0.4375 C48.70952148 -0.39012695 48.70952148 -0.39012695 50.13476562 -0.34179688 C52.42642852 -0.25953205 54.71157286 -0.14471638 57 0 C52.76304382 6.81960106 47.87386837 12.97836553 42.7590332 19.15039062 C39.31518142 23.31853438 36.09330122 27.56454015 33 32 C40.60602723 42.27841517 48.56510718 52.29140421 56.63671875 62.20703125 C58 64 58 64 58 65 C51.05876721 66.16250249 43.8292841 67.07692178 37 65 C31.5205891 61.03952951 27.93385685 55.18806557 24.51953125 49.44702148 C22.50113295 46.19663489 20.22386813 43.11341538 18 40 C17.67 48.25 17.34 56.5 17 65 C11.39 65 5.78 65 0 65 C0 43.55 0 22.1 0 0 Z " fill="#081E34" transform="translate(349,76)"/>
<path d="M0 0 C5.61 0 11.22 0 17 0 C17.0093457 1.34223633 17.01869141 2.68447266 17.02832031 4.06738281 C17.06819278 9.04737536 17.13394434 14.02674835 17.20751953 19.00634766 C17.23574499 21.16154013 17.25695165 23.31683643 17.27099609 25.47216797 C17.29240347 28.5705283 17.3390432 31.66763827 17.390625 34.765625 C17.39185364 35.72929993 17.39308228 36.69297485 17.39434814 37.68585205 C17.44909991 43.01349367 17.44909991 43.01349367 19.9152832 47.59716797 C23.19195803 49.80208348 26.10842973 50.06963048 30 50 C33.05019243 49.27060616 34.45458513 48.88275637 36.11288452 46.1987915 C37.07686075 43.80949407 37.27457427 42.07469262 37.31884766 39.50683594 C37.33871735 38.62622498 37.35858704 37.74561401 37.37905884 36.83831787 C37.39061005 35.89651672 37.40216125 34.95471558 37.4140625 33.984375 C37.43342865 33.01340881 37.4527948 32.04244263 37.4727478 31.04205322 C37.53246509 27.94479114 37.5788978 24.84749174 37.625 21.75 C37.66318698 19.64842141 37.70223914 17.54685835 37.7421875 15.4453125 C37.83816031 10.29700132 37.9222206 5.14861688 38 0 C43.61 0 49.22 0 55 0 C55.07453656 6.24387037 55.12878447 12.4874778 55.16479492 18.73168945 C55.17981784 20.85282914 55.20024211 22.9739381 55.22631836 25.0949707 C55.26298838 28.15583919 55.27979175 31.21629454 55.29296875 34.27734375 C55.30845261 35.21521225 55.32393646 36.15308075 55.33988953 37.11936951 C55.34178912 44.66646143 54.03685899 50.88480389 49.875 57.25 C42.28503496 64.50996656 34.71335577 66.39615254 24.45703125 66.26953125 C16.03731423 65.61307874 9.93791227 62.91001258 4.4375 56.48828125 C0.30988224 49.34346465 -0.42702561 42.39726604 -0.29296875 34.27734375 C-0.28872391 33.29125626 -0.28447906 32.30516876 -0.28010559 31.28919983 C-0.26345171 28.17167651 -0.2258248 25.0548245 -0.1875 21.9375 C-0.17243597 19.81055628 -0.15875059 17.68360232 -0.14648438 15.55664062 C-0.11359182 10.37083918 -0.0619026 5.185533 0 0 Z " fill="#081E34" transform="translate(282,76)"/>
<path d="M0 0 C6.6 0 13.2 0 20 0 C23.00050857 8.32668885 25.99968321 16.65385479 28.99648285 24.98187923 C30.38792638 28.84849363 31.77996382 32.71489208 33.17333984 36.58081055 C34.51688266 40.30853439 35.85888984 44.03680768 37.19981384 47.76547432 C37.71281265 49.19109523 38.22637352 50.61651401 38.74049377 52.04173088 C39.45802244 54.03112038 40.17358633 56.02120587 40.88867188 58.01147461 C41.2972644 59.14620712 41.70585693 60.28093964 42.12683105 61.45005798 C43 64 43 64 43 65 C37.06 65 31.12 65 25 65 C22 57 22 57 22 54 C14.08 54 6.16 54 -2 54 C-2.99 57.63 -3.98 61.26 -5 65 C-10.94 65 -16.88 65 -23 65 C-15.97038917 43.10264998 -7.96432465 21.57004592 0 0 Z M9 20 C7.99263372 22.93502595 6.99539496 25.87339461 6 28.8125 C5.57074219 30.06256836 5.57074219 30.06256836 5.1328125 31.33789062 C4.86210937 32.14033203 4.59140625 32.94277344 4.3125 33.76953125 C3.93544922 34.87711792 3.93544922 34.87711792 3.55078125 36.00708008 C2.86680849 38.13732879 2.86680849 38.13732879 3 41 C7.62 41 12.24 41 17 41 C15.13825211 33.73918325 12.94513033 26.89190398 10 20 C9.67 20 9.34 20 9 20 Z " fill="#081E34" transform="translate(435,76)"/>
<path d="M0 0 C3.52253724 3.72382509 6.09367259 7.86256208 6.29296875 13.06640625 C6.25816406 13.80761719 6.22335937 14.54882812 6.1875 15.3125 C3.24847651 15.44731759 0.31560441 15.54649416 -2.625 15.625 C-3.45837891 15.66689453 -4.29175781 15.70878906 -5.15039062 15.75195312 C-7.4721174 15.79857414 -9.5395695 15.79501191 -11.8125 15.3125 C-13.765625 12.84765625 -13.765625 12.84765625 -14.8125 10.3125 C-17.75211083 8.98493382 -19.7922504 9.34170549 -22.8125 10.3125 C-23.1425 12.2925 -23.4725 14.2725 -23.8125 16.3125 C-19.33128966 19.57029098 -15.10402009 21.43567366 -9.875 23.1875 C-2.89085815 25.67320585 2.4598602 28.04315075 6.625 34.5625 C7.75678285 40.09566059 7.91710579 45.27728385 6 50.625 C1.77135866 56.89505439 -3.33189822 60.82699043 -10.8125 62.3125 C-20.01106546 62.95282852 -28.60942286 62.74377485 -36.1875 57 C-41.11290933 51.95731902 -41.80177584 48.38756912 -42.8125 41.3125 C-36.8725 41.3125 -30.9325 41.3125 -24.8125 41.3125 C-23.8225 43.2925 -22.8325 45.2725 -21.8125 47.3125 C-18.95960302 48.56579784 -18.95960302 48.56579784 -15.8125 48.3125 C-12.97591413 46.99576167 -12.97591413 46.99576167 -10.8125 45.3125 C-10.92591534 42.90372743 -10.92591534 42.90372743 -11.8125 40.3125 C-15.74401108 37.46271398 -20.14061152 36.05932586 -24.6875 34.5 C-31.35877558 32.10522182 -36.95288091 29.77820653 -40.953125 23.53125 C-42.81355735 18.72795192 -42.32168318 13.36032831 -41.8125 8.3125 C-39.02058535 2.41845797 -34.77955602 -1.09750985 -28.75 -3.4375 C-18.83458225 -6.44017226 -8.84116133 -5.3046968 0 0 Z " fill="#081E34" transform="translate(322.8125,178.6875)"/>
<path d="M0 0 C13.53 0 27.06 0 41 0 C41 4.29 41 8.58 41 13 C33.08 13 25.16 13 17 13 C17 17.29 17 21.58 17 26 C23.93 26 30.86 26 38 26 C38 30.29 38 34.58 38 39 C31.07 39 24.14 39 17 39 C17 43.29 17 47.58 17 52 C24.92 52 32.84 52 41 52 C41 56.29 41 60.58 41 65 C27.47 65 13.94 65 0 65 C0 43.55 0 22.1 0 0 Z " fill="#081E34" transform="translate(769,175)"/>
<path d="M0 0 C6.27 0 12.54 0 19 0 C30 21.78846154 30 21.78846154 30 25 C30.66 25 31.32 25 32 25 C32.33 23.845 32.66 22.69 33 21.5 C35.47795435 13.96943628 39.39463474 7.03341747 43 0 C48.94 0 54.88 0 61 0 C60.1744391 4.12780449 59.45753547 6.41218733 57.55859375 9.9921875 C56.81186401 11.40866577 56.81186401 11.40866577 56.05004883 12.85375977 C55.51790771 13.85076904 54.9857666 14.84777832 54.4375 15.875 C53.89826904 16.91003662 53.35903809 17.94507324 52.8034668 19.01147461 C50.48017557 23.45150384 48.15849927 27.84876673 45.4609375 32.07421875 C38.83249614 42.6765319 38.82113894 52.73683892 39 65 C33.72 65 28.44 65 23 65 C23.04382813 63.71609375 23.08765625 62.4321875 23.1328125 61.109375 C23.24826065 47.51243703 20.17880771 38.18875649 13.43017578 26.50244141 C11.47206074 23.07624147 9.64670926 19.58597923 7.82006836 16.08837891 C6.96246841 14.44740811 6.09777878 12.81011606 5.22485352 11.17724609 C4.63401978 10.07050537 4.63401978 10.07050537 4.03125 8.94140625 C3.68642578 8.29888916 3.34160156 7.65637207 2.98632812 6.99438477 C1.86252055 4.72201247 0.94150425 2.35376062 0 0 Z " fill="#081E34" transform="translate(336,175)"/>
<path d="M0 0 C3.40458309 2.62661275 5.26097292 5.78146388 6 10 C6.22177785 14.36700743 6.22818785 18.7350489 6.24023438 23.10693359 C6.24990542 25.22924518 6.28093753 27.35057302 6.3125 29.47265625 C6.36852946 36.56665503 6.30577545 42.60883412 3 49 C-0.5698875 52.5698875 -3.60297859 53.30301109 -8.5 53.5625 C-12.21164402 53.42615389 -14.6284781 53.07847438 -17.5625 50.75 C-21.84743449 45.91571493 -22.31698878 42.31354001 -22.3359375 35.9453125 C-22.3425943 35.16614471 -22.3492511 34.38697693 -22.35610962 33.584198 C-22.36621741 31.93848016 -22.37092722 30.2927215 -22.37060547 28.64697266 C-22.37497342 26.14025677 -22.41129517 23.63531022 -22.44921875 21.12890625 C-22.45508856 19.52604765 -22.45905685 17.92318074 -22.4609375 16.3203125 C-22.47530853 15.57637238 -22.48967957 14.83243225 -22.50448608 14.06594849 C-22.45945523 8.88916889 -21.23442345 6.00140296 -18 2 C-12.48559824 -2.99742659 -6.72328579 -2.40428181 0 0 Z " fill="#081E34" transform="translate(253,162)"/>
<path d="M0 0 C3.77610394 2.12704589 6.49110395 4.91993136 8 9 C8.20363696 11.64818552 8.30410468 14.18817733 8.30078125 16.8359375 C8.30506638 17.59290924 8.3093515 18.34988098 8.31376648 19.12979126 C8.31949896 20.72844444 8.32001801 22.3271237 8.31567383 23.92578125 C8.31251965 26.35983291 8.33596473 28.79266149 8.36132812 31.2265625 C8.36360197 32.78385264 8.36430422 34.34114603 8.36328125 35.8984375 C8.372491 36.62050385 8.38170074 37.34257019 8.39118958 38.08651733 C8.34848023 42.79959923 7.48545646 45.99916558 5 50 C1.65263465 53.02856865 -0.99305825 54.27285647 -5.4375 54.5 C-10.32729139 54.24437853 -13.13120945 53.01765663 -17 50 C-19.61711953 45.00597595 -20.38309625 41.27236733 -20.3984375 35.5625 C-20.40274277 34.53684937 -20.40274277 34.53684937 -20.40713501 33.49047852 C-20.4091624 32.05516728 -20.40372595 30.61982757 -20.39111328 29.18457031 C-20.37503852 27.00522249 -20.3910052 24.82772862 -20.41015625 22.6484375 C-20.40817358 21.24478763 -20.40432941 19.8411389 -20.3984375 18.4375 C-20.39505371 17.17808594 -20.39166992 15.91867188 -20.38818359 14.62109375 C-19.81985414 9.31954504 -18.45520242 5.3824423 -14.5 1.625 C-9.63595307 -1.53663051 -5.47739027 -1.37402111 0 0 Z " fill="#081E34" transform="translate(42,161)"/>
<path d="M0 0 C5.61 0 11.22 0 17 0 C17 21.45 17 42.9 17 65 C11.39 65 5.78 65 0 65 C0 43.55 0 22.1 0 0 Z " fill="#081E34" transform="translate(486,76)"/>
</svg>
